{"glyphs":{"0":{"ha":848,"x_min":14,"x_max":827,"o":"m 414 -26 q 89 168 190 -26 q 14 538 14 311 q 113 879 14 732 q 435 1055 231 1055 q 736 898 629 1055 q 827 578 827 766 q 724 125 827 276 q 414 -26 621 -26 m 435 878 q 258 769 325 878 q 200 549 200 674 q 231 294 200 383 q 414 149 281 149 q 581 251 526 149 q 637 555 637 352 q 586 798 637 717 q 435 878 536 878 z "},"1":{"ha":848,"x_min":160,"x_max":650,"o":"m 557 -1 l 288 0 q 160 81 160 0 q 303 172 160 172 q 333 171 317 172 l 333 772 q 256 732 274 732 q 190 759 218 732 q 162 822 162 786 q 208 899 162 859 l 284 954 l 367 1021 q 465 1057 418 1057 q 526 984 526 1057 q 519 757 526 903 q 513 338 513 610 l 513 174 l 557 174 q 624 149 597 174 q 650 87 650 124 q 624 24 650 50 q 557 -1 597 -1 z "},"2":{"ha":848,"x_min":84,"x_max":774,"o":"m 684 -1 q 631 4 667 -1 q 580 10 595 10 l 380 11 q 302 4 355 11 q 224 -2 250 -2 q 202 1 216 -2 q 180 3 188 3 q 98 53 119 3 q 84 149 84 84 q 140 361 84 276 q 281 493 184 427 q 463 613 372 553 q 570 790 570 691 q 528 841 570 816 q 444 867 485 867 q 292 803 372 867 q 182 739 212 739 q 119 756 146 739 q 85 817 85 778 q 119 888 85 858 q 262 994 201 960 q 444 1042 350 1042 q 656 980 562 1042 q 764 795 764 909 q 711 600 764 680 q 580 474 669 535 q 410 368 495 420 q 272 176 281 283 q 382 186 309 180 q 589 194 526 194 q 704 169 647 194 q 774 89 774 138 q 749 27 774 54 q 684 -1 723 -1 z "},"3":{"ha":848,"x_min":72,"x_max":762,"o":"m 622 549 q 762 300 762 471 q 659 65 762 161 q 410 -31 557 -31 q 214 13 301 -31 q 77 159 113 64 q 72 190 72 174 q 102 253 72 228 q 168 276 131 276 q 236 242 210 276 q 286 178 279 184 q 410 144 328 144 q 523 183 475 144 q 572 276 572 222 q 345 467 572 445 q 245 551 245 477 q 322 633 245 607 q 468 666 395 649 q 537 703 514 680 q 561 758 560 726 q 403 859 564 859 q 287 819 350 859 q 201 779 224 779 q 135 806 162 779 q 108 869 108 834 q 222 984 108 927 q 387 1035 323 1035 q 635 968 541 1035 q 737 760 737 895 q 708 632 737 685 q 622 549 680 580 z "},"4":{"ha":848,"x_min":5,"x_max":834,"o":"m 494 280 l 223 280 q 5 369 5 280 q 43 452 5 406 q 106 524 75 488 q 439 987 216 680 q 577 1058 492 1058 q 646 1038 617 1058 q 681 969 681 1013 l 682 459 q 800 441 770 456 q 833 369 833 422 q 782 292 834 313 q 682 280 745 277 q 681 68 684 182 q 656 7 680 31 q 592 -18 633 -18 q 494 118 489 -18 l 494 280 m 494 764 q 291 459 428 660 l 494 459 l 494 764 z "},"5":{"ha":848,"x_min":58,"x_max":809,"o":"m 381 -43 q 75 105 174 -43 q 58 155 58 131 q 87 217 58 191 q 154 243 117 243 q 219 214 192 243 q 271 161 267 165 q 381 133 311 133 q 555 210 486 133 q 623 389 623 283 q 589 540 623 490 q 488 590 555 590 q 296 513 368 590 q 238 448 267 480 q 160 414 201 414 q 95 440 121 414 q 68 503 68 467 q 79 621 68 518 q 102 885 102 819 q 90 930 102 901 q 78 975 78 958 q 113 1026 78 1008 q 176 1040 140 1040 q 217 1037 190 1040 q 258 1035 245 1035 l 585 1034 q 637 1038 597 1034 q 690 1042 677 1042 q 750 1019 726 1042 q 774 959 774 996 q 568 858 774 858 q 527 859 552 858 q 494 859 503 859 l 292 859 q 275 722 290 818 q 488 766 364 766 q 738 643 652 766 q 809 389 809 542 q 695 83 809 204 q 381 -43 576 -43 z "},"6":{"ha":848,"x_min":61,"x_max":792,"o":"m 418 -49 q 134 87 226 -49 q 61 372 61 195 q 342 944 61 702 q 412 1011 377 978 q 494 1055 462 1055 q 560 1030 532 1055 q 590 968 589 1004 q 513 859 591 935 q 401 757 456 808 q 311 637 338 696 q 379 659 347 652 q 437 665 410 665 q 699 577 606 665 q 792 330 792 488 q 694 61 792 166 q 418 -49 590 -49 m 418 482 q 328 466 368 482 q 250 423 307 457 q 248 372 248 395 q 291 179 248 243 q 421 115 334 115 q 559 175 510 115 q 606 330 606 232 q 559 444 606 406 q 418 482 512 482 z "},"7":{"ha":848,"x_min":20,"x_max":850,"o":"m 547 837 q 264 843 471 838 q 111 848 213 843 q 20 935 20 855 q 47 998 20 972 q 114 1023 75 1023 q 371 1018 199 1023 q 627 1013 542 1013 l 751 1013 q 816 998 788 1013 q 850 946 850 981 q 810 857 850 909 q 741 781 776 819 q 582 547 655 686 q 460 292 559 503 q 403 140 448 264 q 334 -6 369 47 q 258 -45 307 -45 q 192 -20 221 -45 q 163 43 163 5 q 208 178 163 72 q 354 520 281 349 q 547 837 448 720 z "},"8":{"ha":848,"x_min":52,"x_max":791,"o":"m 416 -37 q 170 27 266 -37 q 56 245 58 102 q 187 532 52 445 q 89 728 89 610 q 191 949 89 861 q 425 1035 288 1034 q 667 949 587 1036 q 736 741 736 873 q 710 623 736 667 q 631 550 686 583 q 749 443 713 504 q 791 264 791 375 q 677 37 791 119 q 416 -37 575 -37 m 422 868 q 275 728 274 868 q 404 626 276 659 q 502 662 475 646 q 550 741 550 691 q 517 845 550 817 q 422 868 490 868 m 412 457 q 283 382 315 414 q 241 252 238 336 q 304 153 243 186 q 416 127 353 127 q 563 172 523 127 q 594 285 594 208 q 539 398 594 355 q 412 457 498 431 z "},"9":{"ha":848,"x_min":36,"x_max":798,"o":"m 536 368 q 460 346 494 353 q 399 339 426 339 q 161 412 262 339 q 36 668 36 502 q 163 959 36 861 q 442 1042 271 1042 q 685 937 578 1042 q 798 671 797 827 q 732 342 798 501 q 535 81 660 169 q 372 -7 483 44 q 191 -64 244 -64 q 125 -36 151 -64 q 100 26 100 -9 q 165 109 100 80 q 277 144 221 126 q 432 231 376 182 q 536 368 489 279 m 422 880 q 272 830 322 880 q 221 680 222 780 q 280 553 221 598 q 418 512 334 512 q 499 533 452 512 q 604 596 545 554 q 611 671 611 644 q 547 812 610 742 q 422 880 484 880 z "}," ":{"ha":602,"x_min":0,"x_max":0,"o":""},"!":{"ha":330,"x_min":54,"x_max":252,"o":"m 164 201 q 101 225 126 201 q 77 285 77 249 q 75 364 77 311 q 73 443 73 416 q 75 724 73 536 q 77 1004 77 911 q 102 1064 77 1040 q 164 1088 127 1088 q 227 1064 201 1088 q 252 1004 252 1040 l 252 285 q 227 225 252 249 q 164 201 202 201 m 162 -45 q 86 -1 121 -45 q 54 73 54 39 q 82 132 54 109 q 145 156 110 156 q 220 113 186 156 q 252 39 252 73 q 225 -20 252 4 q 162 -45 197 -45 z "},"\"":{"ha":608,"x_min":52,"x_max":547,"o":"m 543 943 l 537 707 q 512 652 536 674 q 450 629 488 629 q 387 652 412 629 q 362 707 361 673 q 370 983 361 802 q 397 1052 374 1029 q 460 1074 419 1074 q 522 1052 497 1074 q 547 996 547 1029 q 545 969 547 987 q 543 943 543 951 m 144 632 q 52 760 52 632 q 54 879 52 800 q 56 999 56 959 q 81 1055 56 1032 q 143 1077 106 1077 q 205 1055 180 1077 q 231 999 231 1032 q 229 883 231 960 q 227 768 227 806 q 230 738 227 758 q 233 708 233 718 q 206 653 233 675 q 144 632 179 632 z "},"#":{"ha":1171,"x_min":-18,"x_max":1154,"o":"m 210 427 q 311 688 277 591 q 230 688 280 688 q 149 690 168 690 q 86 713 111 690 q 60 772 60 736 q 144 856 60 847 q 365 863 218 858 l 410 989 q 489 1074 448 1074 q 578 992 578 1074 q 547 863 578 955 l 789 863 q 837 1025 807 932 q 920 1093 859 1093 q 983 1069 956 1093 q 1010 1011 1010 1046 q 971 865 1010 991 q 1032 867 1013 867 q 1154 781 1154 867 q 1094 699 1154 718 q 983 690 1064 690 q 954 690 975 690 l 925 690 q 838 427 896 604 l 933 427 q 1072 336 1072 427 q 1047 280 1072 301 q 986 259 1022 259 q 887 258 970 259 q 789 258 827 258 q 735 66 770 199 q 630 -15 716 -15 q 555 56 555 -15 q 608 259 555 90 l 330 259 q 245 38 272 120 q 165 -16 227 -16 q 103 7 131 -16 q 75 66 75 31 q 145 259 75 75 l 67 259 q 4 290 29 259 q -18 351 -18 318 q 58 427 -18 420 q 210 427 65 427 m 496 690 l 397 427 l 657 427 l 741 690 l 496 690 z "},"$":{"ha":963,"x_min":66,"x_max":893,"o":"m 398 782 q 287 677 287 740 q 398 610 287 624 l 398 782 m 544 173 q 692 301 692 224 q 544 432 692 416 l 544 173 m 893 292 q 784 80 893 164 q 544 -20 694 11 l 544 -190 q 466 -262 544 -262 q 413 -237 432 -262 q 398 -190 398 -216 l 398 -40 q 347 -41 372 -41 q 134 -5 210 -41 q 66 79 66 28 q 173 176 66 176 q 267 156 201 176 q 353 136 334 136 q 398 139 372 136 l 398 438 q 196 488 279 446 q 87 642 87 544 q 184 848 87 754 q 398 972 271 932 l 398 1084 q 473 1164 398 1164 q 544 1084 544 1164 l 544 995 q 708 961 621 990 q 820 877 820 924 q 792 811 820 838 q 726 784 764 784 q 635 797 693 784 q 544 811 573 810 l 544 603 q 559 602 553 603 q 795 518 709 591 q 893 292 893 437 z "},"%":{"ha":1139,"x_min":73,"x_max":1118,"o":"m 300 673 q 130 745 193 673 q 73 911 73 811 q 151 1052 73 987 q 302 1114 226 1114 q 479 1042 414 1114 q 542 871 542 975 q 463 722 542 779 q 300 673 393 673 m 860 961 q 807 860 836 923 q 760 755 766 770 q 626 482 713 665 q 473 176 623 475 q 405 28 452 125 q 330 -20 378 -20 q 271 2 297 -20 q 244 58 244 24 q 347 299 244 94 l 471 545 q 654 932 535 673 q 790 1088 720 1088 q 850 1064 824 1088 q 876 1008 876 1041 q 860 961 876 986 m 854 -14 q 683 46 751 -14 q 610 208 610 109 q 673 384 610 313 q 853 460 741 460 q 1031 406 954 460 q 1118 243 1118 343 q 1044 60 1118 134 q 854 -14 970 -14 m 300 953 q 259 939 278 953 q 240 911 240 925 q 255 852 240 872 q 300 833 271 833 q 353 845 332 833 q 374 871 374 857 q 355 932 374 912 q 300 953 337 953 m 853 300 q 797 277 816 300 q 779 208 779 254 q 801 162 779 178 q 869 146 824 146 q 933 168 916 146 q 950 243 950 189 q 921 283 950 266 q 853 300 892 300 z "},"&":{"ha":909,"x_min":24,"x_max":887,"o":"m 797 -64 q 722 -19 751 -64 q 661 83 701 15 q 361 -28 524 -28 q 127 52 225 -28 q 24 268 24 137 q 125 487 24 394 q 338 633 158 517 q 299 823 299 741 q 361 975 299 897 q 509 1061 429 1061 q 660 1002 601 1061 q 716 864 716 945 q 555 585 716 707 q 659 400 602 489 l 682 507 q 759 571 705 571 q 823 534 799 571 q 844 463 844 502 q 778 220 844 336 q 887 18 887 59 q 859 -40 887 -17 q 797 -64 831 -64 m 509 893 q 477 867 490 891 q 467 824 467 846 q 480 772 467 814 q 495 720 494 724 q 538 777 517 742 q 562 839 562 817 q 555 880 562 869 q 509 893 543 897 m 415 488 q 275 399 345 444 q 199 268 199 339 q 248 174 199 210 q 361 138 294 138 q 564 225 475 138 q 415 488 522 287 z "},"'":{"ha":602,"x_min":204,"x_max":390,"o":"m 386 943 l 380 707 q 355 652 379 674 q 292 629 330 629 q 230 652 255 629 q 205 707 204 673 q 212 983 204 802 q 239 1052 217 1029 q 302 1074 262 1074 q 365 1052 340 1074 q 390 996 390 1029 q 388 969 390 987 q 386 943 386 951 z "},"(":{"ha":509,"x_min":48,"x_max":500,"o":"m 451 916 q 390 857 427 893 q 278 633 319 779 q 241 379 241 504 q 275 118 241 237 q 415 -106 320 -41 q 500 -212 500 -165 q 474 -269 500 -245 q 413 -293 447 -293 q 351 -275 385 -293 q 48 394 48 -113 q 124 762 48 576 q 351 1066 210 971 q 411 1089 387 1089 q 474 1062 448 1089 q 500 1001 500 1036 q 451 916 500 967 z "},")":{"ha":509,"x_min":48,"x_max":500,"o":"m 199 -275 q 136 -293 164 -293 q 75 -269 102 -293 q 49 -212 49 -245 q 90 -138 49 -171 q 159 -86 125 -113 q 308 379 308 60 q 271 633 308 504 q 159 857 230 779 q 92 923 125 890 q 48 1001 48 970 q 75 1062 48 1036 q 138 1089 101 1089 q 197 1066 163 1089 q 425 762 339 971 q 500 394 500 576 q 199 -275 500 -113 z "},"*":{"ha":736,"x_min":5,"x_max":680,"o":"m 608 786 q 492 769 559 777 q 608 610 608 652 q 581 553 608 576 q 518 530 553 530 q 442 568 481 530 q 385 635 414 602 q 337 686 358 667 q 147 553 197 553 q 85 578 111 553 q 58 635 58 602 q 93 698 58 665 q 153 746 123 722 q 184 771 172 762 q 60 813 100 797 q 5 884 5 836 q 30 941 5 916 q 92 967 54 967 q 246 920 111 967 q 243 1002 243 978 q 268 1058 243 1036 q 330 1081 293 1081 q 393 1058 368 1081 q 418 1002 418 1036 q 420 926 418 960 q 595 944 544 944 q 656 920 632 944 q 680 863 680 896 q 608 786 680 800 z "},"+":{"ha":848,"x_min":113,"x_max":754,"o":"m 669 355 q 645 357 661 355 q 620 359 629 359 q 566 358 602 359 q 511 357 530 357 q 511 297 512 334 q 511 237 511 250 q 486 180 511 203 q 423 157 460 157 q 361 180 386 157 q 336 237 336 203 q 334 354 336 229 q 245 351 283 351 q 160 369 197 351 q 113 433 113 391 q 157 502 113 486 q 245 511 180 511 q 334 513 284 511 q 334 541 334 520 q 333 574 333 561 q 425 709 333 709 q 487 687 460 709 q 513 631 513 665 q 511 598 513 621 q 509 564 509 575 l 509 516 q 533 515 525 515 q 574 517 547 515 q 616 518 602 518 q 754 436 754 518 q 731 380 754 404 q 669 355 706 355 z "},",":{"ha":602,"x_min":146,"x_max":405,"o":"m 359 -84 q 307 -189 326 -151 q 233 -233 283 -233 q 172 -211 197 -233 q 146 -158 146 -188 q 190 -53 146 -140 q 248 56 229 24 q 319 96 273 96 q 380 73 355 96 q 405 20 405 50 q 359 -84 405 7 z "},"-":{"ha":848,"x_min":149,"x_max":696,"o":"m 593 292 q 260 286 499 286 q 186 304 218 286 q 149 367 149 328 q 186 429 149 406 q 260 449 218 449 q 420 452 313 449 q 581 455 528 455 q 655 438 623 455 q 696 374 696 416 q 593 292 696 300 z "},".":{"ha":602,"x_min":187,"x_max":410,"o":"m 299 -71 q 220 -42 254 -71 q 187 21 187 -14 q 220 86 187 57 q 299 115 254 115 q 378 87 347 115 q 410 21 410 60 q 377 -43 410 -15 q 299 -71 345 -71 z "},"/":{"ha":711,"x_min":30,"x_max":686,"o":"m 677 975 q 600 799 650 918 q 470 521 554 679 q 322 252 396 387 q 199 -7 308 224 q 120 -61 174 -61 q 58 -39 85 -61 q 30 21 30 -14 q 36 52 30 37 q 236 453 90 191 q 436 856 382 715 q 496 1000 477 962 q 596 1103 549 1104 q 657 1079 631 1101 q 686 1020 686 1055 q 677 975 686 999 z "},":":{"ha":602,"x_min":205,"x_max":416,"o":"m 308 543 q 238 568 266 543 q 211 631 211 593 q 208 654 211 639 q 205 678 205 670 q 234 741 205 716 q 302 766 262 766 q 404 631 404 766 q 377 568 404 593 q 308 543 349 543 m 319 83 q 214 242 214 83 q 244 306 214 280 q 313 330 273 330 q 416 173 416 330 q 388 109 416 134 q 319 83 360 83 z "},";":{"ha":602,"x_min":145,"x_max":423,"o":"m 327 534 q 258 561 286 534 q 231 626 231 587 q 227 649 231 634 q 224 673 224 665 q 254 737 224 711 q 321 762 281 762 q 423 626 423 762 q 396 561 423 587 q 327 534 368 534 m 366 12 q 339 -20 346 -11 q 320 -55 321 -42 q 233 -132 310 -132 q 169 -107 193 -132 q 145 -45 145 -82 q 208 91 145 3 q 330 186 276 186 q 393 162 366 186 q 420 104 420 138 q 366 12 420 71 z "},"<":{"ha":848,"x_min":163,"x_max":629,"o":"m 600 581 q 422 418 543 524 q 580 275 473 368 q 614 214 614 248 q 588 156 614 181 q 526 132 562 132 q 431 180 488 132 l 352 256 q 231 336 289 316 q 163 412 163 360 q 224 485 163 458 q 359 584 285 512 q 482 699 461 683 q 541 720 510 720 q 603 695 576 720 q 629 638 629 671 q 600 581 629 606 z "},"=":{"ha":848,"x_min":128,"x_max":712,"o":"m 625 519 l 307 519 q 261 518 292 519 q 215 517 231 517 q 153 540 177 517 q 128 596 128 563 q 262 678 128 678 q 287 677 271 678 l 308 677 l 625 677 q 687 654 663 677 q 712 598 712 632 q 687 542 712 564 q 625 519 663 519 m 615 189 q 481 190 570 189 q 347 192 391 192 q 286 190 326 192 q 225 187 245 187 q 161 209 186 187 q 136 266 136 231 q 219 345 136 339 q 347 349 290 349 q 481 348 391 349 q 615 346 570 346 q 678 323 653 346 q 703 267 703 301 q 678 211 703 233 q 615 189 653 189 z "},">":{"ha":848,"x_min":199,"x_max":713,"o":"m 678 387 q 336 141 515 246 q 286 126 311 126 q 224 151 250 126 q 199 209 199 176 q 235 273 199 246 q 471 437 315 326 q 321 562 393 493 q 230 682 230 647 q 257 739 230 715 q 320 763 285 763 q 386 733 357 763 q 658 519 538 577 q 713 450 713 493 q 678 387 713 416 z "},"?":{"ha":786,"x_min":57,"x_max":728,"o":"m 589 439 q 477 360 584 435 q 372 273 408 313 q 300 237 340 237 q 233 265 262 237 q 203 330 203 293 q 291 451 203 384 q 452 566 372 508 q 540 686 540 632 q 476 804 540 749 q 342 859 412 859 q 242 818 306 859 q 152 776 178 776 q 84 805 112 776 q 57 871 57 835 q 176 995 57 939 q 342 1043 276 1043 q 609 935 490 1043 q 728 686 728 826 q 589 439 728 547 m 263 -49 q 193 -24 224 -49 q 158 43 158 3 q 185 128 158 89 q 273 176 218 176 q 345 142 319 176 q 365 75 365 113 q 342 -3 365 33 q 263 -49 314 -49 z "},"@":{"ha":1293,"x_min":47,"x_max":1216,"o":"m 886 263 q 792 286 839 263 q 697 353 745 309 q 623 299 669 323 q 538 273 574 273 q 377 339 452 273 q 302 488 302 406 q 407 724 302 618 q 652 831 515 831 q 733 763 733 831 q 671 685 733 712 q 555 635 558 637 q 492 502 492 591 q 504 477 492 492 q 537 458 518 459 q 620 505 585 457 l 673 593 q 749 640 706 640 q 819 558 819 640 q 815 519 819 545 q 810 479 810 493 q 838 449 810 454 q 886 448 842 448 q 995 482 965 448 q 1023 595 1023 514 q 900 834 1023 741 q 625 920 785 920 q 337 788 441 920 q 241 484 241 668 q 353 201 241 316 q 650 83 469 83 q 884 143 716 83 q 932 156 920 156 q 1000 126 972 156 q 1027 60 1027 97 q 872 -56 1027 -9 q 652 -95 748 -95 q 227 68 401 -95 q 47 484 47 234 q 197 917 47 741 q 625 1105 358 1105 q 1034 968 863 1105 q 1216 595 1216 821 q 1134 353 1216 439 q 886 263 1048 263 z "},"A":{"ha":1016,"x_min":62,"x_max":944,"o":"m 848 -20 q 740 106 794 -18 q 678 290 704 186 q 514 275 628 283 q 350 258 407 268 q 241 33 319 183 q 159 -16 212 -16 q 92 10 121 -16 q 62 75 62 35 q 161 309 62 109 q 153 349 151 330 q 218 399 155 381 q 433 745 315 566 q 642 1002 602 1002 q 741 912 716 1002 q 784 694 755 840 q 885 248 825 499 q 920 158 890 229 q 944 71 944 100 q 915 5 944 31 q 848 -20 885 -22 m 595 675 q 449 428 542 585 q 544 439 479 435 q 640 446 620 444 q 595 675 623 534 z "},"B":{"ha":876,"x_min":90,"x_max":836,"o":"m 600 26 q 200 -33 441 -33 q 127 1 159 -33 q 95 74 95 35 l 95 793 q 92 885 93 839 q 95 973 90 937 q 214 1050 104 1037 q 385 1065 265 1065 q 630 983 513 1065 q 768 742 768 886 q 739 610 768 664 q 661 517 717 567 q 778 421 727 486 q 836 278 836 349 q 737 107 836 188 q 600 26 671 54 m 385 882 q 279 880 297 882 l 280 736 l 279 594 q 372 589 341 587 q 580 742 580 606 q 519 835 580 790 q 385 882 456 882 m 464 402 q 279 407 402 402 l 279 153 q 532 198 396 159 q 650 271 652 232 q 574 364 648 323 q 464 402 515 397 z "},"C":{"ha":859,"x_min":34,"x_max":843,"o":"m 749 722 q 659 787 688 722 q 631 823 645 817 q 578 828 621 828 q 380 695 492 828 q 224 347 224 509 q 273 220 224 273 q 392 168 323 168 q 528 203 459 168 q 631 269 553 216 q 711 304 684 304 q 781 275 752 304 q 807 211 807 247 q 772 141 807 171 q 392 -16 585 -16 q 134 95 239 -16 q 34 347 34 202 q 233 811 34 574 q 578 1012 401 1012 q 632 1010 608 1012 q 674 1004 656 1008 q 746 1033 704 1033 q 831 954 815 1033 q 843 821 843 897 q 823 759 843 787 q 749 722 798 722 z "},"D":{"ha":1002,"x_min":97,"x_max":960,"o":"m 191 -7 q 124 21 151 -6 q 97 85 97 47 q 103 289 97 153 q 110 492 110 425 q 107 718 110 568 q 104 944 104 869 q 140 1018 104 981 q 216 1055 176 1055 q 329 1013 239 1055 q 454 957 434 963 q 793 758 652 892 q 960 402 960 597 q 903 179 960 285 q 745 6 845 71 q 428 -67 632 -67 q 314 -53 378 -67 q 191 -7 236 -35 m 572 690 q 290 821 507 732 l 290 149 q 351 124 317 132 q 427 115 385 115 q 637 156 574 115 q 733 261 698 195 q 769 399 769 328 q 572 690 769 568 z "},"E":{"ha":867,"x_min":64,"x_max":846,"o":"m 752 869 q 724 873 739 869 q 510 903 614 903 q 401 895 459 903 q 277 871 342 887 q 271 603 277 781 q 536 628 309 606 q 700 641 665 641 q 768 615 740 641 q 797 548 797 590 q 711 456 797 467 q 549 443 656 452 q 258 416 452 432 q 254 277 254 330 q 269 126 254 144 q 355 117 277 117 q 481 119 397 117 q 608 121 566 121 q 648 125 622 121 q 688 130 675 130 q 755 107 727 130 q 787 37 787 82 q 707 -54 787 -39 q 426 -67 640 -67 q 138 -7 205 -67 q 64 277 64 58 q 77 550 64 368 q 90 823 90 732 q 83 893 90 846 q 77 963 77 939 q 172 1066 77 1066 q 227 1049 201 1066 q 376 1079 305 1069 q 510 1088 447 1088 q 783 1049 681 1088 q 846 963 846 1025 q 821 901 846 928 q 752 869 794 869 z "},"F":{"ha":843,"x_min":63,"x_max":810,"o":"m 716 848 q 682 854 701 848 q 468 882 594 882 q 373 877 427 882 q 253 861 319 871 q 253 637 254 730 q 424 662 356 662 q 644 650 550 662 q 731 558 731 640 q 703 492 731 519 q 635 466 675 466 q 530 471 600 466 q 424 477 459 477 q 253 446 374 477 l 253 20 q 222 -45 253 -19 q 151 -72 191 -72 q 87 -46 112 -72 q 63 20 63 -20 l 63 798 q 64 878 63 824 q 65 958 65 931 q 92 1024 65 998 q 159 1050 119 1050 q 205 1040 185 1050 q 349 1060 283 1054 q 468 1067 415 1067 q 663 1035 545 1067 q 810 942 810 995 q 782 876 810 903 q 716 848 755 848 z "},"G":{"ha":944,"x_min":26,"x_max":946,"o":"m 905 399 q 720 75 859 197 q 387 -47 578 -47 q 117 48 207 -47 q 26 334 26 144 q 112 690 26 508 q 332 986 197 873 q 534 1065 426 1065 q 713 1018 600 1065 q 847 898 847 962 q 819 832 847 861 q 751 804 791 804 q 661 842 730 804 q 534 880 591 880 q 369 749 473 880 q 218 334 218 557 q 251 180 218 221 q 387 138 286 138 q 570 197 491 138 q 693 378 653 259 q 419 314 536 366 q 377 304 398 304 q 307 336 335 304 q 282 399 282 363 q 528 544 282 503 q 850 567 666 567 q 919 541 891 567 q 946 475 946 514 q 905 399 946 426 z "},"H":{"ha":1067,"x_min":76,"x_max":1021,"o":"m 1018 941 q 1004 854 1004 891 q 1001 796 1004 836 q 997 737 997 756 q 990 546 997 673 q 983 355 983 419 q 991 207 983 305 q 998 59 998 109 q 972 -4 998 22 q 906 -30 945 -30 q 837 -4 866 -30 q 808 58 808 21 q 803 206 808 107 q 799 355 799 305 q 800 423 799 393 q 537 390 694 418 q 277 342 407 366 q 267 188 275 296 q 260 33 260 93 q 234 -31 260 -5 q 168 -56 208 -56 q 102 -31 129 -56 q 76 33 76 -5 q 88 237 76 101 q 100 442 100 374 q 104 704 100 529 q 108 965 108 878 q 134 1028 108 1002 q 200 1054 161 1054 q 266 1028 239 1054 q 292 965 292 1002 q 289 810 292 913 q 285 655 285 707 q 280 590 285 638 q 277 522 276 545 l 537 570 q 800 602 690 597 q 809 846 803 647 q 841 966 810 898 q 927 1049 879 1049 q 991 1025 963 1049 q 1021 961 1021 1000 q 1018 941 1021 951 z "},"I":{"ha":759,"x_min":24,"x_max":746,"o":"m 649 802 q 456 821 614 802 q 446 489 446 696 l 446 184 q 629 186 536 186 q 697 159 670 186 q 724 94 724 132 q 697 30 724 56 q 629 3 670 3 q 515 1 591 3 q 401 -1 439 -1 q 267 -13 357 -1 q 133 -24 178 -24 q 65 2 92 -24 q 39 67 39 29 q 65 132 39 105 q 133 159 92 159 q 254 170 179 159 q 253 476 253 250 q 267 828 253 661 l 119 824 q 51 850 79 824 q 24 916 24 877 q 51 981 24 956 q 113 1008 76 1004 q 320 1013 172 1013 q 663 985 453 1013 q 746 891 746 973 q 712 823 746 848 q 649 802 684 802 z "},"J":{"ha":924,"x_min":37,"x_max":906,"o":"m 812 833 q 773 835 800 833 q 730 838 747 838 l 677 838 q 677 789 677 849 q 608 82 677 304 q 426 -81 558 -81 q 176 5 300 -81 q 37 233 37 102 q 132 339 37 339 q 228 235 228 339 q 297 149 228 195 q 426 103 366 103 q 461 193 450 103 q 476 404 464 215 q 486 789 486 559 q 484 833 486 799 l 469 833 q 389 833 439 831 q 309 836 328 836 q 241 861 269 836 q 211 929 211 887 q 332 1021 211 1021 q 401 1020 355 1021 q 469 1018 446 1018 q 596 1023 511 1018 q 724 1027 682 1027 q 906 926 906 1027 q 882 863 906 891 q 812 833 854 833 z "},"K":{"ha":848,"x_min":73,"x_max":825,"o":"m 268 300 l 267 15 q 250 -40 267 -15 q 181 -75 227 -75 q 97 -31 127 -75 q 73 41 73 3 q 83 494 73 192 q 92 946 92 795 q 119 1011 92 984 q 187 1038 146 1038 q 255 1011 228 1038 q 281 946 281 984 q 275 781 281 885 q 267 616 268 661 q 618 994 314 661 q 690 1027 650 1027 q 758 1000 729 1027 q 787 935 787 973 q 625 716 787 892 q 374 460 506 587 q 522 321 448 391 q 678 189 609 241 q 753 151 713 164 q 825 62 825 128 q 807 6 825 33 q 737 -31 782 -31 q 486 96 640 -31 q 268 300 439 134 z "},"L":{"ha":765,"x_min":41,"x_max":766,"o":"m 707 26 q 459 -37 627 -9 q 208 -63 306 -63 q 41 83 41 -63 q 55 298 41 71 q 73 953 73 592 q 99 1019 73 991 q 167 1046 126 1046 q 235 1019 208 1046 q 262 953 262 991 q 243 287 262 591 q 231 121 237 233 q 643 199 391 123 q 673 204 659 204 q 742 173 715 204 q 766 111 766 145 q 707 26 766 52 z "},"M":{"ha":1226,"x_min":49,"x_max":1201,"o":"m 359 536 q 273 204 328 426 q 248 52 260 127 q 146 -45 220 -45 q 72 -13 99 -45 q 49 52 49 14 q 96 319 49 161 q 171 582 165 556 q 211 791 191 686 q 277 982 241 935 q 367 1030 313 1030 q 458 968 429 1030 q 516 726 485 909 q 605 345 546 549 q 749 787 682 547 l 787 943 q 900 1040 823 1040 q 1010 928 974 1040 q 1042 758 1025 882 q 1141 263 1081 469 q 1201 35 1201 54 q 1169 -32 1201 -5 q 1102 -56 1139 -56 q 992 50 1028 -56 l 954 214 q 884 564 922 336 q 783 279 853 473 l 742 154 q 690 33 717 80 q 589 -31 654 -31 q 492 45 526 -31 l 454 171 q 359 536 401 345 z "},"N":{"ha":1129,"x_min":56,"x_max":1078,"o":"m 1072 167 q 1061 60 1072 133 q 962 -28 1047 -28 q 854 26 914 -28 q 265 686 593 261 q 261 469 261 509 q 263 308 261 416 q 266 146 266 200 q 168 -54 266 -54 q 89 -23 119 -54 q 62 43 62 4 q 67 125 62 70 q 71 207 71 180 q 74 327 71 247 q 77 447 77 407 q 75 576 77 490 q 73 705 73 662 q 64 826 73 745 q 56 947 56 907 q 91 1020 56 988 q 171 1052 126 1052 q 282 965 221 1052 q 890 248 590 526 q 890 351 890 270 q 884 802 890 686 q 875 876 882 822 q 868 950 868 923 q 967 1044 868 1044 q 1078 703 1078 1044 q 1076 595 1078 695 q 1072 167 1072 251 z "},"O":{"ha":1109,"x_min":41,"x_max":1066,"o":"m 533 -41 q 191 74 332 -41 q 41 393 41 197 q 185 814 41 624 q 593 1027 347 1027 q 948 919 830 1027 q 1066 593 1066 810 q 933 175 1066 362 q 533 -41 780 -41 m 593 844 q 334 697 442 844 q 233 393 233 560 q 321 210 233 281 q 533 142 405 142 q 782 289 682 142 q 873 593 873 422 q 810 791 873 735 q 593 844 749 844 z "},"P":{"ha":740,"x_min":41,"x_max":709,"o":"m 280 378 q 223 383 269 378 q 219 71 219 288 q 194 9 219 35 q 130 -16 169 -16 q 66 9 92 -16 q 41 71 41 35 l 41 260 q 54 572 41 366 q 68 884 67 781 q 167 1053 68 1061 q 231 1062 190 1059 q 330 1065 271 1065 q 579 979 463 1065 q 709 745 709 883 q 571 469 709 571 q 280 378 449 378 m 314 890 q 276 890 292 890 q 248 888 259 890 q 247 793 248 857 q 234 558 245 718 q 280 553 269 553 q 456 603 386 553 q 530 745 530 656 q 460 847 530 802 q 314 890 393 890 z "},"Q":{"ha":1217,"x_min":25,"x_max":1214,"o":"m 1116 -297 q 787 -47 1067 -297 q 566 -87 675 -87 q 186 78 351 -87 q 25 449 25 241 q 214 863 25 693 q 650 1027 398 1027 q 1057 833 919 1027 q 1173 414 1173 670 q 968 50 1173 202 q 1091 -60 1009 13 l 1168 -121 q 1214 -202 1214 -163 q 1186 -267 1214 -239 q 1116 -297 1158 -297 m 650 840 q 348 728 474 840 q 218 449 218 614 q 326 209 218 317 q 566 100 433 100 q 604 102 584 100 q 505 257 505 197 q 536 325 505 298 q 603 350 565 350 q 682 309 649 350 q 815 174 742 234 q 979 414 979 274 q 901 714 979 602 q 650 840 814 840 z "},"R":{"ha":889,"x_min":62,"x_max":860,"o":"m 764 -8 q 696 20 727 -8 q 245 288 491 213 q 252 68 252 90 q 225 3 252 30 q 157 -24 198 -24 q 90 3 117 -24 q 62 68 62 30 q 64 221 62 119 q 65 373 65 322 l 66 920 q 93 1000 66 964 q 189 1042 127 1046 q 357 1029 353 1029 q 519 983 452 1017 q 808 622 808 838 q 748 465 808 533 q 566 350 687 397 q 836 145 745 250 q 860 85 860 118 q 831 19 860 47 q 764 -8 803 -8 m 329 845 q 250 850 323 846 l 250 490 q 279 490 267 490 q 526 531 446 490 q 589 578 560 549 q 618 622 618 607 q 522 768 618 698 q 329 845 430 835 z "},"S":{"ha":963,"x_min":33,"x_max":934,"o":"m 387 -41 q 116 35 215 -41 q 33 182 33 99 q 58 253 33 225 q 130 281 84 281 q 219 219 191 281 q 394 136 258 136 q 620 186 511 136 q 733 301 733 239 q 663 414 733 387 q 461 437 612 433 q 251 481 344 439 q 127 642 125 537 q 269 885 130 774 q 575 995 408 995 q 739 964 642 995 q 861 877 861 926 q 836 814 861 842 q 766 784 809 784 q 671 798 734 784 q 575 811 608 811 q 409 769 488 810 q 328 677 328 727 q 352 635 328 652 q 427 612 377 618 q 600 602 513 607 q 838 517 750 591 q 934 292 934 436 q 734 27 934 117 q 387 -41 583 -41 z "},"T":{"ha":966,"x_min":7,"x_max":975,"o":"m 879 813 q 714 821 826 813 q 549 827 606 828 q 568 552 552 750 q 582 275 582 377 q 587 207 582 252 q 591 138 591 161 q 570 47 591 87 q 490 -5 542 -5 q 425 18 453 -5 q 393 85 393 45 q 396 114 393 94 q 399 143 399 133 q 395 237 399 174 q 391 332 391 300 q 376 578 391 423 q 357 825 360 757 l 322 825 q 82 846 171 825 q 7 935 7 865 q 31 998 7 970 q 106 1027 60 1031 q 214 1016 130 1026 q 322 1008 281 1008 q 446 1010 363 1008 q 570 1011 528 1011 q 724 1004 621 1011 q 879 997 827 997 q 947 970 920 997 q 975 905 975 944 q 947 840 975 867 q 879 813 920 813 z "},"U":{"ha":1023,"x_min":53,"x_max":958,"o":"m 783 117 q 663 5 733 50 q 488 -49 578 -49 q 231 18 315 -49 q 53 505 53 158 q 56 604 53 538 q 60 703 60 670 q 61 782 60 730 q 62 861 62 835 q 82 964 62 916 q 156 1027 109 1027 q 222 1003 193 1027 q 253 937 253 977 q 252 820 253 898 q 251 702 251 741 q 248 604 251 669 q 244 505 244 538 q 269 310 244 400 q 352 159 297 202 q 488 136 380 137 q 729 441 667 133 q 762 888 762 600 q 784 962 762 926 q 871 1008 814 1008 q 940 975 917 1008 q 958 919 958 949 q 932 501 958 651 q 783 117 895 270 z "},"V":{"ha":937,"x_min":49,"x_max":904,"o":"m 430 285 q 589 695 532 543 q 648 857 618 776 q 734 1006 688 954 q 807 1040 764 1040 q 875 1014 846 1040 q 904 948 904 987 q 886 895 904 921 q 819 767 849 842 q 768 633 817 764 q 587 163 707 476 q 510 -1 555 81 q 425 -54 481 -54 q 327 12 355 -54 q 143 581 244 210 q 87 764 115 673 q 49 941 49 892 q 79 1008 49 981 q 145 1032 107 1032 q 236 964 210 1032 q 263 847 250 905 q 328 627 286 774 q 430 285 380 433 z "},"W":{"ha":1444,"x_min":34,"x_max":1415,"o":"m 1392 870 q 1364 802 1380 842 q 1327 685 1353 762 q 1204 395 1289 585 q 1081 105 1118 201 q 1029 -9 1053 34 q 932 -65 997 -65 q 862 -44 893 -65 q 823 20 825 -20 q 783 148 791 98 q 701 584 753 293 q 606 339 656 448 q 506 83 530 176 q 512 52 512 68 q 475 -17 512 9 q 403 -39 442 -39 q 321 -14 353 -39 q 284 62 286 14 l 263 141 q 190 457 241 247 q 40 915 145 618 q 34 949 34 932 q 65 1013 34 989 q 132 1035 93 1035 q 214 991 184 1035 q 253 905 231 968 q 403 348 319 714 q 513 660 457 480 q 587 868 559 806 q 726 1016 655 1016 q 823 943 792 1016 q 852 818 838 909 q 869 682 856 790 q 955 257 884 565 q 1148 742 1027 425 q 1183 867 1156 761 q 1233 987 1203 943 q 1320 1034 1265 1034 q 1388 1009 1361 1034 q 1415 943 1415 983 q 1392 870 1415 929 z "},"X":{"ha":1005,"x_min":7,"x_max":970,"o":"m 945 878 q 806 707 855 776 q 641 488 755 632 q 783 290 712 389 q 935 98 867 174 q 960 37 960 69 q 931 -29 960 -1 q 863 -57 902 -57 q 687 98 795 -57 q 597 231 658 142 q 511 348 568 270 q 299 116 427 254 q 174 -18 258 70 q 105 -47 144 -47 q 37 -19 66 -47 q 7 46 7 8 q 31 106 7 79 q 155 237 73 149 q 394 501 244 333 q 250 675 326 588 q 172 774 243 682 q 86 865 125 834 q 47 938 47 896 q 75 1003 47 974 q 144 1031 102 1031 q 240 980 180 1031 q 312 904 283 942 q 397 793 340 865 q 522 644 462 720 q 692 869 608 756 q 872 1031 824 1031 q 941 1004 911 1031 q 970 939 970 977 q 945 878 970 907 z "},"Y":{"ha":882,"x_min":-7,"x_max":858,"o":"m 819 837 q 680 529 784 766 q 532 218 593 331 q 418 12 426 23 q 326 -47 378 -47 q 260 -23 289 -47 q 229 44 229 4 q 371 323 229 77 q 221 552 319 399 q 6 892 148 665 q -7 940 -7 915 q 23 1006 -7 979 q 90 1031 52 1031 q 171 986 134 1031 l 222 905 q 338 707 227 897 q 463 515 409 585 q 612 829 515 618 q 673 970 632 876 q 761 1031 699 1031 q 827 1007 798 1031 q 858 941 858 981 q 819 837 858 918 z "},"Z":{"ha":963,"x_min":8,"x_max":954,"o":"m 864 810 q 772 751 827 787 q 501 460 658 667 q 261 136 381 298 l 258 133 q 497 142 308 134 q 734 149 646 149 q 865 142 831 149 q 949 64 947 124 q 918 -7 951 19 q 850 -29 890 -29 q 791 -27 830 -29 q 732 -24 751 -24 q 422 -30 629 -24 q 113 -35 216 -35 q 40 -12 68 -35 q 8 56 8 12 q 51 172 8 105 q 127 275 64 193 q 351 571 239 423 q 600 848 484 742 q 438 840 494 840 l 164 840 q 142 839 157 840 q 121 838 128 838 q 53 861 81 838 q 22 930 22 887 q 159 1023 22 1023 q 299 1018 206 1023 q 439 1012 392 1012 q 595 1015 491 1012 q 751 1017 699 1017 q 954 929 954 1017 q 864 810 954 873 z "},"[":{"ha":523,"x_min":92,"x_max":503,"o":"m 417 -283 q 358 -281 397 -283 q 298 -279 318 -279 q 253 -281 283 -279 q 207 -283 222 -283 q 92 -180 92 -283 q 94 185 92 -58 q 96 550 96 429 q 94 747 96 616 q 92 943 92 878 q 121 1006 92 981 q 188 1031 150 1031 q 258 1029 211 1031 q 328 1027 304 1027 q 366 1029 340 1027 q 404 1031 391 1031 q 469 1006 444 1031 q 494 941 494 981 q 330 848 494 848 q 274 850 321 848 l 274 -102 l 298 -101 q 357 -102 320 -100 q 417 -104 400 -104 q 479 -130 454 -104 q 503 -193 503 -156 q 479 -257 503 -231 q 417 -283 454 -283 z "},"\\":{"ha":764,"x_min":93,"x_max":715,"o":"m 624 -96 q 546 -50 574 -96 q 465 115 520 -8 q 268 597 401 277 q 107 898 224 694 q 93 945 93 922 q 121 1007 93 981 q 186 1034 149 1034 q 260 992 231 1034 q 431 674 344 872 q 569 338 500 506 q 705 34 644 157 q 715 -7 715 12 q 688 -70 715 -43 q 624 -96 661 -96 z "},"]":{"ha":523,"x_min":42,"x_max":454,"o":"m 128 -283 q 188 -281 148 -283 q 247 -279 227 -279 q 293 -281 262 -279 q 338 -283 323 -283 q 453 -180 453 -283 q 451 185 453 -58 q 450 550 450 429 q 452 747 450 616 q 454 943 454 878 q 425 1006 454 981 q 357 1031 395 1031 q 288 1029 334 1031 q 218 1027 241 1027 q 179 1029 205 1027 q 141 1031 154 1031 q 76 1006 101 1031 q 52 941 52 981 q 216 848 52 848 q 271 850 224 848 l 271 -102 l 247 -101 q 188 -102 225 -100 q 128 -104 145 -104 q 66 -130 91 -104 q 42 -193 42 -156 q 66 -257 42 -231 q 128 -283 91 -283 z "},"^":{"ha":848,"x_min":117,"x_max":729,"o":"m 640 774 q 578 798 606 774 q 430 933 530 844 q 205 761 266 761 q 143 784 170 761 q 117 838 117 808 q 146 893 117 869 q 351 1090 182 924 q 413 1116 378 1116 q 513 1076 458 1116 q 596 1004 533 1061 q 704 903 666 939 q 729 851 729 878 q 702 797 729 820 q 640 774 675 774 z "},"_":{"ha":871,"x_min":-51,"x_max":924,"o":"m -51 -234 l -51 -108 l 924 -108 l 924 -234 l -51 -234 z "},"`":{"ha":772,"x_min":74,"x_max":418,"o":"m 328 799 q 257 833 285 799 q 192 916 224 875 q 111 989 155 960 q 74 1049 74 1014 q 99 1103 74 1079 q 161 1126 125 1126 q 319 1021 217 1126 q 418 873 418 919 q 391 821 418 842 q 328 799 363 799 z "},"a":{"ha":772,"x_min":38,"x_max":745,"o":"m 654 -45 q 555 23 623 -45 q 446 -22 493 -7 q 365 -37 398 -37 q 120 50 201 -37 q 38 312 38 138 q 159 592 38 475 q 448 708 279 708 q 597 671 512 708 q 699 569 699 627 q 684 526 699 545 q 673 458 677 499 q 669 362 669 417 q 688 176 669 233 q 719 105 690 170 q 745 39 745 47 q 718 -21 745 3 q 654 -45 690 -45 m 486 420 q 489 470 486 442 q 498 533 492 498 q 474 543 485 540 q 456 546 464 546 q 295 474 364 546 q 226 307 226 401 q 258 170 226 216 q 356 124 291 124 q 436 138 398 124 q 507 179 473 152 q 486 420 486 340 z "},"b":{"ha":824,"x_min":61,"x_max":766,"o":"m 391 -28 q 211 5 296 -28 q 150 -20 186 -20 q 87 4 113 -20 q 61 65 61 28 q 63 115 61 81 q 65 165 65 149 l 65 933 q 87 1020 65 982 q 164 1068 114 1068 q 237 989 237 1068 q 234 961 237 981 q 232 933 232 942 l 232 673 q 328 715 282 701 q 417 729 374 729 q 675 613 576 729 q 766 350 766 505 q 660 83 766 193 q 391 -28 551 -28 m 417 555 q 336 535 382 555 q 232 474 290 515 q 232 186 231 410 q 391 146 325 146 q 533 204 477 146 q 589 350 589 262 q 543 496 589 438 q 417 555 496 555 z "},"c":{"ha":713,"x_min":24,"x_max":665,"o":"m 381 -43 q 131 42 232 -43 q 24 278 24 132 q 120 557 24 413 q 372 721 229 721 q 537 683 443 721 q 652 575 652 636 q 629 516 652 542 q 566 488 604 488 q 495 520 536 488 q 372 551 454 551 q 259 449 320 551 q 201 278 201 350 q 252 166 201 207 q 381 127 301 127 q 492 162 427 127 q 576 197 558 197 q 638 170 612 197 q 665 110 665 144 q 549 4 665 57 q 381 -43 446 -43 z "},"d":{"ha":816,"x_min":33,"x_max":764,"o":"m 566 682 q 587 1001 574 913 q 675 1081 598 1081 q 739 1055 715 1081 q 764 992 764 1029 q 748 699 764 894 q 733 406 733 505 q 749 85 733 166 q 751 65 751 74 q 724 4 751 28 q 661 -20 696 -20 q 586 24 610 -20 q 490 -17 540 -3 q 388 -31 441 -31 q 136 66 236 -31 q 33 318 33 165 q 136 613 33 500 q 406 725 239 725 q 496 714 456 725 q 566 682 536 703 m 552 468 q 494 532 530 511 q 408 553 458 553 q 258 495 308 553 q 208 321 208 437 q 262 195 208 248 q 388 143 316 143 q 467 155 440 143 q 530 199 486 163 q 552 220 541 208 q 552 468 551 252 z "},"e":{"ha":777,"x_min":32,"x_max":726,"o":"m 411 -31 q 146 46 249 -31 q 32 287 32 132 q 122 577 32 458 q 393 709 222 709 q 589 671 511 709 q 691 515 691 621 q 608 382 691 440 q 455 305 570 356 l 227 204 q 305 151 259 169 q 411 134 351 134 q 565 171 502 134 q 655 204 621 204 q 726 136 726 204 q 612 9 726 58 q 411 -31 517 -31 m 393 545 q 285 503 330 545 q 213 376 240 460 q 366 442 290 410 q 511 519 457 484 q 393 545 466 545 z "},"f":{"ha":706,"x_min":24,"x_max":665,"o":"m 391 696 q 522 705 482 705 q 648 618 648 705 q 513 532 648 528 q 384 526 471 534 q 382 343 381 454 q 385 161 385 183 q 370 -36 385 37 q 280 -109 354 -109 q 214 -84 242 -109 q 186 -22 186 -60 q 187 -5 186 -14 q 203 177 203 92 l 203 516 q 159 511 191 515 q 119 507 133 507 q 51 531 78 507 q 24 596 24 555 q 90 679 24 659 q 209 690 120 688 q 218 767 210 703 q 300 992 237 918 q 541 1084 378 1084 q 665 996 665 1084 q 550 907 665 907 q 431 850 468 907 q 393 716 403 807 l 391 696 z "},"g":{"ha":737,"x_min":12,"x_max":712,"o":"m 698 404 q 664 68 669 245 q 591 -250 657 -151 q 276 -382 502 -382 q 12 -278 12 -382 q 36 -218 12 -241 q 98 -195 60 -195 q 186 -206 129 -195 q 287 -218 243 -218 q 436 -156 388 -218 q 490 36 482 -96 q 412 -17 456 1 q 317 -35 369 -35 q 98 53 182 -35 q 14 278 14 141 q 126 576 14 463 q 441 694 243 694 q 551 679 505 694 q 626 631 597 663 q 712 530 712 621 q 698 404 712 484 m 435 540 q 256 465 320 540 q 199 287 199 396 q 230 165 199 206 q 321 125 260 125 q 433 189 377 125 q 494 310 486 250 q 524 513 507 375 q 478 533 500 526 q 435 540 456 540 z "},"h":{"ha":802,"x_min":71,"x_max":758,"o":"m 271 621 q 377 693 320 669 q 498 718 433 718 q 665 652 614 718 q 711 503 703 604 q 718 335 714 419 q 732 202 729 226 q 755 71 741 127 q 758 45 758 56 q 729 -17 758 7 q 662 -42 701 -42 q 573 26 593 -42 q 543 180 557 81 q 531 338 531 276 q 533 389 531 355 q 534 440 534 423 q 533 498 534 490 q 498 536 527 536 q 361 467 422 536 q 276 335 330 432 q 252 39 276 90 q 168 -16 226 -16 q 101 9 130 -16 q 71 72 71 35 q 79 108 71 85 q 87 291 83 123 q 88 745 83 427 l 90 767 q 94 874 94 847 q 87 936 94 895 q 81 998 81 977 q 109 1062 81 1037 q 176 1086 136 1086 q 266 1015 243 1086 q 279 890 279 974 q 275 752 279 822 q 271 621 271 686 z "},"i":{"ha":389,"x_min":94,"x_max":330,"o":"m 224 815 q 149 844 180 815 q 117 916 117 873 q 149 987 117 958 q 224 1016 180 1016 q 299 987 267 1016 q 330 916 330 958 q 299 844 330 873 q 224 815 267 815 m 281 318 q 284 194 281 279 q 286 70 286 109 q 260 5 286 31 q 193 -20 233 -20 q 125 5 152 -20 q 99 70 99 31 q 97 194 99 109 q 94 318 94 279 q 101 469 94 378 q 108 621 108 560 q 134 685 108 660 q 201 711 161 711 q 269 685 242 711 q 295 621 295 660 q 288 469 295 560 q 281 318 281 378 z "},"j":{"ha":560,"x_min":-39,"x_max":472,"o":"m 317 812 q 242 841 273 812 q 210 913 210 870 q 242 985 210 956 q 317 1015 273 1015 q 392 985 360 1015 q 424 913 424 956 q 392 841 424 870 q 317 812 360 812 m 284 -127 q 261 249 284 -56 q 238 610 238 553 q 262 684 238 651 q 334 720 290 720 q 396 699 365 720 q 431 646 430 676 q 454 270 439 517 q 472 -134 472 -59 q 410 -314 472 -232 q 240 -405 342 -405 q -29 -173 76 -405 q -39 -131 -39 -151 q -9 -66 -39 -94 q 58 -41 20 -41 q 134 -88 101 -41 q 184 -176 159 -132 q 240 -222 211 -222 q 284 -127 275 -222 z "},"k":{"ha":750,"x_min":64,"x_max":737,"o":"m 640 -28 q 558 24 586 -28 q 458 170 525 85 q 349 309 355 300 q 260 248 295 269 q 253 67 253 153 q 227 2 253 28 q 159 -24 200 -24 q 64 90 64 -24 q 72 251 64 144 q 79 411 79 357 q 82 636 79 509 q 85 859 85 762 q 82 928 85 888 q 79 997 79 968 q 106 1062 79 1036 q 173 1087 132 1087 q 240 1062 214 1087 q 267 997 267 1036 q 270 926 267 967 q 273 856 273 886 q 269 665 273 775 q 266 476 265 559 q 547 735 358 547 q 614 765 576 765 q 682 737 652 765 q 711 673 711 709 q 684 612 711 642 q 494 425 604 523 l 635 243 q 737 62 737 107 q 707 -2 737 24 q 640 -28 677 -28 z "},"l":{"ha":380,"x_min":91,"x_max":278,"o":"m 278 100 q 184 -29 278 -29 q 117 -3 144 -29 q 91 63 91 22 l 91 1001 q 119 1065 91 1040 q 186 1088 146 1088 q 252 1064 227 1088 q 278 1001 278 1040 l 278 100 z "},"m":{"ha":1079,"x_min":57,"x_max":1053,"o":"m 245 600 q 439 719 347 719 q 592 640 543 719 q 684 694 633 676 q 792 713 734 713 q 972 581 925 713 q 1002 397 982 553 q 1050 31 1021 287 q 1024 -33 1053 -8 q 956 -58 995 -58 q 864 19 878 -58 q 839 216 852 89 q 817 414 825 356 q 770 536 798 536 q 699 505 754 536 q 617 451 643 473 q 635 229 617 374 q 654 6 654 80 q 628 -58 654 -33 q 561 -84 602 -84 q 494 -58 520 -84 q 467 6 467 -33 q 451 234 467 83 q 434 461 434 384 q 427 530 434 505 q 269 379 348 485 q 257 365 265 374 q 254 150 254 228 q 253 99 254 131 q 252 51 252 66 q 222 -7 252 14 q 155 -26 195 -26 q 77 24 97 -26 q 62 132 62 58 l 62 384 q 60 483 62 418 q 57 583 57 549 q 79 692 57 643 q 153 753 105 753 q 221 723 191 753 q 251 659 251 694 q 245 600 251 673 z "},"n":{"ha":727,"x_min":46,"x_max":698,"o":"m 604 -48 q 511 34 520 -48 q 492 174 501 104 q 481 315 481 249 q 484 375 481 332 q 486 435 486 418 q 488 459 486 440 q 489 491 489 479 q 460 547 489 547 q 337 474 397 547 q 243 290 277 401 q 237 230 242 267 q 233 170 233 199 q 238 113 233 151 q 242 56 242 75 q 215 -8 242 17 q 148 -34 189 -34 q 81 -8 107 -34 q 54 56 54 17 q 50 113 54 75 q 46 170 46 151 q 56 351 46 235 q 65 532 65 467 q 63 593 65 553 q 60 653 60 633 q 88 716 60 691 q 155 741 115 741 q 250 634 244 741 l 251 627 q 460 726 350 726 q 637 619 588 726 q 669 404 669 547 l 669 356 q 669 312 669 325 q 683 176 669 259 q 698 40 698 92 q 671 -23 698 2 q 604 -48 644 -48 z "},"o":{"ha":730,"x_min":24,"x_max":686,"o":"m 349 -40 q 133 46 223 -40 q 29 298 34 140 q 111 565 24 448 q 398 703 214 703 q 614 595 534 703 q 686 353 686 497 q 602 84 686 195 q 349 -40 507 -40 m 389 524 q 258 448 306 525 q 217 298 217 384 q 263 173 217 216 q 349 138 300 138 q 451 178 408 138 q 504 305 500 225 q 389 524 513 524 z "},"p":{"ha":743,"x_min":54,"x_max":711,"o":"m 382 -40 q 260 -26 324 -40 l 259 -303 q 233 -368 259 -342 q 165 -394 206 -394 q 98 -368 125 -394 q 72 -303 72 -342 q 73 -50 72 -271 q 73 218 75 114 q 64 470 71 364 q 54 604 54 616 q 79 700 54 660 q 157 745 108 745 q 221 720 195 745 q 247 658 247 694 l 246 651 q 337 689 292 677 q 429 702 383 702 q 657 570 585 702 q 711 311 711 470 q 626 65 711 163 q 382 -40 535 -40 m 429 521 q 342 501 387 521 q 254 441 298 481 q 262 161 262 301 q 382 141 322 141 q 490 191 452 141 q 524 311 524 235 q 515 438 524 403 q 429 521 496 521 z "},"q":{"ha":722,"x_min":14,"x_max":667,"o":"m 644 210 q 612 -38 628 86 q 595 -286 595 -175 q 569 -351 595 -326 q 502 -377 543 -377 q 408 -264 408 -377 q 410 -229 408 -247 q 429 -34 416 -180 q 378 -40 401 -40 q 121 39 221 -40 q 14 275 14 124 q 132 596 14 474 q 465 721 256 722 q 524 703 501 721 q 572 718 548 718 q 639 689 611 718 q 667 624 667 661 q 644 210 667 431 m 462 556 q 421 558 428 559 q 251 450 309 539 q 203 273 203 375 q 244 166 203 207 q 373 123 290 121 q 443 175 420 125 q 475 411 473 241 q 484 555 475 422 q 462 556 475 555 z "},"r":{"ha":667,"x_min":56,"x_max":638,"o":"m 637 489 q 543 385 631 385 q 458 473 458 385 l 454 542 q 236 385 302 517 l 237 44 q 210 -20 237 5 q 143 -45 184 -45 q 78 -18 101 -45 q 56 44 56 6 l 56 488 q 58 551 56 509 q 59 614 59 593 q 82 677 59 652 q 146 703 104 703 q 236 625 222 703 q 503 715 356 715 q 638 534 638 715 q 637 489 638 500 z "},"s":{"ha":676,"x_min":35,"x_max":625,"o":"m 547 496 q 466 553 479 496 q 410 557 439 557 q 247 513 247 557 q 345 441 247 486 q 527 345 479 380 q 625 184 625 274 q 517 7 625 68 q 302 -41 429 -41 q 137 -13 212 -41 q 35 99 35 25 q 116 167 35 167 q 206 147 147 167 q 297 127 265 127 q 435 183 435 127 q 340 260 435 218 q 161 349 200 321 q 65 512 65 416 q 210 696 65 648 q 467 724 294 724 q 568 706 535 724 q 612 618 612 682 q 547 496 612 496 z "},"t":{"ha":654,"x_min":17,"x_max":642,"o":"m 548 546 q 514 547 534 546 q 481 548 495 548 q 416 543 453 548 q 429 184 429 269 q 429 152 429 176 q 430 113 430 127 q 332 -43 430 -43 q 267 -20 294 -43 q 237 41 237 4 q 239 114 237 65 q 241 187 241 163 q 229 538 241 269 q 102 550 187 541 q 17 637 17 559 q 43 702 17 675 q 109 728 68 728 q 224 720 134 728 q 221 792 224 742 q 218 859 218 836 q 246 922 218 897 q 313 947 274 947 q 414 779 414 947 l 412 723 q 481 729 454 729 q 587 719 559 729 q 642 636 642 700 q 615 572 642 597 q 548 546 589 546 z "},"u":{"ha":722,"x_min":36,"x_max":678,"o":"m 663 392 q 664 255 663 347 q 665 118 665 163 q 667 76 665 104 q 669 33 669 47 q 642 -30 669 -5 q 574 -54 614 -54 q 492 -3 518 -54 q 313 -35 406 -35 q 151 5 216 -35 q 62 142 77 52 q 36 445 36 311 q 56 646 36 533 q 148 723 70 723 q 215 698 187 723 q 243 635 243 673 q 233 542 243 606 q 223 445 223 478 q 230 278 223 349 q 249 159 236 206 q 282 148 266 152 q 313 144 298 144 q 478 165 388 144 q 477 284 478 218 q 476 398 476 363 q 489 638 476 537 q 581 719 499 719 q 650 694 621 719 q 676 631 678 669 q 663 392 663 372 z "},"v":{"ha":675,"x_min":15,"x_max":685,"o":"m 433 50 q 406 -5 430 16 q 345 -27 381 -27 q 248 43 277 -27 q 24 590 175 227 q 15 629 15 610 q 44 691 15 665 q 112 716 74 716 q 195 663 170 716 q 346 279 234 581 q 445 512 382 355 q 504 658 464 564 q 588 712 532 712 q 655 687 626 712 q 685 625 685 662 q 575 356 685 600 q 433 50 486 157 z "},"w":{"ha":950,"x_min":24,"x_max":940,"o":"m 937 597 q 793 115 865 332 q 727 -11 773 54 q 640 -55 694 -56 q 506 110 555 -54 q 463 342 488 172 q 445 302 448 313 q 342 41 410 218 q 311 -4 332 13 q 227 -52 283 -50 q 159 5 195 -53 q 99 157 122 64 q 34 524 78 241 q 24 619 24 585 q 53 681 24 656 q 120 706 81 706 q 210 633 193 706 q 225 540 219 595 q 235 446 233 460 q 262 273 244 393 q 378 615 313 410 q 482 703 406 703 q 581 605 557 703 q 617 425 598 536 q 651 234 645 264 q 758 646 657 255 q 842 705 772 705 q 910 680 881 705 q 940 617 940 654 q 937 597 940 610 z "},"x":{"ha":820,"x_min":14,"x_max":808,"o":"m 737 550 q 637 463 699 517 l 534 366 l 741 113 q 763 58 763 85 q 734 -3 763 23 q 669 -30 706 -30 q 602 3 631 -30 q 400 242 541 69 q 230 82 345 187 q 174 31 193 52 q 107 0 144 0 q 42 26 71 0 q 14 88 14 53 q 70 178 14 127 q 159 255 115 217 q 288 382 201 296 q 212 488 250 435 q 123 585 165 550 q 88 650 88 614 q 115 713 88 686 q 179 741 142 741 q 312 644 227 741 l 420 504 q 536 602 479 553 q 640 708 608 664 q 713 749 669 749 q 779 724 750 749 q 808 663 808 698 q 737 550 808 618 z "},"y":{"ha":768,"x_min":4,"x_max":755,"o":"m 743 573 q 509 90 669 419 q 377 -204 422 -87 q 332 -329 363 -246 q 245 -393 308 -393 q 178 -368 207 -393 q 149 -304 149 -342 q 292 69 149 -241 q 56 503 218 216 q 22 555 39 528 q 4 612 4 586 q 33 676 4 648 q 100 704 62 704 q 170 671 145 704 q 395 285 267 543 q 483 479 467 446 q 577 656 531 580 q 657 705 606 705 q 725 680 695 705 q 755 616 755 654 q 743 573 755 597 z "},"z":{"ha":747,"x_min":33,"x_max":710,"o":"m 652 518 q 624 486 652 518 q 513 342 595 453 q 372 154 400 189 q 441 155 414 155 q 520 145 468 155 q 598 136 572 136 q 666 110 639 136 q 692 46 692 85 q 666 -18 692 7 q 598 -43 640 -43 q 519 -33 571 -43 q 441 -24 467 -24 q 157 -49 289 -24 q 127 -52 139 -52 q 63 -32 90 -52 q 33 27 33 -9 q 76 106 33 71 q 429 525 245 250 q 349 523 387 523 q 138 538 245 523 q 55 626 55 549 q 81 690 55 663 q 146 716 106 716 q 247 709 180 716 q 349 702 315 702 q 487 708 395 702 q 625 713 579 713 q 710 644 710 713 q 652 518 710 583 z "},"{":{"ha":509,"x_min":-23,"x_max":500,"o":"m 416 930 q 359 926 397 928 q 288 813 288 918 q 293 680 288 785 q 297 547 297 574 q 274 462 297 509 q 215 384 250 413 q 286 231 286 290 q 281 166 286 209 q 275 101 275 123 q 292 -9 275 49 q 355 -86 315 -86 q 445 -96 420 -86 q 488 -172 488 -115 q 355 -260 488 -260 q 154 -127 229 -260 q 94 101 94 -20 q 100 154 94 119 q 105 208 105 190 q 41 292 105 249 q -23 378 -23 335 q 28 469 -23 418 q 117 534 71 511 q 114 664 117 563 q 111 794 111 771 q 262 1081 111 1018 q 363 1102 313 1102 q 447 1082 407 1102 q 500 1004 500 1054 q 416 930 500 941 z "},"|":{"ha":585,"x_min":211,"x_max":387,"o":"m 301 -245 q 211 -77 212 -245 q 212 -20 211 -58 q 212 33 212 18 l 212 1079 q 238 1139 212 1116 q 302 1163 264 1163 q 363 1139 340 1163 q 387 1079 387 1115 l 387 -144 q 369 -208 387 -180 q 301 -245 345 -245 z "},"}":{"ha":509,"x_min":-23,"x_max":500,"o":"m 471 319 q 408 273 439 296 q 371 208 371 243 q 377 154 371 190 q 382 101 382 119 q 323 -127 382 -20 q 122 -260 248 -260 q -11 -172 -11 -260 q 32 -96 -11 -115 q 122 -86 57 -86 q 184 -9 161 -86 q 201 101 201 49 q 196 166 201 123 q 191 231 191 209 q 262 384 191 290 q 203 462 227 413 q 180 547 180 509 q 184 680 180 574 q 189 813 189 785 q 117 926 189 918 q 28 939 43 933 q -23 1004 -23 955 q 30 1082 -23 1054 q 114 1102 70 1102 q 214 1081 164 1102 q 366 794 366 1018 q 363 665 366 771 q 360 535 359 564 q 449 469 406 513 q 500 378 500 418 q 471 319 500 347 z "},"~":{"ha":848,"x_min":31,"x_max":792,"o":"m 580 317 q 428 363 494 317 q 322 467 393 388 l 307 484 q 197 386 264 484 q 121 345 170 345 q 60 366 86 345 q 31 418 31 387 q 41 452 31 435 q 142 574 79 525 q 307 633 220 633 q 426 592 374 633 q 502 514 429 589 q 584 469 544 471 q 609 522 589 468 q 703 610 642 610 q 792 524 792 610 q 733 388 792 452 q 580 317 669 317 z "},"Ä":{"ha":1016,"x_min":89,"x_max":971,"o":"m 875 -20 q 767 106 821 -18 q 705 290 731 186 q 541 275 655 283 q 377 258 434 268 q 269 33 346 183 q 186 -16 239 -16 q 119 10 149 -16 q 89 75 89 35 q 188 309 89 109 q 180 349 178 330 q 245 399 182 381 q 460 745 342 566 q 669 1002 629 1002 q 768 912 743 1002 q 811 694 782 840 q 912 248 852 499 q 947 158 917 229 q 971 71 971 100 q 942 5 971 31 q 875 -20 912 -22 m 622 675 q 476 428 569 585 q 571 439 507 435 q 667 446 647 444 q 622 675 650 534 m 827 1095 q 751 1116 787 1095 q 709 1181 709 1142 q 850 1276 709 1276 q 923 1252 887 1276 q 964 1185 964 1224 q 918 1115 964 1140 q 827 1095 880 1095 m 534 1095 q 408 1191 408 1095 q 450 1252 408 1223 q 527 1278 490 1278 q 657 1181 658 1278 q 610 1119 657 1147 q 534 1095 568 1095 z "},"Å":{"ha":1016,"x_min":89,"x_max":971,"o":"m 875 -20 q 767 106 821 -18 q 705 290 731 186 q 541 275 655 283 q 377 258 434 268 q 269 33 346 183 q 186 -16 239 -16 q 119 10 149 -16 q 89 75 89 35 q 188 309 89 109 q 180 349 178 330 q 245 399 182 381 q 460 745 342 566 q 669 1002 629 1002 q 768 912 743 1002 q 811 694 782 840 q 912 248 852 499 q 947 158 917 229 q 971 71 971 100 q 942 5 971 31 q 875 -20 912 -22 m 622 675 q 476 428 569 585 q 571 439 507 435 q 667 446 647 444 q 622 675 650 534 m 672 969 q 500 1021 570 968 q 430 1149 430 1073 q 510 1304 430 1247 q 703 1357 585 1357 q 865 1310 798 1357 q 941 1173 941 1258 q 855 1014 941 1067 q 672 969 785 970 m 703 1221 q 586 1150 584 1221 q 621 1118 587 1133 q 694 1103 655 1103 q 763 1121 740 1103 q 785 1173 785 1139 q 762 1207 785 1194 q 703 1221 739 1221 z "},"Ç":{"ha":859,"x_min":34,"x_max":843,"o":"m 749 720 q 686 743 710 720 q 655 791 671 758 q 634 823 642 819 q 578 826 626 826 q 380 692 492 826 q 224 340 224 504 q 272 214 224 268 q 392 159 321 159 q 526 195 457 159 q 632 262 551 208 q 711 298 685 298 q 779 269 751 298 q 807 203 807 240 q 709 88 807 155 q 543 0 631 34 q 564 -77 564 -39 q 461 -243 564 -197 q 250 -276 389 -276 q 135 -199 135 -276 q 157 -146 135 -168 q 212 -124 178 -124 q 250 -125 224 -124 q 288 -127 275 -127 q 364 -123 348 -127 q 408 -77 408 -114 q 338 -26 408 -50 q 241 7 290 -9 q 86 149 138 65 q 34 340 34 232 q 233 809 34 570 q 578 1012 401 1012 q 630 1010 606 1012 q 674 1003 654 1008 q 746 1034 705 1034 q 833 951 812 1034 q 843 819 843 910 q 819 751 843 780 q 749 720 793 720 z "},"É":{"ha":867,"x_min":64,"x_max":846,"o":"m 752 869 q 724 873 739 869 q 510 903 614 903 q 401 895 459 903 q 277 871 342 887 q 271 603 277 781 q 536 628 309 606 q 700 641 665 641 q 768 615 740 641 q 797 548 797 590 q 711 456 797 467 q 549 443 656 452 q 258 416 452 432 q 254 277 254 330 q 269 126 254 144 q 355 117 277 117 q 481 119 397 117 q 608 121 566 121 q 648 125 622 121 q 688 130 675 130 q 755 107 727 130 q 787 37 787 82 q 707 -54 787 -39 q 426 -67 640 -67 q 138 -7 205 -67 q 64 277 64 58 q 77 550 64 368 q 90 823 90 732 q 83 893 90 846 q 77 963 77 939 q 172 1066 77 1066 q 227 1049 201 1066 q 376 1079 305 1069 q 510 1088 447 1088 q 783 1049 681 1088 q 846 963 846 1025 q 821 901 846 928 q 752 869 794 869 m 681 1384 q 663 1371 681 1384 q 592 1301 645 1359 q 504 1216 536 1240 q 446 1196 477 1196 q 383 1219 410 1196 q 357 1273 357 1242 q 385 1328 357 1298 q 435 1374 410 1351 q 520 1465 507 1453 q 629 1520 582 1520 q 691 1497 665 1520 q 718 1443 718 1473 q 681 1384 718 1409 z "},"Ñ":{"ha":1129,"x_min":56,"x_max":1078,"o":"m 1072 167 q 1061 60 1072 133 q 962 -28 1047 -28 q 854 26 914 -28 q 265 686 593 261 q 261 469 261 509 q 263 308 261 416 q 266 146 266 200 q 168 -54 266 -54 q 89 -23 119 -54 q 62 43 62 4 q 67 125 62 70 q 71 207 71 180 q 74 327 71 247 q 77 447 77 407 q 75 576 77 490 q 73 705 73 662 q 64 826 73 745 q 56 947 56 907 q 91 1020 56 988 q 171 1052 126 1052 q 282 965 221 1052 q 890 248 590 526 q 890 351 890 270 q 884 802 890 686 q 875 876 882 822 q 868 950 868 923 q 967 1044 868 1044 q 1078 703 1078 1044 q 1076 595 1078 695 q 1072 167 1072 251 m 823 1160 q 707 1121 777 1121 q 579 1143 627 1121 q 491 1215 534 1163 q 444 1244 467 1244 q 378 1195 407 1244 q 304 1146 350 1146 q 250 1163 273 1146 q 224 1208 224 1181 q 228 1227 224 1217 q 305 1331 249 1291 q 444 1373 365 1373 q 553 1347 512 1373 q 625 1279 578 1332 q 686 1249 652 1249 q 728 1268 713 1249 q 751 1307 739 1288 q 764 1339 754 1318 q 829 1368 780 1368 q 884 1350 862 1368 q 907 1304 907 1331 q 875 1227 907 1279 q 823 1160 845 1179 z "},"Ö":{"ha":1109,"x_min":41,"x_max":1066,"o":"m 533 -41 q 191 74 332 -41 q 41 393 41 197 q 185 814 41 624 q 593 1027 347 1027 q 948 919 830 1027 q 1066 593 1066 810 q 933 175 1066 362 q 533 -41 780 -41 m 593 844 q 334 697 442 844 q 233 393 233 560 q 321 210 233 281 q 533 142 405 142 q 782 289 682 142 q 873 593 873 422 q 810 791 873 735 q 593 844 749 844 m 786 1112 q 711 1134 746 1112 q 669 1199 669 1160 q 810 1294 669 1294 q 882 1270 846 1294 q 924 1203 924 1242 q 878 1133 924 1158 q 786 1112 840 1112 m 494 1112 q 368 1208 368 1112 q 410 1270 368 1241 q 486 1296 449 1296 q 616 1198 617 1296 q 569 1137 616 1164 q 494 1112 528 1112 z "},"Ü":{"ha":1023,"x_min":53,"x_max":958,"o":"m 783 117 q 663 5 733 50 q 488 -49 578 -49 q 231 18 315 -49 q 53 505 53 158 q 56 604 53 538 q 60 703 60 670 q 61 782 60 730 q 62 861 62 835 q 82 964 62 916 q 156 1027 109 1027 q 222 1003 193 1027 q 253 937 253 977 q 252 820 253 898 q 251 702 251 741 q 248 604 251 669 q 244 505 244 538 q 269 310 244 400 q 352 159 297 202 q 488 136 380 137 q 729 441 667 133 q 762 888 762 600 q 784 962 762 926 q 871 1008 814 1008 q 940 975 917 1008 q 958 919 958 949 q 932 501 958 651 q 783 117 895 270 m 671 1097 q 596 1118 631 1097 q 554 1183 554 1144 q 695 1278 554 1278 q 768 1254 732 1278 q 809 1187 809 1226 q 763 1117 809 1142 q 671 1097 725 1097 m 379 1097 q 253 1193 253 1097 q 295 1254 253 1225 q 372 1280 334 1280 q 502 1183 503 1280 q 454 1121 502 1149 q 379 1097 413 1097 z "},"á":{"ha":772,"x_min":38,"x_max":745,"o":"m 654 -45 q 555 23 623 -45 q 446 -22 493 -7 q 365 -37 398 -37 q 120 50 201 -37 q 38 312 38 138 q 159 592 38 475 q 448 708 279 708 q 597 671 512 708 q 699 569 699 627 q 684 526 699 545 q 673 458 677 499 q 669 362 669 417 q 688 176 669 233 q 719 105 690 170 q 745 39 745 47 q 718 -21 745 3 q 654 -45 690 -45 m 486 420 q 489 470 486 442 q 498 533 492 498 q 474 543 485 540 q 456 546 464 546 q 295 474 364 546 q 226 307 226 401 q 258 170 226 216 q 356 124 291 124 q 436 138 398 124 q 507 179 473 152 q 486 420 486 340 m 621 992 q 603 980 621 992 q 532 909 585 968 q 444 825 476 848 q 385 805 417 805 q 323 828 349 805 q 296 882 296 851 q 325 937 296 907 q 374 983 350 960 q 460 1074 447 1062 q 569 1129 522 1129 q 631 1105 605 1129 q 657 1052 657 1082 q 621 992 657 1017 z "},"à":{"ha":772,"x_min":38,"x_max":745,"o":"m 654 -45 q 555 23 623 -45 q 446 -22 493 -7 q 365 -37 398 -37 q 120 50 201 -37 q 38 312 38 138 q 159 592 38 475 q 448 708 279 708 q 597 671 512 708 q 699 569 699 627 q 684 526 699 545 q 673 458 677 499 q 669 362 669 417 q 688 176 669 233 q 719 105 690 170 q 745 39 745 47 q 718 -21 745 3 q 654 -45 690 -45 m 486 420 q 489 470 486 442 q 498 533 492 498 q 474 543 485 540 q 456 546 464 546 q 295 474 364 546 q 226 307 226 401 q 258 170 226 216 q 356 124 291 124 q 436 138 398 124 q 507 179 473 152 q 486 420 486 340 m 434 794 q 363 828 391 794 q 298 911 330 870 q 217 985 261 956 q 180 1044 180 1009 q 205 1098 180 1074 q 267 1122 231 1122 q 425 1017 323 1122 q 524 869 524 914 q 497 816 524 838 q 434 794 469 794 z "},"â":{"ha":772,"x_min":38,"x_max":745,"o":"m 654 -45 q 555 23 623 -45 q 446 -22 493 -7 q 365 -37 398 -37 q 120 50 201 -37 q 38 312 38 138 q 159 592 38 475 q 448 708 279 708 q 597 671 512 708 q 699 569 699 627 q 684 526 699 545 q 673 458 677 499 q 669 362 669 417 q 688 176 669 233 q 719 105 690 170 q 745 39 745 47 q 718 -21 745 3 q 654 -45 690 -45 m 486 420 q 489 470 486 442 q 498 533 492 498 q 474 543 485 540 q 456 546 464 546 q 295 474 364 546 q 226 307 226 401 q 258 170 226 216 q 356 124 291 124 q 436 138 398 124 q 507 179 473 152 q 486 420 486 340 m 625 810 q 563 833 591 810 q 415 969 515 880 q 191 796 250 796 q 129 820 155 796 q 102 874 102 843 q 132 929 102 905 q 336 1126 168 960 q 398 1152 363 1152 q 498 1111 443 1152 q 581 1039 518 1097 q 690 939 618 1006 q 714 887 714 915 q 687 833 714 856 q 625 810 661 810 z "},"ä":{"ha":772,"x_min":38,"x_max":745,"o":"m 654 -45 q 555 23 623 -45 q 446 -22 493 -7 q 365 -37 398 -37 q 120 50 201 -37 q 38 312 38 138 q 159 592 38 475 q 448 708 279 708 q 597 671 512 708 q 699 569 699 627 q 684 526 699 545 q 673 458 677 499 q 669 362 669 417 q 688 176 669 233 q 719 105 690 170 q 745 39 745 47 q 718 -21 745 3 q 654 -45 690 -45 m 486 420 q 489 470 486 442 q 498 533 492 498 q 474 543 485 540 q 456 546 464 546 q 295 474 364 546 q 226 307 226 401 q 258 170 226 216 q 356 124 291 124 q 436 138 398 124 q 507 179 473 152 q 486 420 486 340 m 569 789 q 494 811 529 789 q 452 876 452 837 q 593 971 452 971 q 665 947 629 971 q 707 880 707 919 q 661 810 707 835 q 569 789 623 789 m 277 789 q 151 886 151 789 q 193 947 151 918 q 269 973 232 973 q 399 876 400 973 q 352 814 399 842 q 277 789 311 789 z "},"ã":{"ha":772,"x_min":38,"x_max":745,"o":"m 654 -45 q 555 23 623 -45 q 446 -22 493 -7 q 365 -37 398 -37 q 120 50 201 -37 q 38 312 38 138 q 159 592 38 475 q 448 708 279 708 q 597 671 512 708 q 699 569 699 627 q 684 526 699 545 q 673 458 677 499 q 669 362 669 417 q 688 176 669 233 q 719 105 690 170 q 745 39 745 47 q 718 -21 745 3 q 654 -45 690 -45 m 486 420 q 489 470 486 442 q 498 533 492 498 q 474 543 485 540 q 456 546 464 546 q 295 474 364 546 q 226 307 226 401 q 258 170 226 216 q 356 124 291 124 q 436 138 398 124 q 507 179 473 152 q 486 420 486 340 m 656 827 q 541 789 611 789 q 413 810 461 789 q 325 883 368 831 q 278 912 300 912 q 212 863 241 912 q 138 814 184 814 q 83 831 106 814 q 58 876 58 849 q 62 895 58 885 q 139 998 83 958 q 278 1040 199 1040 q 387 1015 346 1040 q 459 947 412 1000 q 519 917 486 917 q 562 936 547 917 q 585 975 573 956 q 597 1006 588 985 q 663 1036 614 1036 q 718 1017 696 1036 q 741 972 741 999 q 709 895 741 947 q 656 827 679 846 z "},"å":{"ha":772,"x_min":38,"x_max":745,"o":"m 654 -45 q 555 23 623 -45 q 446 -22 493 -7 q 365 -37 398 -37 q 120 50 201 -37 q 38 312 38 138 q 159 592 38 475 q 448 708 279 708 q 597 671 512 708 q 699 569 699 627 q 684 526 699 545 q 673 458 677 499 q 669 362 669 417 q 688 176 669 233 q 719 105 690 170 q 745 39 745 47 q 718 -21 745 3 q 654 -45 690 -45 m 486 420 q 489 470 486 442 q 498 533 492 498 q 474 543 485 540 q 456 546 464 546 q 295 474 364 546 q 226 307 226 401 q 258 170 226 216 q 356 124 291 124 q 436 138 398 124 q 507 179 473 152 q 486 420 486 340 m 394 804 q 222 856 292 803 q 152 985 152 908 q 232 1139 152 1082 q 425 1192 307 1192 q 587 1145 519 1192 q 663 1008 663 1093 q 577 849 663 902 q 394 804 507 806 m 425 1056 q 308 985 306 1056 q 343 953 309 968 q 416 939 377 939 q 485 956 462 939 q 507 1008 507 974 q 484 1043 507 1029 q 425 1056 460 1056 z "},"ç":{"ha":713,"x_min":44,"x_max":684,"o":"m 525 -29 q 543 -72 537 -50 q 549 -116 549 -94 q 499 -252 549 -203 q 358 -302 450 -302 q 231 -273 293 -302 q 157 -181 157 -237 q 230 -121 157 -121 q 291 -137 256 -121 q 350 -153 326 -153 q 379 -143 370 -152 q 389 -119 389 -135 q 369 -79 389 -98 q 306 -45 348 -61 q 119 62 190 -20 q 44 271 44 148 q 140 554 44 408 q 392 721 248 721 q 557 682 463 721 q 671 573 671 635 q 648 513 671 539 q 585 484 623 484 q 515 516 556 484 q 392 549 474 549 q 279 444 340 549 q 220 271 220 344 q 272 157 220 198 q 401 117 321 117 q 512 153 446 117 q 595 188 578 188 q 658 161 632 188 q 684 100 684 134 q 635 27 684 64 q 525 -29 591 -6 z "},"é":{"ha":777,"x_min":32,"x_max":726,"o":"m 411 -31 q 146 46 249 -31 q 32 287 32 132 q 122 577 32 458 q 393 709 222 709 q 589 671 511 709 q 691 515 691 621 q 608 382 691 440 q 455 305 570 356 l 227 204 q 305 151 259 169 q 411 134 351 134 q 565 171 502 134 q 655 204 621 204 q 726 136 726 204 q 612 9 726 58 q 411 -31 517 -31 m 393 545 q 285 503 330 545 q 213 376 240 460 q 366 442 290 410 q 511 519 457 484 q 393 545 466 545 m 575 992 q 557 980 575 992 q 486 909 539 968 q 398 825 431 848 q 340 805 372 805 q 277 828 304 805 q 251 882 251 851 q 279 937 251 907 q 329 983 304 960 q 414 1074 401 1062 q 524 1129 476 1129 q 586 1105 559 1129 q 612 1052 612 1082 q 575 992 612 1017 z "},"è":{"ha":777,"x_min":32,"x_max":726,"o":"m 411 -31 q 146 46 249 -31 q 32 287 32 132 q 122 577 32 458 q 393 709 222 709 q 589 671 511 709 q 691 515 691 621 q 608 382 691 440 q 455 305 570 356 l 227 204 q 305 151 259 169 q 411 134 351 134 q 565 171 502 134 q 655 204 621 204 q 726 136 726 204 q 612 9 726 58 q 411 -31 517 -31 m 393 545 q 285 503 330 545 q 213 376 240 460 q 366 442 290 410 q 511 519 457 484 q 393 545 466 545 m 435 799 q 364 833 392 799 q 299 916 332 875 q 218 989 262 960 q 181 1049 181 1014 q 207 1103 181 1079 q 269 1126 232 1126 q 426 1021 324 1126 q 526 873 526 919 q 498 821 526 842 q 435 799 471 799 z "},"ê":{"ha":777,"x_min":32,"x_max":726,"o":"m 411 -31 q 146 46 249 -31 q 32 287 32 132 q 122 577 32 458 q 393 709 222 709 q 589 671 511 709 q 691 515 691 621 q 608 382 691 440 q 455 305 570 356 l 227 204 q 305 151 259 169 q 411 134 351 134 q 565 171 502 134 q 655 204 621 204 q 726 136 726 204 q 612 9 726 58 q 411 -31 517 -31 m 393 545 q 285 503 330 545 q 213 376 240 460 q 366 442 290 410 q 511 519 457 484 q 393 545 466 545 m 623 804 q 562 828 590 804 q 414 964 513 874 q 190 791 249 791 q 127 814 154 791 q 101 869 101 838 q 130 924 101 899 q 335 1120 166 954 q 397 1146 361 1146 q 497 1105 441 1146 q 580 1034 517 1091 q 688 933 616 1000 q 713 882 713 909 q 686 827 713 850 q 623 804 659 804 z "},"ë":{"ha":777,"x_min":32,"x_max":726,"o":"m 411 -31 q 146 46 249 -31 q 32 287 32 132 q 122 577 32 458 q 393 709 222 709 q 589 671 511 709 q 691 515 691 621 q 608 382 691 440 q 455 305 570 356 l 227 204 q 305 151 259 169 q 411 134 351 134 q 565 171 502 134 q 655 204 621 204 q 726 136 726 204 q 612 9 726 58 q 411 -31 517 -31 m 393 545 q 285 503 330 545 q 213 376 240 460 q 366 442 290 410 q 511 519 457 484 q 393 545 466 545 m 580 855 q 505 877 540 855 q 463 942 463 903 q 604 1037 463 1037 q 676 1013 640 1037 q 718 946 718 985 q 671 876 718 901 q 580 855 633 855 m 288 855 q 161 951 161 855 q 203 1013 161 984 q 280 1039 243 1039 q 410 941 411 1039 q 363 880 410 907 q 288 855 321 855 z "},"í":{"ha":389,"x_min":65,"x_max":426,"o":"m 309 318 q 311 194 309 279 q 313 70 313 109 q 287 5 313 31 q 220 -20 260 -20 q 153 5 179 -20 q 126 70 126 31 q 124 194 126 109 q 121 318 121 279 q 128 469 121 378 q 135 621 135 560 q 161 685 135 660 q 229 711 188 711 q 296 685 269 711 q 322 621 322 660 q 315 469 322 560 q 309 318 309 378 m 390 992 q 371 980 390 992 q 300 909 353 968 q 212 825 245 848 q 154 805 186 805 q 92 828 118 805 q 65 882 65 851 q 94 937 65 907 q 143 983 119 960 q 229 1074 216 1062 q 338 1129 290 1129 q 400 1105 374 1129 q 426 1052 426 1082 q 390 992 426 1017 z "},"ì":{"ha":389,"x_min":17,"x_max":361,"o":"m 309 318 q 311 194 309 279 q 313 70 313 109 q 287 5 313 31 q 220 -20 260 -20 q 153 5 179 -20 q 126 70 126 31 q 124 194 126 109 q 121 318 121 279 q 128 469 121 378 q 135 621 135 560 q 161 685 135 660 q 229 711 188 711 q 296 685 269 711 q 322 621 322 660 q 315 469 322 560 q 309 318 309 378 m 271 799 q 200 833 228 799 q 135 916 168 875 q 54 989 98 960 q 17 1049 17 1014 q 42 1103 17 1079 q 104 1126 68 1126 q 262 1021 160 1126 q 361 873 361 919 q 334 821 361 842 q 271 799 307 799 z "},"î":{"ha":389,"x_min":-96,"x_max":515,"o":"m 309 318 q 311 194 309 279 q 313 70 313 109 q 287 5 313 31 q 220 -20 260 -20 q 153 5 179 -20 q 126 70 126 31 q 124 194 126 109 q 121 318 121 279 q 128 469 121 378 q 135 621 135 560 q 161 685 135 660 q 229 711 188 711 q 296 685 269 711 q 322 621 322 660 q 315 469 322 560 q 309 318 309 378 m 426 805 q 364 829 393 805 q 216 964 316 875 q -7 791 52 791 q -70 815 -43 791 q -96 869 -96 838 q -67 924 -96 900 q 138 1121 -31 955 q 199 1147 164 1147 q 300 1106 244 1147 q 382 1034 319 1092 q 491 934 419 1001 q 515 882 515 910 q 489 828 515 851 q 426 805 462 805 z "},"ï":{"ha":389,"x_min":-74,"x_max":482,"o":"m 281 318 q 284 194 281 279 q 286 70 286 109 q 260 5 286 31 q 193 -20 233 -20 q 125 5 152 -20 q 99 70 99 31 q 97 194 99 109 q 94 318 94 279 q 101 469 94 378 q 108 621 108 560 q 134 685 108 660 q 201 711 161 711 q 269 685 242 711 q 295 621 295 660 q 288 469 295 560 q 281 318 281 378 m 345 789 q 269 811 304 789 q 227 876 227 837 q 368 971 227 971 q 441 947 405 971 q 482 880 482 919 q 436 810 482 835 q 345 789 398 789 m 52 789 q -74 886 -74 789 q -32 947 -74 918 q 45 973 7 973 q 175 876 176 973 q 127 814 175 842 q 52 789 86 789 z "},"ñ":{"ha":727,"x_min":46,"x_max":755,"o":"m 604 -48 q 511 34 520 -48 q 492 174 501 104 q 481 315 481 249 q 484 375 481 332 q 486 435 486 418 q 488 459 486 440 q 489 491 489 479 q 460 547 489 547 q 337 474 397 547 q 243 290 277 401 q 237 230 242 267 q 233 170 233 199 q 238 113 233 151 q 242 56 242 75 q 215 -8 242 17 q 148 -34 189 -34 q 81 -8 107 -34 q 54 56 54 17 q 50 113 54 75 q 46 170 46 151 q 56 351 46 235 q 65 532 65 467 q 63 593 65 553 q 60 653 60 633 q 88 716 60 691 q 155 741 115 741 q 250 634 244 741 l 251 627 q 460 726 350 726 q 637 619 588 726 q 669 404 669 547 l 669 356 q 669 312 669 325 q 683 176 669 259 q 698 40 698 92 q 671 -23 698 2 q 604 -48 644 -48 m 671 841 q 555 802 626 802 q 428 824 476 802 q 340 897 383 844 q 293 926 315 926 q 227 877 256 926 q 153 827 199 827 q 98 844 121 827 q 73 890 73 863 q 77 909 73 899 q 154 1012 98 972 q 293 1054 214 1054 q 402 1028 361 1054 q 474 960 427 1013 q 534 930 501 930 q 577 949 562 930 q 600 988 588 969 q 612 1020 603 999 q 677 1049 629 1049 q 733 1031 711 1049 q 755 985 755 1013 q 724 908 755 960 q 671 841 694 860 z "},"ó":{"ha":730,"x_min":29,"x_max":690,"o":"m 353 -40 q 138 46 228 -40 q 34 298 39 140 q 116 565 29 448 q 403 703 219 703 q 618 595 538 703 q 690 353 690 497 q 606 84 690 195 q 353 -40 512 -40 m 394 524 q 262 448 311 525 q 222 298 222 384 q 268 173 222 216 q 353 138 304 138 q 456 178 412 138 q 509 305 505 225 q 394 524 517 524 m 563 992 q 545 980 563 992 q 474 909 527 968 q 386 825 418 848 q 328 805 359 805 q 265 828 292 805 q 239 882 239 851 q 267 937 239 907 q 317 983 292 960 q 402 1074 389 1062 q 511 1129 464 1129 q 573 1105 547 1129 q 600 1052 600 1082 q 563 992 600 1017 z "},"ò":{"ha":730,"x_min":56,"x_max":718,"o":"m 380 -40 q 165 46 255 -40 q 61 298 66 140 q 143 565 56 448 q 430 703 246 703 q 646 595 566 703 q 718 353 718 497 q 633 84 718 195 q 380 -40 539 -40 m 421 524 q 290 448 338 525 q 249 298 249 384 q 295 173 249 216 q 380 138 332 138 q 483 178 439 138 q 536 305 532 225 q 421 524 545 524 m 513 799 q 441 833 469 799 q 376 916 409 875 q 296 989 340 960 q 258 1049 258 1014 q 284 1103 258 1079 q 346 1126 309 1126 q 503 1021 401 1126 q 603 873 603 919 q 575 821 603 842 q 513 799 548 799 z "},"ô":{"ha":730,"x_min":56,"x_max":729,"o":"m 380 -40 q 165 46 255 -40 q 61 298 66 140 q 143 565 56 448 q 430 703 246 703 q 646 595 566 703 q 718 353 718 497 q 633 84 718 195 q 380 -40 539 -40 m 421 524 q 290 448 338 525 q 249 298 249 384 q 295 173 249 216 q 380 138 332 138 q 483 178 439 138 q 536 305 532 225 q 421 524 545 524 m 640 804 q 578 828 606 804 q 430 964 530 874 q 206 791 265 791 q 144 814 170 791 q 117 869 117 838 q 146 924 117 899 q 351 1120 182 954 q 413 1146 378 1146 q 513 1105 458 1146 q 596 1034 533 1091 q 705 933 633 1000 q 729 882 729 909 q 702 827 729 850 q 640 804 675 804 z "},"ö":{"ha":730,"x_min":29,"x_max":703,"o":"m 353 -40 q 138 46 228 -40 q 34 298 39 140 q 116 565 29 448 q 403 703 219 703 q 618 595 538 703 q 690 353 690 497 q 606 84 690 195 q 353 -40 512 -40 m 394 524 q 262 448 311 525 q 222 298 222 384 q 268 173 222 216 q 353 138 304 138 q 456 178 412 138 q 509 305 505 225 q 394 524 517 524 m 566 789 q 490 811 526 789 q 448 876 448 837 q 589 971 448 971 q 662 947 626 971 q 703 880 703 919 q 657 810 703 835 q 566 789 619 789 m 273 789 q 147 886 147 789 q 189 947 147 918 q 266 973 229 973 q 396 876 397 973 q 349 814 396 842 q 273 789 307 789 z "},"õ":{"ha":730,"x_min":56,"x_max":796,"o":"m 380 -40 q 165 46 255 -40 q 61 298 66 140 q 143 565 56 448 q 430 703 246 703 q 646 595 566 703 q 718 353 718 497 q 633 84 718 195 q 380 -40 539 -40 m 421 524 q 290 448 338 525 q 249 298 249 384 q 295 173 249 216 q 380 138 332 138 q 483 178 439 138 q 536 305 532 225 q 421 524 545 524 m 712 841 q 596 802 667 802 q 469 824 517 802 q 380 897 424 844 q 334 926 356 926 q 268 877 296 926 q 193 827 239 827 q 139 844 162 827 q 114 890 114 863 q 117 909 114 899 q 195 1012 138 972 q 334 1054 254 1054 q 443 1028 401 1054 q 515 960 467 1013 q 575 930 542 930 q 618 949 603 930 q 640 988 629 969 q 653 1020 644 999 q 718 1049 669 1049 q 774 1031 751 1049 q 796 985 796 1013 q 764 908 796 960 q 712 841 734 860 z "},"ú":{"ha":722,"x_min":74,"x_max":716,"o":"m 701 392 q 702 255 701 347 q 703 118 703 163 q 705 76 703 104 q 707 33 707 47 q 680 -30 707 -5 q 612 -54 652 -54 q 530 -3 556 -54 q 351 -35 444 -35 q 189 5 254 -35 q 100 142 115 52 q 74 445 74 311 q 94 646 74 533 q 186 723 108 723 q 253 698 225 723 q 281 635 281 673 q 271 542 281 606 q 261 445 261 478 q 268 278 261 349 q 287 159 274 206 q 320 148 304 152 q 351 144 336 144 q 516 165 426 144 q 515 284 516 218 q 514 398 514 363 q 527 638 514 537 q 619 719 537 719 q 688 694 659 719 q 714 631 716 669 q 701 392 701 372 m 645 992 q 627 980 645 992 q 556 909 609 968 q 468 825 500 848 q 410 805 441 805 q 347 828 374 805 q 321 882 321 851 q 349 937 321 907 q 399 983 374 960 q 484 1074 471 1062 q 593 1129 546 1129 q 655 1105 629 1129 q 682 1052 682 1082 q 645 992 682 1017 z "},"ù":{"ha":722,"x_min":74,"x_max":716,"o":"m 701 392 q 702 255 701 347 q 703 118 703 163 q 705 76 703 104 q 707 33 707 47 q 680 -30 707 -5 q 612 -54 652 -54 q 530 -3 556 -54 q 351 -35 444 -35 q 189 5 254 -35 q 100 142 115 52 q 74 445 74 311 q 94 646 74 533 q 186 723 108 723 q 253 698 225 723 q 281 635 281 673 q 271 542 281 606 q 261 445 261 478 q 268 278 261 349 q 287 159 274 206 q 320 148 304 152 q 351 144 336 144 q 516 165 426 144 q 515 284 516 218 q 514 398 514 363 q 527 638 514 537 q 619 719 537 719 q 688 694 659 719 q 714 631 716 669 q 701 392 701 372 m 494 804 q 423 838 451 804 q 358 922 391 880 q 277 995 321 966 q 240 1055 240 1019 q 266 1108 240 1084 q 328 1132 291 1132 q 485 1027 383 1132 q 585 879 585 924 q 557 826 585 848 q 494 804 530 804 z "},"û":{"ha":722,"x_min":74,"x_max":742,"o":"m 701 392 q 702 255 701 347 q 703 118 703 163 q 705 76 703 104 q 707 33 707 47 q 680 -30 707 -5 q 612 -54 652 -54 q 530 -3 556 -54 q 351 -35 444 -35 q 189 5 254 -35 q 100 142 115 52 q 74 445 74 311 q 94 646 74 533 q 186 723 108 723 q 253 698 225 723 q 281 635 281 673 q 271 542 281 606 q 261 445 261 478 q 268 278 261 349 q 287 159 274 206 q 320 148 304 152 q 351 144 336 144 q 516 165 426 144 q 515 284 516 218 q 514 398 514 363 q 527 638 514 537 q 619 719 537 719 q 688 694 659 719 q 714 631 716 669 q 701 392 701 372 m 652 804 q 591 828 619 804 q 443 964 543 874 q 219 791 278 791 q 157 814 183 791 q 130 869 130 838 q 159 924 130 899 q 364 1120 195 954 q 426 1146 391 1146 q 526 1105 471 1146 q 609 1034 546 1091 q 718 933 646 1000 q 742 882 742 909 q 715 827 742 850 q 652 804 688 804 z "},"ü":{"ha":722,"x_min":74,"x_max":724,"o":"m 701 392 q 702 255 701 347 q 703 118 703 163 q 705 76 703 104 q 707 33 707 47 q 680 -30 707 -5 q 612 -54 652 -54 q 530 -3 556 -54 q 351 -35 444 -35 q 189 5 254 -35 q 100 142 115 52 q 74 445 74 311 q 94 646 74 533 q 186 723 108 723 q 253 698 225 723 q 281 635 281 673 q 271 542 281 606 q 261 445 261 478 q 268 278 261 349 q 287 159 274 206 q 320 148 304 152 q 351 144 336 144 q 516 165 426 144 q 515 284 516 218 q 514 398 514 363 q 527 638 514 537 q 619 719 537 719 q 688 694 659 719 q 714 631 716 669 q 701 392 701 372 m 586 789 q 511 811 546 789 q 469 876 469 837 q 610 971 469 971 q 682 947 646 971 q 724 880 724 919 q 677 810 724 835 q 586 789 640 789 m 294 789 q 168 886 168 789 q 210 947 168 918 q 286 973 249 973 q 416 876 417 973 q 369 814 416 842 q 294 789 328 789 z "},"†":{"ha":848,"x_min":18,"x_max":822,"o":"m 718 635 q 586 629 682 629 q 496 631 551 629 q 490 290 491 496 q 489 -51 490 -22 q 462 -115 488 -90 q 395 -141 435 -141 q 328 -115 354 -141 q 300 -51 301 -90 q 308 633 294 291 q 186 632 207 632 q 18 729 18 632 q 43 794 18 766 q 110 821 69 821 q 175 818 132 821 q 241 814 219 814 q 315 815 238 814 q 323 1060 323 1016 q 350 1125 323 1099 q 417 1151 376 1151 q 485 1125 458 1151 q 511 1060 511 1099 q 504 811 511 1012 q 581 809 553 809 q 656 815 606 809 q 730 821 705 821 q 796 794 770 821 q 822 729 822 766 q 718 635 822 654 z "},"°":{"ha":848,"x_min":149,"x_max":677,"o":"m 398 661 q 212 736 281 661 q 149 905 149 804 q 229 1074 149 1006 q 410 1139 305 1139 q 602 1068 527 1139 q 677 890 677 998 q 590 725 677 792 q 398 661 507 661 m 410 1000 q 338 973 370 1000 q 304 905 304 945 q 328 831 304 861 q 398 800 354 800 q 484 827 447 800 q 521 890 521 854 q 491 970 521 941 q 410 1000 461 1000 z "},"¢":{"ha":848,"x_min":54,"x_max":779,"o":"m 772 412 q 482 180 682 198 l 482 111 q 416 23 482 23 q 366 37 379 23 q 353 87 353 51 l 353 187 q 54 592 54 293 q 141 841 54 718 q 353 1006 229 964 q 358 1113 353 1086 q 408 1178 370 1175 q 464 1157 440 1181 q 487 1097 487 1133 q 486 1006 487 1027 q 609 974 573 991 q 688 1008 640 1008 q 739 988 720 1008 q 758 939 758 968 q 726 828 758 901 q 658 745 690 745 q 613 770 639 745 q 576 808 595 789 q 486 842 566 817 l 486 342 q 583 400 545 353 q 631 480 587 406 q 682 519 654 520 q 746 498 718 517 q 779 444 779 477 q 772 412 779 430 m 220 592 q 353 354 220 408 l 353 830 q 267 727 310 802 q 220 592 220 648 z "},"£":{"ha":1102,"x_min":-2,"x_max":1017,"o":"m 398 142 q 547 102 452 140 q 694 66 639 66 q 838 133 824 66 q 856 208 852 201 q 928 241 873 241 q 993 216 969 241 q 1017 153 1017 191 q 1001 68 1017 114 q 694 -102 943 -102 q 531 -63 630 -102 q 373 -25 431 -25 q 273 -52 330 -25 q 197 -79 216 -79 q 137 -55 162 -79 q 111 3 111 -30 q 144 66 111 32 q 207 137 193 116 q 240 266 240 191 q 206 458 240 323 q 125 457 172 457 q -2 543 -2 457 q 22 603 -2 578 q 84 627 47 627 q 121 626 96 627 q 159 625 146 625 l 179 625 l 179 635 q 279 948 177 821 q 598 1092 395 1092 q 810 1044 713 1092 q 934 873 934 983 q 906 814 934 838 q 844 791 879 791 q 776 826 799 791 q 728 892 738 884 q 589 928 684 928 q 411 841 473 928 q 354 636 354 762 q 484 642 425 642 q 602 638 524 642 q 720 634 681 634 q 783 610 758 634 q 808 550 808 586 q 783 490 808 514 q 720 467 758 467 q 602 471 681 467 q 484 475 524 475 q 380 471 441 475 q 415 266 415 332 q 398 142 415 201 z "},"§":{"ha":882,"x_min":52,"x_max":781,"o":"m 723 351 q 772 204 772 285 q 665 5 772 74 q 437 -52 574 -52 q 173 13 275 -52 q 52 243 52 91 q 77 303 52 279 q 140 327 102 327 q 212 283 192 327 q 235 199 223 241 q 433 98 270 98 q 546 123 509 98 q 584 199 584 149 q 424 316 584 280 q 208 392 260 353 q 125 606 125 455 q 197 746 125 675 q 163 824 174 791 q 151 880 151 857 q 254 1059 151 994 q 458 1113 340 1113 q 738 1001 629 1113 q 768 935 768 970 q 744 877 768 903 q 684 851 720 851 q 585 902 656 851 q 460 954 513 954 q 373 933 412 954 q 331 880 331 911 q 361 822 331 849 q 452 772 392 795 l 642 711 q 781 485 781 654 q 764 415 781 457 q 723 351 745 370 m 598 430 q 605 497 605 473 q 477 601 605 550 q 294 669 385 635 q 277 633 288 661 q 267 597 267 604 q 359 494 267 530 q 511 454 370 490 q 598 430 542 447 z "},"•":{"ha":848,"x_min":243,"x_max":570,"o":"m 407 378 q 291 418 339 378 q 243 514 243 458 q 291 610 243 570 q 407 650 339 650 q 522 610 474 650 q 570 514 570 570 q 522 418 570 458 q 407 378 475 378 z "},"¶":{"ha":1057,"x_min":21,"x_max":974,"o":"m 811 -73 q 733 -125 783 -125 q 671 -102 698 -125 q 643 -43 643 -78 q 648 -13 643 -29 q 747 408 699 140 q 799 833 799 688 q 788 931 799 866 q 778 1029 778 996 q 804 1088 778 1065 q 867 1111 829 1111 q 951 1042 932 1111 q 974 833 974 964 q 915 369 974 718 q 811 -73 852 1 m 703 963 q 704 918 704 935 q 670 399 704 667 q 581 -73 629 73 q 499 -133 562 -133 q 437 -111 464 -133 q 409 -51 409 -87 q 413 -27 409 -43 q 460 248 418 -6 l 449 248 q 164 330 290 248 q 21 578 21 425 q 123 876 21 751 q 393 1053 220 995 q 528 1091 420 1063 q 667 1124 650 1124 q 730 1096 705 1124 q 753 1037 753 1071 q 703 963 753 987 m 529 916 q 290 804 370 876 q 196 578 196 720 q 280 458 196 506 q 449 416 356 416 q 494 423 467 416 q 530 850 530 624 q 529 916 530 884 z "},"ß":{"ha":741,"x_min":58,"x_max":682,"o":"m 424 -52 q 331 -43 350 -52 q 295 43 295 -26 q 311 94 295 72 q 366 119 331 119 q 398 120 395 119 q 420 121 402 121 q 481 134 466 121 q 500 192 500 149 q 477 326 500 269 q 407 422 454 384 q 336 475 371 449 q 296 549 296 510 q 378 661 296 591 q 460 780 460 730 q 444 862 460 835 q 395 889 428 889 q 290 808 323 889 q 263 665 272 761 q 251 376 251 534 q 253 257 251 336 q 256 138 256 177 q 247 -12 256 28 q 152 -106 226 -106 q 87 -83 115 -106 q 58 -22 58 -59 q 60 -5 58 -14 q 73 162 73 86 q 77 266 73 197 q 80 369 80 334 q 79 444 80 394 q 79 519 79 494 q 125 871 79 750 q 397 1065 199 1065 q 591 972 522 1065 q 652 776 652 892 q 526 553 652 676 q 682 199 682 435 q 616 15 682 80 q 424 -52 548 -52 z "},"®":{"ha":1105,"x_min":35,"x_max":1071,"o":"m 522 140 q 177 249 309 140 q 35 575 35 366 q 184 961 35 821 q 630 1106 340 1106 q 949 962 820 1106 q 1071 648 1071 827 q 894 277 1071 425 q 522 140 730 140 m 618 941 q 312 850 414 941 q 210 575 210 758 q 298 370 210 439 q 522 306 379 306 q 771 395 661 306 q 894 646 893 494 q 818 851 895 765 q 618 941 738 941 m 582 559 q 682 502 608 548 q 715 476 711 481 q 727 441 727 463 q 663 377 726 377 q 545 422 604 377 q 446 515 528 435 q 425 425 434 446 q 351 381 402 380 q 300 421 319 382 q 283 497 283 455 q 332 774 283 601 q 402 855 344 815 q 519 898 460 895 q 560 899 541 899 q 787 734 787 899 q 724 601 787 640 q 582 559 686 576 m 530 798 l 495 798 q 467 650 481 732 q 645 749 645 658 q 530 798 645 804 z "},"©":{"ha":1105,"x_min":34,"x_max":1059,"o":"m 555 170 q 176 275 310 168 q 34 619 34 390 q 211 952 34 805 q 612 1099 387 1099 q 943 971 821 1099 q 1059 659 1059 850 q 915 337 1059 490 q 555 170 760 172 m 640 930 q 325 841 445 932 q 209 619 209 754 q 294 399 209 476 q 492 330 370 330 q 757 423 640 330 q 884 671 884 524 q 826 857 884 789 q 640 930 764 930 m 551 410 q 368 456 446 408 q 279 610 279 513 q 390 799 279 724 q 607 865 489 865 q 727 789 727 865 q 663 722 727 722 q 643 725 656 722 q 623 728 630 728 q 495 691 553 728 q 441 618 439 656 q 539 549 444 549 q 637 585 581 549 q 719 621 693 621 q 775 549 775 621 q 701 448 775 489 q 551 410 634 411 z "},"™":{"ha":1226,"x_min":25,"x_max":1211,"o":"m 585 940 q 397 932 522 935 q 402 842 397 901 q 408 751 408 780 q 417 698 408 733 q 426 644 426 663 q 401 595 426 614 q 346 575 377 575 q 277 609 298 575 q 258 683 261 634 q 256 758 257 721 q 242 932 250 817 q 173 937 226 932 q 103 940 130 940 q 47 960 70 940 q 25 1010 25 981 q 47 1061 25 1040 q 103 1081 70 1081 q 177 1077 127 1081 q 250 1072 226 1072 q 469 1076 359 1072 q 523 1079 479 1077 q 576 1081 556 1081 q 648 1046 626 1081 q 714 1082 669 1082 q 857 868 817 1082 q 1002 1091 930 1091 q 1076 1036 1060 1091 q 1121 894 1092 989 q 1153 785 1137 840 q 1199 680 1173 724 q 1211 644 1211 661 q 1186 594 1211 614 q 1131 574 1162 574 q 994 803 1048 574 q 824 585 903 585 q 753 642 773 585 q 722 787 739 684 q 570 589 648 589 q 514 610 538 589 q 490 660 490 631 q 508 703 490 681 q 571 820 545 750 q 610 946 578 839 q 585 940 597 941 z "},"´":{"ha":772,"x_min":117,"x_max":478,"o":"m 442 992 q 424 980 442 992 q 353 909 406 968 q 264 825 297 848 q 206 805 238 805 q 144 828 170 805 q 117 882 117 851 q 146 937 117 907 q 195 983 171 960 q 281 1074 268 1062 q 390 1129 342 1129 q 452 1105 426 1129 q 478 1052 478 1082 q 442 992 478 1017 z "},"¨":{"ha":772,"x_min":130,"x_max":686,"o":"m 549 789 q 473 811 509 789 q 431 876 431 837 q 572 971 431 971 q 645 947 609 971 q 686 880 686 919 q 640 810 686 835 q 549 789 602 789 m 256 789 q 130 886 130 789 q 172 947 130 918 q 249 973 212 973 q 379 876 380 973 q 332 814 379 842 q 256 789 290 789 z "},"≠":{"ha":848,"x_min":128,"x_max":712,"o":"m 232 178 l 225 178 q 161 201 187 178 q 136 260 136 224 q 309 348 136 351 q 387 524 361 462 l 307 524 q 261 522 292 524 q 215 521 231 521 q 153 545 178 521 q 128 603 128 569 q 261 688 128 688 l 450 688 q 575 829 502 831 q 634 807 610 829 q 659 751 659 785 q 637 685 659 740 q 712 606 712 673 q 570 523 712 518 q 495 345 547 465 q 615 343 597 343 q 677 320 652 343 q 703 262 703 296 q 677 203 703 227 q 615 180 652 180 q 425 182 589 180 q 386 102 401 124 q 311 56 354 56 q 248 79 275 56 q 221 136 221 101 q 232 178 221 152 z "},"Æ":{"ha":1510,"x_min":4,"x_max":1530,"o":"m 1436 880 q 1409 884 1425 880 q 1194 914 1285 914 q 1085 906 1143 914 q 961 882 1027 898 q 964 833 964 854 q 955 613 964 749 q 1220 638 1013 616 q 1383 652 1352 652 q 1453 625 1425 652 q 1480 559 1480 599 q 1396 467 1480 482 q 1232 454 1341 463 q 942 427 1136 443 q 938 288 938 353 q 952 138 938 152 q 1039 127 962 127 q 1166 130 1081 127 q 1293 132 1251 132 q 1332 136 1306 132 q 1372 140 1358 140 q 1443 115 1415 140 q 1471 47 1471 89 q 1384 -46 1471 -22 q 1240 -59 1340 -58 q 1164 -58 1212 -59 q 1092 -58 1110 -58 q 814 14 882 -58 q 748 288 748 81 q 752 431 748 357 q 427 405 644 422 q 260 167 370 330 q 178 45 234 125 q 102 5 147 5 q 34 32 64 5 q 4 95 4 58 q 21 146 4 119 q 389 650 233 475 l 600 904 q 856 1077 757 1077 q 911 1060 885 1077 q 1060 1089 989 1080 q 1194 1099 1131 1099 q 1469 1059 1378 1099 q 1530 974 1530 1032 q 1504 909 1530 937 q 1436 880 1476 880 m 774 819 q 591 602 736 780 q 765 612 684 610 q 774 819 774 738 z "},"Ø":{"ha":1109,"x_min":29,"x_max":1133,"o":"m 1084 879 q 1038 831 1072 865 q 1086 593 1086 737 q 951 170 1086 357 q 553 -43 797 -43 q 250 45 382 -43 q 120 -61 152 -61 q 57 -36 84 -61 q 29 24 29 -10 q 133 159 29 55 q 61 393 61 262 q 208 817 61 627 q 614 1028 371 1028 q 922 958 810 1028 q 1042 1046 1015 1046 q 1105 1022 1078 1046 q 1133 963 1133 998 q 1084 879 1133 933 m 614 844 q 352 692 460 844 q 254 393 254 555 q 271 304 254 347 q 783 819 442 475 q 614 844 725 844 m 886 685 q 718 518 818 621 q 553 349 568 363 l 387 180 q 553 142 460 142 q 806 294 707 142 q 894 593 894 428 q 886 685 894 648 z "},"∞":{"ha":1162,"x_min":73,"x_max":1088,"o":"m 588 329 q 338 208 488 208 q 155 271 233 208 q 73 434 73 336 q 147 591 73 530 q 331 652 221 652 q 578 547 450 652 q 827 646 682 646 q 1013 590 941 646 q 1088 427 1088 531 q 1018 266 1088 323 q 831 210 947 208 q 692 245 751 211 q 588 329 658 264 m 820 509 q 739 489 773 509 q 681 437 716 475 q 848 346 762 342 q 911 370 894 348 q 928 445 928 391 q 901 493 928 477 q 820 509 874 509 m 426 482 q 331 513 378 513 q 257 489 285 513 q 229 426 229 465 q 261 373 229 393 q 340 353 293 353 q 482 437 414 353 q 426 482 448 468 z "},"±":{"ha":848,"x_min":104,"x_max":745,"o":"m 659 345 q 634 347 651 345 q 610 349 618 349 q 555 348 592 349 q 502 347 522 347 l 503 324 q 494 209 503 238 q 407 142 475 142 q 346 168 368 142 q 326 224 326 191 q 325 344 326 220 q 236 341 274 341 q 151 359 188 341 q 104 425 104 382 q 147 496 104 480 q 236 505 171 505 q 324 508 274 505 q 323 533 324 514 q 323 564 323 552 q 415 709 323 709 q 477 686 451 709 q 504 629 504 663 q 502 594 504 617 q 499 559 499 571 l 499 511 q 524 510 514 510 q 565 512 537 510 q 606 513 593 513 q 745 428 745 513 q 722 370 745 395 q 659 345 696 345 m 659 -83 q 635 -80 651 -83 q 610 -78 618 -78 q 423 -82 548 -78 q 236 -87 298 -87 q 151 -68 188 -87 q 104 -3 104 -45 q 206 77 104 77 q 340 81 251 77 q 473 84 429 84 q 539 85 495 84 q 606 85 584 85 q 745 1 745 85 q 722 -57 745 -33 q 659 -83 696 -83 z "},"≤":{"ha":848,"x_min":123,"x_max":675,"o":"m 561 577 q 382 410 503 519 q 541 264 434 360 q 574 202 574 237 q 548 143 574 169 q 486 118 522 118 q 391 167 448 118 q 313 245 352 206 q 189 329 250 306 q 123 404 123 353 q 184 480 123 452 q 320 581 245 507 q 443 698 422 682 q 501 720 471 720 q 564 694 537 720 q 590 636 590 669 q 561 577 590 604 m 570 -82 q 418 -84 517 -82 q 266 -87 320 -87 q 180 -68 218 -87 q 134 -3 134 -45 q 236 78 134 78 q 388 79 286 78 q 541 80 490 80 q 629 71 604 80 q 675 3 675 54 q 639 -58 675 -33 q 570 -82 606 -82 z "},"≥":{"ha":848,"x_min":134,"x_max":675,"o":"m 629 379 q 288 129 467 237 q 237 113 262 113 q 175 139 201 113 q 149 198 149 165 q 186 263 149 235 q 422 431 266 318 q 272 557 343 488 q 181 680 181 644 q 209 738 181 713 q 271 763 236 763 q 337 732 308 763 q 609 515 488 574 q 663 443 663 488 q 629 379 663 409 m 570 -81 q 418 -84 517 -81 q 266 -87 320 -87 q 180 -68 218 -87 q 134 -3 134 -45 q 236 78 134 78 q 388 79 286 78 q 541 81 490 81 q 629 71 604 81 q 675 3 675 55 q 639 -58 675 -32 q 570 -81 606 -81 z "},"¥":{"ha":848,"x_min":33,"x_max":792,"o":"m 326 420 q 283 481 313 439 q 144 494 273 481 q 68 572 68 501 q 152 648 68 648 q 182 648 165 648 q 33 909 33 884 q 60 966 33 943 q 119 989 86 989 q 189 951 163 989 q 273 814 245 868 q 346 689 307 751 l 418 576 q 575 838 484 654 q 631 935 595 870 q 707 985 653 985 q 765 964 740 985 q 792 907 792 941 q 658 651 792 876 q 683 652 670 652 q 743 630 719 652 q 766 573 766 607 q 743 516 766 539 q 683 494 719 494 q 621 488 660 494 q 559 481 576 482 q 499 408 538 457 q 551 408 532 408 q 590 411 564 408 q 627 415 615 415 q 686 391 663 415 q 709 334 709 366 q 568 250 709 250 q 496 253 551 250 l 496 190 l 497 149 q 500 97 497 131 q 503 44 503 62 q 480 -13 503 10 q 420 -36 456 -36 q 361 -13 385 -36 q 337 44 337 10 q 335 105 337 64 q 333 166 333 146 l 333 258 q 208 269 219 267 q 130 345 131 287 q 168 412 129 394 q 250 422 197 426 l 287 420 l 326 420 z "},"µ":{"ha":848,"x_min":-3,"x_max":838,"o":"m 806 517 q 768 382 790 462 q 707 104 752 312 q 692 17 703 75 q 653 -42 684 -19 q 584 -66 623 -66 q 510 -15 528 -66 q 326 -46 418 -46 q 243 -37 279 -46 q 174 -219 201 -158 q 91 -275 150 -275 q 26 -252 54 -275 q -3 -191 -3 -228 q 52 -28 -3 -171 q 113 152 107 119 q 120 238 115 181 q 220 651 146 480 q 322 723 251 723 q 379 703 356 723 q 405 648 405 682 q 378 544 405 617 q 340 435 345 454 q 300 159 300 264 l 300 149 q 355 136 328 136 q 531 159 436 136 l 583 403 q 651 643 614 545 q 755 719 680 719 q 811 701 787 719 q 838 646 838 680 q 806 517 838 627 z "},"∂":{"ha":707,"x_min":60,"x_max":660,"o":"m 338 -28 q 140 62 224 -28 q 60 256 60 148 q 157 502 60 395 q 389 639 248 603 q 243 842 314 783 q 180 891 211 866 q 143 958 143 924 q 170 1017 143 991 q 232 1043 196 1043 q 289 1022 262 1043 q 534 730 418 922 q 660 376 660 522 q 591 107 660 216 q 338 -28 507 -28 m 456 486 q 297 417 344 458 q 235 256 235 363 q 271 173 235 210 q 338 139 304 139 q 448 198 412 139 q 485 376 485 258 q 456 486 485 405 z "},"∑":{"ha":1038,"x_min":3,"x_max":1015,"o":"m 920 -212 q 551 -201 797 -212 q 182 -191 305 -191 q 140 -195 168 -191 q 100 -199 113 -199 q 33 -172 62 -199 q 3 -108 3 -145 q 72 -1 3 -71 l 171 99 q 257 231 199 144 q 431 427 332 337 q 357 527 399 460 q 210 688 315 594 q 55 843 94 793 q 31 907 31 874 q 86 988 31 962 q 176 1008 126 1008 q 518 1003 290 1008 q 861 999 747 999 q 928 971 901 999 q 954 907 954 945 q 802 814 954 814 q 653 819 753 814 q 505 825 554 825 q 422 823 477 825 q 339 823 372 823 q 521 617 470 700 q 575 545 553 565 l 642 490 q 674 424 674 459 q 623 342 674 377 q 455 175 539 287 q 316 -16 386 80 q 602 -23 457 -23 q 761 -27 654 -23 q 920 -31 867 -31 q 987 -57 960 -31 q 1015 -121 1015 -83 q 987 -186 1015 -160 q 920 -212 960 -212 z "},"∏":{"ha":1261,"x_min":44,"x_max":1218,"o":"m 884 876 q 726 871 852 871 q 400 877 559 871 q 418 291 418 688 q 414 202 418 259 q 408 113 409 139 q 408 45 408 87 q 409 -24 409 -12 q 399 -131 409 -102 q 313 -188 379 -188 q 245 -163 273 -188 q 218 -99 218 -138 q 219 117 218 62 q 224 204 220 143 q 229 291 229 260 q 218 792 229 462 l 210 880 q 138 880 170 880 q 71 905 98 880 q 44 970 44 931 q 186 1063 44 1063 l 214 1063 q 239 1062 231 1062 q 398 1058 292 1062 q 558 1054 505 1054 l 1123 1053 q 1191 1027 1164 1053 q 1218 962 1218 1001 q 1074 872 1218 865 q 1066 603 1066 774 q 1073 317 1066 508 q 1080 31 1080 126 q 1086 -33 1080 9 q 1093 -98 1093 -76 q 1065 -162 1093 -137 q 998 -187 1038 -187 q 904 -104 915 -187 q 891 31 891 -6 q 884 317 891 126 q 878 603 878 508 q 884 876 878 781 z "},"π":{"ha":872,"x_min":14,"x_max":845,"o":"m 774 408 q 703 400 748 401 q 672 129 688 310 l 720 92 q 747 40 747 71 q 721 -20 747 3 q 656 -43 696 -43 q 541 -1 591 -43 q 487 103 487 42 q 495 201 487 126 q 519 401 503 275 q 412 406 484 403 q 393 253 406 355 q 373 20 390 174 q 285 -49 360 -49 q 220 -26 248 -49 q 192 33 192 -3 q 229 405 192 79 q 168 374 205 400 q 107 349 134 349 q 42 374 71 349 q 14 433 14 399 q 32 483 14 458 q 294 575 100 575 q 457 572 349 575 q 619 570 565 570 q 685 571 641 570 q 751 572 729 572 q 818 550 791 572 q 845 488 845 527 q 774 408 845 426 z "},"∫":{"ha":972,"x_min":27,"x_max":918,"o":"m 820 918 q 751 951 781 918 q 705 984 721 984 q 612 861 633 984 q 605 684 605 816 q 609 549 605 640 q 614 414 614 459 q 600 226 614 379 q 578 37 585 73 q 511 -172 553 -106 q 322 -274 448 -274 q 119 -199 207 -274 q 27 -7 27 -120 q 121 93 27 93 q 216 -7 216 93 q 333 -90 216 -92 l 336 -91 q 385 -5 369 -90 q 404 181 391 33 q 416 551 416 322 q 443 935 416 831 q 705 1166 503 1166 q 838 1124 769 1166 q 918 1008 918 1075 q 888 944 918 970 q 820 918 858 918 z "},"ª":{"ha":848,"x_min":90,"x_max":696,"o":"m 505 682 q 316 616 425 616 q 151 718 222 616 q 90 884 90 806 q 176 1063 90 986 q 377 1140 262 1141 q 517 1135 489 1139 q 634 1078 602 1124 q 660 1026 656 1057 q 694 693 675 910 q 665 627 696 652 q 599 604 638 604 q 537 624 563 604 q 505 682 509 645 m 367 969 q 308 943 337 971 q 279 884 279 915 q 288 829 279 858 q 315 790 298 790 q 459 968 435 791 q 367 969 429 968 z "},"º":{"ha":848,"x_min":117,"x_max":729,"o":"m 414 605 q 196 698 284 605 q 117 877 117 781 q 221 1066 117 978 q 443 1154 324 1155 q 635 1067 538 1153 q 729 911 729 984 q 650 682 729 758 q 414 605 572 605 m 424 977 q 345 942 383 977 q 307 877 307 907 q 341 801 307 833 q 423 768 376 768 q 507 813 471 768 q 540 911 540 857 q 511 951 540 930 q 424 977 475 977 z "},"Ω":{"ha":1333,"x_min":17,"x_max":1316,"o":"m 1223 -83 q 1107 -77 1185 -83 q 989 -72 1029 -72 q 927 -73 968 -72 q 865 -75 886 -75 q 784 -30 818 -75 q 753 50 753 9 q 820 171 753 92 q 920 286 870 228 q 1037 734 1037 445 q 994 881 1037 836 q 845 925 950 925 q 530 822 680 925 q 368 566 368 711 q 405 356 368 458 l 488 159 q 517 109 491 151 q 536 56 536 79 q 453 -52 536 -38 q 109 -95 199 -95 q 43 -67 68 -95 q 17 -3 17 -39 q 92 84 17 66 q 304 114 155 100 q 214 332 228 288 q 178 566 178 440 q 401 956 178 793 q 845 1105 606 1105 q 1152 980 1061 1105 q 1225 677 1225 879 q 1011 109 1225 369 q 1236 97 1163 111 q 1316 9 1316 82 q 1290 -56 1316 -28 q 1223 -83 1264 -83 z "},"æ":{"ha":1266,"x_min":18,"x_max":1243,"o":"m 533 16 q 454 -21 493 -9 q 377 -33 415 -33 q 117 68 218 -33 q 18 314 18 165 q 148 588 18 474 q 446 701 275 701 q 619 668 520 701 q 652 629 640 661 q 874 709 744 709 q 1066 672 988 709 q 1173 514 1173 622 q 1089 382 1173 439 q 937 305 1053 357 l 708 204 q 892 134 773 134 q 1093 207 1036 134 q 1155 238 1118 238 q 1216 214 1190 238 q 1243 157 1243 191 q 1105 18 1243 77 q 892 -31 991 -31 q 695 12 779 -31 q 617 -28 682 -28 q 533 16 554 -28 m 874 544 q 694 375 748 544 q 848 439 843 437 q 994 519 935 479 q 874 544 949 544 m 494 265 q 507 532 494 431 q 475 546 479 545 q 436 547 470 547 q 274 473 342 547 q 205 306 205 399 q 258 178 205 235 q 382 120 311 120 q 451 132 420 120 q 507 167 482 144 q 494 265 494 239 z "},"ø":{"ha":741,"x_min":21,"x_max":724,"o":"m 724 640 q 712 604 724 623 q 659 535 693 575 q 696 353 696 453 q 612 84 696 195 q 360 -40 519 -40 q 173 22 256 -40 q 128 -25 147 -7 q 83 -47 106 -47 q 40 -28 59 -47 q 21 15 21 -9 q 37 55 21 35 q 90 115 59 82 q 41 298 43 194 q 122 565 35 448 q 410 703 225 703 q 585 639 513 703 q 614 674 594 651 q 661 701 637 701 q 705 683 686 701 q 724 640 724 665 m 465 503 q 401 524 439 524 q 269 448 317 525 q 229 298 229 384 q 231 259 229 277 l 249 277 q 465 503 378 410 m 515 305 q 514 379 517 347 l 462 326 q 298 155 426 288 q 360 138 328 138 q 462 178 418 138 q 515 305 512 224 z "},"¿":{"ha":786,"x_min":57,"x_max":728,"o":"m 516 863 q 443 895 469 863 q 420 960 420 922 q 442 1038 420 1002 q 522 1084 471 1084 q 592 1059 560 1084 q 627 992 627 1032 q 602 909 627 945 q 516 863 571 863 m 443 -49 q 176 60 296 -49 q 57 308 57 168 q 121 486 57 410 q 264 603 161 532 q 413 722 372 676 q 484 757 445 757 q 552 729 524 757 q 581 665 581 701 q 494 543 581 610 q 332 429 414 486 q 245 308 245 361 q 310 190 245 245 q 443 134 374 134 q 543 176 479 134 q 633 218 606 218 q 700 188 673 218 q 728 123 728 159 q 609 -1 728 55 q 443 -49 509 -49 z "},"¡":{"ha":330,"x_min":84,"x_max":282,"o":"m 191 888 q 116 931 151 888 q 84 1005 84 971 q 113 1065 84 1040 q 174 1088 139 1088 q 250 1045 215 1088 q 282 970 282 1005 q 254 911 282 935 q 191 888 227 888 m 260 39 q 235 -21 260 3 q 172 -45 210 -45 q 110 -21 134 -45 q 85 39 85 3 l 85 759 q 110 819 85 795 q 172 842 134 842 q 235 819 210 842 q 260 759 260 795 q 262 680 260 732 q 263 601 263 627 q 262 320 263 507 q 260 39 260 132 z "},"¬":{"ha":848,"x_min":103,"x_max":745,"o":"m 739 203 q 714 149 739 170 q 651 127 689 127 q 588 149 613 127 q 564 203 564 170 q 563 353 564 294 q 235 342 294 342 q 150 358 187 342 q 103 418 103 379 q 146 507 103 472 q 235 540 186 540 q 379 542 283 540 q 523 545 475 545 q 564 546 536 545 q 606 547 592 547 q 696 510 652 547 q 744 422 743 471 q 742 313 745 397 q 739 203 739 220 z "},"√":{"ha":844,"x_min":7,"x_max":843,"o":"m 699 922 q 645 925 678 922 q 592 929 606 928 q 529 634 570 853 q 389 174 502 492 q 336 16 372 121 q 248 -47 311 -47 q 174 -16 203 -47 q 60 146 117 27 q 7 311 7 258 q 73 384 7 387 q 227 159 128 382 q 311 435 236 189 q 374 672 358 589 q 409 856 404 832 q 465 1035 432 958 q 557 1097 492 1097 q 651 1101 595 1097 q 745 1105 707 1105 q 815 1080 787 1105 q 843 1015 843 1055 q 699 922 843 922 z "},"ƒ":{"ha":818,"x_min":-47,"x_max":854,"o":"m 725 883 q 509 595 583 883 q 613 600 579 600 q 732 526 732 600 q 665 431 732 450 q 537 423 639 423 q 463 418 523 423 q 417 186 460 410 q 351 -41 390 47 q 222 -180 317 -117 q 41 -245 125 -245 q -24 -217 2 -245 q -47 -155 -47 -191 q 22 -72 -47 -90 q 166 10 122 -46 q 227 168 202 56 q 274 404 242 247 q 210 401 239 401 q 127 473 127 401 q 196 567 127 544 q 323 582 231 579 q 449 899 385 802 q 744 1059 557 1059 q 854 987 854 1059 q 725 883 854 883 z "},"≈":{"ha":848,"x_min":26,"x_max":814,"o":"m 612 486 q 467 534 530 486 q 366 640 434 559 l 353 657 q 250 557 312 657 q 176 515 222 515 q 117 536 142 515 q 89 591 89 559 q 98 627 89 608 q 195 751 135 701 q 353 813 269 813 q 466 771 416 813 q 538 691 470 767 q 616 644 578 647 q 638 697 620 644 q 729 789 669 789 q 814 699 814 789 q 759 559 814 625 q 612 486 697 486 m 549 167 q 404 215 468 167 q 303 321 371 241 l 290 338 q 187 239 250 338 q 114 196 160 196 q 54 217 80 196 q 26 273 26 240 q 36 308 26 289 q 133 433 73 382 q 290 494 207 494 q 404 452 354 494 q 476 372 408 448 q 553 326 516 328 q 576 379 557 326 q 667 470 606 470 q 752 380 752 470 q 696 240 752 307 q 549 167 635 167 z "},"Δ":{"ha":1103,"x_min":10,"x_max":1084,"o":"m 951 -49 q 812 -39 900 -49 q 671 -27 710 -29 q 564 -25 624 -25 q 414 -26 513 -25 q 264 -28 315 -28 q 178 -32 235 -28 q 92 -37 121 -37 q 10 36 10 -37 q 95 242 10 71 q 205 465 151 354 q 364 845 297 681 q 441 1036 387 910 q 555 1128 487 1128 q 650 1058 610 1128 q 701 945 676 1001 q 874 581 788 762 q 1036 212 975 368 q 1084 54 1084 92 q 951 -49 1084 -49 m 559 818 q 405 446 476 608 q 268 153 361 345 q 565 155 418 155 q 768 147 688 155 q 879 134 805 142 q 726 479 821 281 q 559 818 642 648 z "},"«":{"ha":887,"x_min":5,"x_max":882,"o":"m 852 566 q 674 404 795 511 q 833 260 726 354 q 866 199 866 234 q 840 142 866 167 q 778 117 814 117 q 683 165 740 117 q 604 241 644 203 q 484 323 540 303 q 415 397 415 347 q 476 472 415 445 q 612 570 537 498 q 734 685 714 669 q 793 707 763 707 q 855 682 829 707 q 882 625 882 657 q 852 566 882 593 m 444 580 q 264 417 386 524 q 423 274 316 368 q 456 213 456 248 q 431 155 456 180 q 369 130 405 130 q 274 178 331 130 l 195 254 q 74 336 132 315 q 5 411 5 359 q 66 485 5 458 q 202 584 127 511 q 326 699 305 683 q 383 720 353 720 q 446 695 419 720 q 472 637 472 670 q 444 580 472 606 z "},"»":{"ha":887,"x_min":5,"x_max":882,"o":"m 35 566 q 213 404 92 511 q 54 260 161 354 q 21 199 21 234 q 47 142 21 167 q 109 117 73 117 q 204 165 147 117 q 283 241 243 203 q 404 323 347 303 q 472 397 472 347 q 411 472 472 445 q 275 570 350 498 q 153 685 173 669 q 94 707 124 707 q 32 682 58 707 q 5 625 5 657 q 35 566 5 593 m 444 580 q 623 417 501 524 q 464 274 571 368 q 431 213 431 248 q 456 155 431 180 q 518 130 482 130 q 613 178 556 130 l 692 254 q 813 336 755 315 q 882 411 882 359 q 821 485 882 458 q 685 584 760 511 q 562 699 582 683 q 504 720 534 720 q 441 695 468 720 q 415 637 415 670 q 444 580 415 606 z "},"…":{"ha":938,"x_min":94,"x_max":869,"o":"m 767 -41 q 707 -29 734 -41 q 672 16 672 -14 q 678 37 672 24 q 684 56 684 50 q 776 109 693 109 q 836 96 808 109 q 869 51 869 81 q 850 -7 869 18 q 767 -41 823 -41 m 472 -40 q 412 -28 439 -40 q 379 18 379 -12 l 379 50 q 412 95 379 79 q 472 107 439 107 q 531 95 505 107 q 564 50 564 79 l 564 18 q 531 -28 564 -12 q 472 -40 505 -40 m 186 -45 q 127 -33 153 -45 q 94 12 94 -18 l 94 40 q 127 85 94 69 q 186 98 153 98 q 246 85 220 98 q 279 40 279 69 l 279 12 q 245 -33 279 -18 q 186 -45 220 -45 z "}," ":{"ha":661,"x_min":0,"x_max":0,"o":""},"À":{"ha":1016,"x_min":89,"x_max":971,"o":"m 875 -20 q 767 106 821 -18 q 705 290 731 186 q 541 275 655 283 q 377 258 434 268 q 269 33 346 183 q 186 -16 239 -16 q 119 10 149 -16 q 89 75 89 35 q 188 309 89 109 q 180 349 178 330 q 245 399 182 381 q 460 745 342 566 q 669 1002 629 1002 q 768 912 743 1002 q 811 694 782 840 q 912 248 852 499 q 947 158 917 229 q 971 71 971 100 q 942 5 971 31 q 875 -20 912 -22 m 622 675 q 476 428 569 585 q 571 439 507 435 q 667 446 647 444 q 622 675 650 534 m 709 1111 q 638 1145 666 1111 q 573 1228 606 1187 q 492 1301 536 1272 q 455 1361 455 1326 q 480 1415 455 1391 q 543 1438 506 1438 q 700 1333 598 1438 q 800 1185 800 1231 q 772 1133 800 1154 q 709 1111 745 1111 z "},"Ã":{"ha":1016,"x_min":89,"x_max":1036,"o":"m 875 -20 q 767 106 821 -18 q 705 290 731 186 q 541 275 655 283 q 377 258 434 268 q 269 33 346 183 q 186 -16 239 -16 q 119 10 149 -16 q 89 75 89 35 q 188 309 89 109 q 180 349 178 330 q 245 399 182 381 q 460 745 342 566 q 669 1002 629 1002 q 768 912 743 1002 q 811 694 782 840 q 912 248 852 499 q 947 158 917 229 q 971 71 971 100 q 942 5 971 31 q 875 -20 912 -22 m 622 675 q 476 428 569 585 q 571 439 507 435 q 667 446 647 444 q 622 675 650 534 m 951 1147 q 836 1108 906 1108 q 708 1130 756 1108 q 620 1202 663 1150 q 573 1232 595 1232 q 507 1182 536 1232 q 433 1133 479 1133 q 378 1150 401 1133 q 353 1196 353 1168 q 357 1215 353 1204 q 434 1318 378 1278 q 573 1360 494 1360 q 682 1334 641 1360 q 754 1266 707 1319 q 814 1236 781 1236 q 857 1255 842 1236 q 880 1294 868 1275 q 892 1326 883 1305 q 958 1355 909 1355 q 1013 1337 991 1355 q 1036 1291 1036 1318 q 1004 1214 1036 1266 q 951 1147 974 1166 z "},"Õ":{"ha":1109,"x_min":79,"x_max":1104,"o":"m 571 -41 q 229 74 370 -41 q 79 393 79 197 q 223 814 79 624 q 631 1027 385 1027 q 986 919 868 1027 q 1104 593 1104 810 q 971 175 1104 362 q 571 -41 818 -41 m 631 844 q 372 697 480 844 q 271 393 271 560 q 359 210 271 281 q 571 142 443 142 q 820 289 720 142 q 911 593 911 422 q 848 791 911 735 q 631 844 787 844 m 966 1148 q 850 1109 921 1109 q 723 1131 771 1109 q 635 1204 678 1152 q 588 1233 610 1233 q 522 1184 551 1233 q 448 1135 494 1135 q 393 1152 416 1135 q 368 1197 368 1170 q 372 1216 368 1206 q 449 1319 393 1279 q 588 1361 509 1361 q 697 1335 656 1361 q 769 1267 722 1320 q 829 1238 796 1238 q 872 1257 857 1238 q 895 1295 883 1276 q 907 1327 898 1306 q 972 1356 924 1356 q 1028 1338 1006 1356 q 1050 1293 1050 1320 q 1019 1215 1050 1267 q 966 1148 989 1167 z "},"Œ":{"ha":1658,"x_min":61,"x_max":1675,"o":"m 1581 884 q 1553 888 1568 884 q 1339 919 1441 919 q 1231 911 1289 919 q 1106 886 1173 903 q 1108 863 1107 875 q 1109 838 1109 851 q 1100 618 1109 745 q 1365 643 1138 621 q 1529 656 1495 656 q 1597 630 1569 656 q 1626 563 1626 605 q 1540 471 1626 482 q 1377 458 1486 467 q 1087 431 1281 447 q 1083 292 1083 357 q 1099 141 1083 159 q 1183 132 1106 132 q 1310 135 1225 132 q 1437 137 1395 137 q 1477 141 1451 137 q 1516 144 1503 144 q 1584 122 1556 144 q 1616 52 1616 97 q 1536 -39 1616 -24 q 1255 -52 1472 -52 q 1016 -22 1085 -52 q 907 117 932 13 q 746 -2 835 38 q 553 -42 658 -42 q 212 74 353 -42 q 61 394 61 197 q 205 817 61 625 q 614 1031 368 1031 q 779 1016 706 1031 q 906 970 852 1000 l 906 978 q 930 1052 905 1023 q 1000 1081 955 1081 q 1056 1065 1031 1081 q 1205 1094 1135 1084 q 1339 1104 1276 1104 q 1613 1064 1508 1104 q 1675 978 1675 1040 q 1651 916 1675 943 q 1581 884 1624 884 m 614 846 q 355 699 463 846 q 254 394 254 562 q 341 210 254 281 q 553 142 425 142 q 802 290 703 142 q 894 595 894 424 q 830 793 894 738 q 614 846 769 846 z "},"œ":{"ha":1246,"x_min":24,"x_max":1246,"o":"m 896 -32 q 595 77 699 -32 q 349 -40 501 -40 q 133 46 223 -40 q 29 298 34 140 q 111 565 24 448 q 398 703 214 703 q 618 590 541 703 q 878 709 718 709 q 1074 670 996 709 q 1176 514 1176 620 q 1093 382 1176 439 q 940 305 1055 356 l 711 204 q 896 133 777 133 q 998 149 939 133 q 1086 192 1068 167 q 1158 238 1118 238 q 1220 214 1193 238 q 1246 157 1246 190 q 1116 20 1246 79 q 896 -32 1001 -32 m 878 544 q 698 376 751 544 q 850 442 774 409 q 996 519 942 484 q 878 544 952 544 m 389 525 q 258 449 306 526 q 217 298 217 385 q 263 174 217 217 q 349 138 300 138 q 451 179 408 138 q 504 306 500 225 q 389 525 513 524 z "},"–":{"ha":613,"x_min":3,"x_max":589,"o":"m 494 369 q 382 373 457 369 q 269 377 307 377 q 183 373 240 377 q 97 369 125 369 q 30 389 57 369 q 3 439 3 408 q 106 509 3 495 q 269 515 142 515 q 382 511 307 515 q 494 507 457 507 q 562 487 535 507 q 589 437 589 467 q 562 389 589 408 q 494 369 535 369 z "},"—":{"ha":1226,"x_min":18,"x_max":1185,"o":"m 1040 370 q 980 371 1022 370 q 920 372 939 372 l 115 370 q 46 389 73 370 q 18 438 18 408 q 109 505 18 501 q 265 507 139 507 q 514 504 348 507 q 762 500 680 500 q 1050 506 1031 500 l 1099 507 q 1162 488 1138 507 q 1185 443 1185 470 q 1136 386 1185 406 q 1040 370 1096 370 z "},"“":{"ha":602,"x_min":21,"x_max":555,"o":"m 465 739 q 378 795 399 739 q 336 909 357 852 q 306 1019 306 991 q 334 1074 306 1053 q 397 1095 361 1095 q 484 1034 467 1095 q 524 920 488 1019 q 555 815 555 840 q 528 761 555 783 q 465 739 500 739 m 172 741 q 90 789 114 741 q 52 896 80 809 q 21 1004 21 988 q 50 1059 21 1037 q 113 1080 77 1080 q 197 1024 176 1080 q 233 915 202 1009 q 263 817 263 821 q 236 763 263 785 q 172 741 209 741 z "},"”":{"ha":602,"x_min":35,"x_max":568,"o":"m 125 739 q 211 795 190 739 q 254 909 232 852 q 283 1019 283 991 q 256 1074 283 1053 q 192 1095 229 1095 q 106 1034 122 1095 q 65 920 102 1019 q 35 815 35 840 q 62 761 35 783 q 125 739 89 739 m 417 741 q 499 789 475 741 q 538 896 509 809 q 568 1004 568 988 q 540 1058 568 1037 q 476 1080 512 1080 q 393 1024 413 1080 q 357 915 387 1009 q 326 817 326 821 q 353 763 326 785 q 417 741 380 741 z "},"‘":{"ha":314,"x_min":52,"x_max":246,"o":"m 163 742 q 98 772 123 742 q 76 821 80 794 q 52 993 52 969 q 75 1053 52 1029 q 135 1076 98 1076 q 222 1001 210 1076 q 246 825 246 857 q 223 765 246 789 q 163 742 200 742 z "},"’":{"ha":314,"x_min":52,"x_max":246,"o":"m 136 742 q 200 772 175 742 q 222 821 218 794 q 246 993 246 969 q 223 1053 246 1029 q 163 1076 201 1076 q 76 1001 88 1076 q 52 825 52 857 q 75 765 52 789 q 136 742 98 742 z "},"÷":{"ha":848,"x_min":104,"x_max":745,"o":"m 404 612 q 341 635 366 612 q 316 692 316 658 q 341 751 316 728 q 406 773 367 773 q 468 750 443 773 q 493 692 493 727 q 468 634 493 656 q 404 612 442 612 m 659 355 q 634 357 650 355 q 610 359 618 359 q 423 355 547 359 q 236 351 298 351 q 150 370 187 351 q 104 434 104 392 q 146 504 104 488 q 236 513 171 513 q 355 517 275 513 q 474 521 434 521 q 498 519 482 521 q 524 518 515 518 q 565 519 537 518 q 606 521 592 521 q 745 437 745 521 q 720 380 745 405 q 659 355 696 355 m 416 127 q 354 151 380 127 q 329 208 329 174 q 354 265 329 241 q 416 289 380 289 q 478 265 452 289 q 504 208 504 241 q 478 151 504 174 q 416 127 452 127 z "},"◊":{"ha":1003,"x_min":14,"x_max":997,"o":"m 958 456 q 784 247 895 400 q 625 22 705 135 q 524 -56 569 -56 q 446 -14 479 -56 q 56 404 214 286 q 14 479 14 435 q 178 775 14 535 q 384 1057 307 963 q 479 1109 427 1109 q 542 1078 513 1109 q 641 961 581 1037 q 762 815 707 876 q 895 676 829 746 q 997 537 997 566 q 958 456 997 491 m 525 796 q 471 867 508 818 q 231 500 418 800 q 516 201 363 383 q 762 531 603 323 q 525 796 650 636 z "},"ÿ":{"ha":768,"x_min":4,"x_max":755,"o":"m 743 573 q 509 90 669 419 q 377 -204 422 -87 q 332 -329 363 -246 q 245 -393 308 -393 q 178 -368 207 -393 q 149 -304 149 -342 q 292 69 149 -241 q 56 503 218 216 q 22 555 39 528 q 4 612 4 586 q 33 676 4 648 q 100 704 62 704 q 170 671 145 704 q 395 285 267 543 q 483 479 467 446 q 577 656 531 580 q 657 705 606 705 q 725 680 695 705 q 755 616 755 654 q 743 573 755 597 m 541 789 q 465 811 500 789 q 423 876 423 837 q 564 971 423 971 q 637 947 601 971 q 678 880 678 919 q 632 810 678 835 q 541 789 594 789 m 248 789 q 122 886 122 789 q 164 947 122 918 q 241 973 203 973 q 371 876 372 973 q 323 814 371 842 q 248 789 282 789 z "},"Ÿ":{"ha":882,"x_min":20,"x_max":885,"o":"m 846 837 q 707 529 811 766 q 559 218 620 331 q 446 12 453 23 q 353 -47 406 -47 q 288 -23 316 -47 q 256 44 256 4 q 398 323 256 77 q 248 552 346 399 q 33 892 175 665 q 20 940 20 915 q 50 1006 20 979 q 117 1031 79 1031 q 198 986 161 1031 l 249 905 q 366 707 254 897 q 490 515 436 585 q 639 829 542 618 q 700 970 659 876 q 788 1031 726 1031 q 854 1007 825 1031 q 885 941 885 981 q 846 837 885 918 m 633 1098 q 558 1120 593 1098 q 516 1185 516 1145 q 657 1280 516 1280 q 730 1255 694 1280 q 771 1189 771 1227 q 725 1118 771 1143 q 633 1098 687 1098 m 341 1098 q 215 1194 215 1098 q 257 1255 215 1227 q 334 1282 296 1282 q 464 1184 465 1282 q 416 1122 464 1150 q 341 1098 375 1098 z "},"⁄":{"ha":1126,"x_min":-9,"x_max":1114,"o":"m 1101 1017 q 1040 945 1082 985 q 974 877 987 893 q 764 622 824 692 q 536 381 643 481 q 347 179 491 338 q 148 -14 232 51 q 86 -37 118 -37 q 19 -9 47 -37 q -9 56 -9 19 q 22 121 -9 91 q 163 257 70 165 q 304 408 234 332 q 451 552 387 495 q 674 802 540 631 q 893 1057 817 983 l 945 1118 q 1016 1153 977 1153 q 1084 1127 1054 1153 q 1114 1063 1114 1101 q 1101 1017 1114 1040 z "},"€":{"ha":859,"x_min":-79,"x_max":843,"o":"m 843 821 q 823 759 843 787 q 749 722 798 722 q 659 787 688 722 q 631 823 645 817 q 578 828 621 828 q 380 695 492 828 l 374 688 q 447 690 395 688 q 524 692 490 692 q 587 671 564 692 q 608 624 608 652 q 587 577 608 597 q 524 556 564 556 q 436 554 489 556 q 347 552 382 552 q 283 555 323 552 q 248 479 262 516 q 382 482 396 482 q 446 461 422 482 q 467 415 467 442 q 446 368 467 387 q 382 347 422 347 q 301 345 348 347 q 224 343 250 343 q 275 219 225 271 q 392 168 324 168 q 528 203 459 168 q 631 269 553 216 q 711 304 684 304 q 781 275 752 304 q 807 211 807 247 q 772 141 807 171 q 392 -16 585 -16 q 134 95 239 -16 q 34 347 34 201 l 34 350 l 6 350 q -58 371 -34 350 q -79 418 -79 390 q -58 464 -79 445 q 6 486 -34 486 l 52 486 q 77 559 62 522 l 12 559 q -52 581 -28 559 q -73 627 -73 600 q -52 673 -73 654 q 12 694 -28 694 l 146 694 q 233 811 184 753 q 578 1012 401 1012 q 674 1004 637 1012 q 746 1033 704 1033 q 831 954 815 1033 q 843 821 843 897 z "},"‹":{"ha":848,"x_min":163,"x_max":629,"o":"m 600 581 q 422 418 543 524 q 580 275 473 368 q 614 214 614 248 q 588 156 614 181 q 526 132 562 132 q 431 180 488 132 l 352 256 q 231 336 289 316 q 163 412 163 360 q 224 485 163 458 q 359 584 285 512 q 482 699 461 683 q 541 720 510 720 q 603 695 576 720 q 629 638 629 671 q 600 581 629 606 z "},"›":{"ha":848,"x_min":199,"x_max":713,"o":"m 678 387 q 336 141 515 246 q 286 126 311 126 q 224 151 250 126 q 199 209 199 176 q 235 273 199 246 q 471 437 315 326 q 321 562 393 493 q 230 682 230 647 q 257 739 230 715 q 320 763 285 763 q 386 733 357 763 q 658 519 538 577 q 713 450 713 493 q 678 387 713 416 z "},"ﬁ":{"ha":915,"x_min":24,"x_max":869,"o":"m 763 817 q 688 846 720 817 q 656 918 656 876 q 688 989 656 960 q 763 1019 720 1019 q 838 990 806 1019 q 869 918 869 960 q 838 846 869 876 q 763 817 806 817 m 391 696 q 675 718 663 718 q 821 621 821 718 q 814 468 821 559 q 807 316 807 377 q 809 200 807 277 q 812 83 812 122 q 785 18 812 44 q 718 -8 759 -8 q 651 18 677 -8 q 625 83 625 44 q 622 200 625 122 q 620 316 620 277 l 631 539 q 608 540 617 540 q 384 526 578 540 q 380 402 380 422 q 382 281 380 362 q 385 161 385 201 q 370 -36 385 37 q 280 -109 354 -109 q 214 -84 242 -109 q 186 -22 186 -60 q 187 -5 186 -14 q 201 174 201 80 q 200 334 201 201 q 199 511 199 450 q 119 507 148 507 q 51 531 78 507 q 24 596 24 555 q 90 679 24 659 q 209 690 120 688 q 218 767 210 703 q 523 1082 257 1082 q 602 1073 580 1082 q 644 1004 644 1057 q 530 911 644 911 q 421 850 450 911 q 393 713 406 817 l 391 696 z "},"ﬂ":{"ha":911,"x_min":20,"x_max":867,"o":"m 860 532 q 850 208 860 450 q 844 56 850 156 q 751 -33 835 -33 q 683 -6 709 -33 q 657 60 657 20 q 665 296 657 138 q 672 532 672 453 q 675 744 672 631 q 679 937 678 871 q 671 937 675 937 q 440 896 490 937 q 393 741 404 865 q 389 696 391 733 q 510 703 477 703 q 645 611 645 703 q 526 523 645 523 q 491 524 513 523 q 458 525 468 525 q 380 519 440 525 q 380 470 380 498 q 382 316 380 430 q 385 161 385 201 q 370 -36 385 37 q 280 -109 354 -109 q 214 -84 241 -109 q 186 -22 186 -60 q 194 72 186 7 q 201 174 201 136 q 199 336 201 212 q 196 505 196 454 q 116 500 136 500 q 47 525 75 500 q 20 589 20 549 q 87 672 20 652 q 205 684 117 681 q 241 925 215 857 q 367 1052 275 1015 q 667 1096 460 1088 q 720 1094 684 1097 q 772 1091 759 1091 q 840 1066 813 1091 q 867 1001 867 1040 q 863 766 867 899 q 860 532 860 634 z "},"‡":{"ha":829,"x_min":12,"x_max":817,"o":"m 713 733 q 581 726 676 726 q 491 728 546 726 q 481 476 483 563 q 665 469 597 476 q 751 380 751 460 q 725 315 751 342 q 659 288 699 288 q 569 291 625 288 q 479 294 501 294 l 479 -50 q 452 -115 479 -90 q 385 -141 425 -141 q 317 -115 344 -141 q 290 -50 290 -90 l 290 300 l 273 300 q 169 290 217 300 q 146 288 155 288 q 80 315 106 288 q 54 380 54 343 q 250 481 54 481 q 292 480 267 481 q 302 732 293 534 q 181 730 201 730 q 12 827 12 730 q 38 892 12 865 q 105 919 64 919 q 171 916 127 919 q 237 912 214 912 q 310 913 271 912 q 313 1060 313 998 q 339 1125 313 1099 q 407 1151 366 1151 q 474 1125 448 1151 q 501 1060 501 1099 q 498 909 501 993 q 576 907 548 907 q 651 913 601 907 q 725 919 701 919 q 791 891 766 919 q 817 827 817 864 q 713 733 817 753 z "},"·":{"ha":848,"x_min":307,"x_max":530,"o":"m 419 394 q 340 422 374 394 q 307 486 307 450 q 340 550 307 522 q 419 579 374 579 q 498 552 467 579 q 530 486 530 525 q 497 422 530 450 q 419 394 465 394 z "},"‚":{"ha":602,"x_min":146,"x_max":405,"o":"m 359 -84 q 307 -189 326 -151 q 233 -233 283 -233 q 172 -211 197 -233 q 146 -158 146 -188 q 190 -53 146 -140 q 248 56 229 24 q 319 96 273 96 q 380 73 355 96 q 405 20 405 50 q 359 -84 405 7 z "},"„":{"ha":597,"x_min":38,"x_max":568,"o":"m 522 -84 q 469 -189 489 -151 q 395 -233 446 -233 q 334 -211 359 -233 q 309 -158 309 -188 q 353 -53 309 -140 q 411 56 391 24 q 481 96 436 96 q 543 73 517 96 q 568 20 568 50 q 522 -84 568 7 m 251 -84 q 198 -189 218 -151 q 124 -233 175 -233 q 63 -211 88 -233 q 38 -158 38 -188 q 81 -53 38 -140 q 140 56 120 24 q 210 96 165 96 q 271 73 246 96 q 296 20 296 50 q 251 -84 296 7 z "},"‰":{"ha":1724,"x_min":73,"x_max":1634,"o":"m 1371 -12 q 1199 48 1268 -12 q 1127 210 1127 111 q 1190 386 1127 315 q 1370 462 1258 462 q 1548 406 1471 462 q 1634 245 1634 345 q 1561 63 1634 136 q 1371 -12 1486 -12 m 300 673 q 131 745 193 673 q 73 911 73 811 q 151 1052 73 987 q 302 1114 225 1114 q 479 1042 413 1114 q 542 871 542 975 q 463 723 542 779 q 300 673 393 673 m 860 962 q 807 860 836 923 q 760 756 766 770 q 626 482 713 665 q 473 176 575 380 q 404 27 452 125 q 330 -20 377 -20 q 271 1 296 -20 q 244 58 244 25 q 347 299 244 96 l 471 545 q 654 932 535 673 q 790 1088 720 1088 q 850 1064 824 1088 q 876 1008 876 1041 q 860 962 876 988 m 854 -14 q 682 46 751 -14 q 610 208 610 109 q 673 384 610 313 q 853 460 741 460 q 1031 404 954 460 q 1118 243 1118 342 q 1044 60 1118 134 q 854 -14 969 -14 m 1370 302 q 1314 279 1333 302 q 1295 210 1295 256 q 1318 164 1295 180 q 1386 149 1341 149 q 1451 172 1433 149 q 1467 245 1467 193 q 1437 285 1467 269 q 1370 302 1408 302 m 300 953 q 259 939 278 953 q 240 911 240 926 q 255 852 240 872 q 300 833 271 833 q 355 842 337 833 q 374 871 374 852 q 355 932 374 912 q 300 953 337 953 m 853 300 q 797 277 816 300 q 779 208 779 254 q 801 162 779 178 q 869 146 824 146 q 934 170 916 146 q 950 243 950 191 q 921 283 950 267 q 853 300 891 300 z "},"Â":{"ha":1016,"x_min":89,"x_max":971,"o":"m 875 -20 q 767 106 821 -18 q 705 290 731 186 q 541 275 655 283 q 377 258 434 268 q 269 33 346 183 q 186 -16 239 -16 q 119 10 149 -16 q 89 75 89 35 q 188 309 89 109 q 180 349 178 330 q 245 399 182 381 q 460 745 342 566 q 669 1002 629 1002 q 768 912 743 1002 q 811 694 782 840 q 912 248 852 499 q 947 158 917 229 q 971 71 971 100 q 942 5 971 31 q 875 -20 912 -22 m 622 675 q 476 428 569 585 q 571 439 507 435 q 667 446 647 444 q 622 675 650 534 m 873 1121 q 811 1145 840 1121 q 663 1280 763 1191 q 439 1107 498 1107 q 377 1131 404 1107 q 351 1185 351 1154 q 380 1240 351 1216 q 585 1437 416 1271 q 646 1463 611 1463 q 747 1422 691 1463 q 829 1350 766 1408 q 938 1250 866 1317 q 962 1198 962 1226 q 936 1144 962 1167 q 873 1121 909 1121 z "},"Ê":{"ha":867,"x_min":64,"x_max":846,"o":"m 752 869 q 724 873 739 869 q 510 903 614 903 q 401 895 459 903 q 277 871 342 887 q 271 603 277 781 q 536 628 309 606 q 700 641 665 641 q 768 615 740 641 q 797 548 797 590 q 711 456 797 467 q 549 443 656 452 q 258 416 452 432 q 254 277 254 330 q 269 126 254 144 q 355 117 277 117 q 481 119 397 117 q 608 121 566 121 q 648 125 622 121 q 688 130 675 130 q 755 107 727 130 q 787 37 787 82 q 707 -54 787 -39 q 426 -67 640 -67 q 138 -7 205 -67 q 64 277 64 58 q 77 550 64 368 q 90 823 90 732 q 83 893 90 846 q 77 963 77 939 q 172 1066 77 1066 q 227 1049 201 1066 q 376 1079 305 1069 q 510 1088 447 1088 q 783 1049 681 1088 q 846 963 846 1025 q 821 901 846 928 q 752 869 794 869 m 695 1189 q 633 1213 662 1189 q 486 1348 585 1259 q 262 1175 321 1175 q 199 1199 226 1175 q 173 1253 173 1222 q 202 1308 173 1284 q 407 1505 238 1339 q 469 1531 433 1531 q 569 1490 513 1531 q 652 1418 589 1476 q 760 1318 688 1385 q 785 1266 785 1294 q 758 1212 785 1235 q 695 1189 731 1189 z "},"Á":{"ha":1016,"x_min":89,"x_max":971,"o":"m 875 -20 q 767 106 821 -18 q 705 290 731 186 q 541 275 655 283 q 377 258 434 268 q 269 33 346 183 q 186 -16 239 -16 q 119 10 149 -16 q 89 75 89 35 q 188 309 89 109 q 180 349 178 330 q 245 399 182 381 q 460 745 342 566 q 669 1002 629 1002 q 768 912 743 1002 q 811 694 782 840 q 912 248 852 499 q 947 158 917 229 q 971 71 971 100 q 942 5 971 31 q 875 -20 912 -22 m 622 675 q 476 428 569 585 q 571 439 507 435 q 667 446 647 444 q 622 675 650 534 m 894 1293 q 876 1281 894 1293 q 805 1210 858 1268 q 717 1125 749 1149 q 659 1105 690 1105 q 596 1128 623 1105 q 570 1182 570 1152 q 598 1237 570 1207 q 648 1283 623 1260 q 733 1374 720 1362 q 842 1430 795 1430 q 904 1406 878 1430 q 930 1352 930 1382 q 894 1293 930 1318 z "},"Ë":{"ha":867,"x_min":64,"x_max":846,"o":"m 752 869 q 724 873 739 869 q 510 903 614 903 q 401 895 459 903 q 277 871 342 887 q 271 603 277 781 q 536 628 309 606 q 700 641 665 641 q 768 615 740 641 q 797 548 797 590 q 711 456 797 467 q 549 443 656 452 q 258 416 452 432 q 254 277 254 330 q 269 126 254 144 q 355 117 277 117 q 481 119 397 117 q 608 121 566 121 q 648 125 622 121 q 688 130 675 130 q 755 107 727 130 q 787 37 787 82 q 707 -54 787 -39 q 426 -67 640 -67 q 138 -7 205 -67 q 64 277 64 58 q 77 550 64 368 q 90 823 90 732 q 83 893 90 846 q 77 963 77 939 q 172 1066 77 1066 q 227 1049 201 1066 q 376 1079 305 1069 q 510 1088 447 1088 q 783 1049 681 1088 q 846 963 846 1025 q 821 901 846 928 q 752 869 794 869 m 616 1175 q 541 1196 576 1175 q 499 1261 499 1222 q 640 1356 499 1356 q 713 1332 677 1356 q 754 1265 754 1304 q 708 1195 754 1220 q 616 1175 670 1175 m 324 1175 q 198 1271 198 1175 q 240 1332 198 1303 q 317 1358 279 1358 q 447 1261 448 1358 q 399 1199 447 1227 q 324 1175 358 1175 z "},"È":{"ha":867,"x_min":64,"x_max":846,"o":"m 752 869 q 724 873 739 869 q 510 903 614 903 q 401 895 459 903 q 277 871 342 887 q 271 603 277 781 q 536 628 309 606 q 700 641 665 641 q 768 615 740 641 q 797 548 797 590 q 711 456 797 467 q 549 443 656 452 q 258 416 452 432 q 254 277 254 330 q 269 126 254 144 q 355 117 277 117 q 481 119 397 117 q 608 121 566 121 q 648 125 622 121 q 688 130 675 130 q 755 107 727 130 q 787 37 787 82 q 707 -54 787 -39 q 426 -67 640 -67 q 138 -7 205 -67 q 64 277 64 58 q 77 550 64 368 q 90 823 90 732 q 83 893 90 846 q 77 963 77 939 q 172 1066 77 1066 q 227 1049 201 1066 q 376 1079 305 1069 q 510 1088 447 1088 q 783 1049 681 1088 q 846 963 846 1025 q 821 901 846 928 q 752 869 794 869 m 537 1185 q 466 1219 494 1185 q 401 1302 433 1261 q 320 1375 364 1346 q 283 1435 283 1400 q 308 1489 283 1465 q 370 1512 334 1512 q 528 1407 426 1512 q 627 1259 627 1305 q 600 1206 627 1228 q 537 1185 572 1185 z "},"Í":{"ha":759,"x_min":24,"x_max":746,"o":"m 649 802 q 456 821 614 802 q 446 489 446 696 l 446 184 q 629 186 536 186 q 697 159 670 186 q 724 94 724 132 q 697 30 724 56 q 629 3 670 3 q 515 1 591 3 q 401 -1 439 -1 q 267 -13 357 -1 q 133 -24 178 -24 q 65 2 92 -24 q 39 67 39 29 q 65 132 39 105 q 133 159 92 159 q 254 170 179 159 q 253 476 253 250 q 267 828 253 661 l 119 824 q 51 850 79 824 q 24 916 24 877 q 51 981 24 956 q 113 1008 76 1004 q 320 1013 172 1013 q 663 985 453 1013 q 746 891 746 973 q 712 823 746 848 q 649 802 684 802 m 550 1293 q 532 1281 550 1293 q 461 1210 514 1268 q 373 1125 406 1149 q 315 1105 347 1105 q 252 1128 279 1105 q 226 1182 226 1152 q 254 1237 226 1207 q 304 1283 279 1260 q 389 1374 376 1362 q 498 1430 451 1430 q 561 1406 534 1430 q 587 1352 587 1382 q 550 1293 587 1318 z "},"Î":{"ha":759,"x_min":51,"x_max":773,"o":"m 676 802 q 483 821 641 802 q 473 489 473 696 l 473 184 q 656 186 563 186 q 724 159 697 186 q 751 94 751 132 q 724 30 751 56 q 656 3 697 3 q 543 1 618 3 q 429 -1 467 -1 q 294 -13 384 -1 q 160 -24 205 -24 q 93 2 119 -24 q 66 67 66 29 q 93 132 66 105 q 160 159 119 159 q 281 170 206 159 q 280 476 280 250 q 294 828 280 661 l 146 824 q 78 850 106 824 q 51 916 51 877 q 78 981 51 956 q 140 1008 103 1004 q 347 1013 199 1013 q 690 985 480 1013 q 773 891 773 973 q 739 823 773 848 q 676 802 711 802 m 643 1135 q 581 1158 610 1135 q 433 1294 533 1204 q 210 1121 269 1121 q 147 1144 174 1121 q 121 1199 121 1168 q 150 1254 121 1230 q 355 1451 186 1284 q 416 1476 381 1476 q 517 1436 461 1476 q 600 1364 536 1421 q 708 1263 636 1331 q 732 1212 732 1240 q 706 1158 732 1181 q 643 1135 679 1135 z "},"Ï":{"ha":759,"x_min":24,"x_max":746,"o":"m 649 802 q 456 821 614 802 q 446 489 446 696 l 446 184 q 629 186 536 186 q 697 159 670 186 q 724 94 724 132 q 697 30 724 56 q 629 3 670 3 q 515 1 591 3 q 401 -1 439 -1 q 267 -13 357 -1 q 133 -24 178 -24 q 65 2 92 -24 q 39 67 39 29 q 65 132 39 105 q 133 159 92 159 q 254 170 179 159 q 253 476 253 250 q 267 828 253 661 l 119 824 q 51 850 79 824 q 24 916 24 877 q 51 981 24 956 q 113 1008 76 1004 q 320 1013 172 1013 q 663 985 453 1013 q 746 891 746 973 q 712 823 746 848 q 649 802 684 802 m 530 1108 q 454 1130 490 1108 q 412 1195 412 1156 q 553 1290 412 1290 q 626 1265 590 1290 q 667 1199 667 1238 q 621 1128 667 1154 q 530 1108 583 1108 m 237 1108 q 111 1204 111 1108 q 153 1265 111 1237 q 230 1292 193 1292 q 360 1194 361 1292 q 313 1133 360 1160 q 237 1108 271 1108 z "},"Ì":{"ha":759,"x_min":51,"x_max":773,"o":"m 676 802 q 483 821 641 802 q 473 489 473 696 l 473 184 q 656 186 563 186 q 724 159 697 186 q 751 94 751 132 q 724 30 751 56 q 656 3 697 3 q 543 1 618 3 q 429 -1 467 -1 q 294 -13 384 -1 q 160 -24 205 -24 q 93 2 119 -24 q 66 67 66 29 q 93 132 66 105 q 160 159 119 159 q 281 170 206 159 q 280 476 280 250 q 294 828 280 661 l 146 824 q 78 850 106 824 q 51 916 51 877 q 78 981 51 956 q 140 1008 103 1004 q 347 1013 199 1013 q 690 985 480 1013 q 773 891 773 973 q 739 823 773 848 q 676 802 711 802 m 475 1098 q 404 1132 432 1098 q 339 1215 372 1174 q 258 1289 302 1259 q 221 1348 221 1313 q 247 1402 221 1378 q 309 1426 272 1426 q 466 1320 364 1426 q 566 1173 566 1218 q 538 1120 566 1141 q 475 1098 511 1098 z "},"Ó":{"ha":1109,"x_min":41,"x_max":1066,"o":"m 533 -41 q 191 74 332 -41 q 41 393 41 197 q 185 814 41 624 q 593 1027 347 1027 q 948 919 830 1027 q 1066 593 1066 810 q 933 175 1066 362 q 533 -41 780 -41 m 593 844 q 334 697 442 844 q 233 393 233 560 q 321 210 233 281 q 533 142 405 142 q 782 289 682 142 q 873 593 873 422 q 810 791 873 735 q 593 844 749 844 m 879 1297 q 861 1285 879 1297 q 790 1214 843 1272 q 702 1129 734 1153 q 644 1109 675 1109 q 581 1133 608 1109 q 555 1186 555 1156 q 583 1241 555 1211 q 633 1287 608 1264 q 718 1378 705 1367 q 827 1434 780 1434 q 889 1410 863 1434 q 916 1356 916 1386 q 879 1297 916 1322 z "},"Ô":{"ha":1109,"x_min":79,"x_max":1104,"o":"m 571 -41 q 229 74 370 -41 q 79 393 79 197 q 223 814 79 624 q 631 1027 385 1027 q 986 919 868 1027 q 1104 593 1104 810 q 971 175 1104 362 q 571 -41 818 -41 m 631 844 q 372 697 480 844 q 271 393 271 560 q 359 210 271 281 q 571 142 443 142 q 820 289 720 142 q 911 593 911 422 q 848 791 911 735 q 631 844 787 844 m 929 1104 q 867 1128 896 1104 q 720 1263 819 1174 q 496 1090 555 1090 q 433 1114 460 1090 q 407 1168 407 1137 q 436 1223 407 1199 q 641 1420 472 1254 q 703 1446 667 1446 q 803 1405 747 1446 q 886 1333 823 1391 q 994 1233 922 1300 q 1019 1181 1019 1209 q 992 1127 1019 1150 q 929 1104 965 1104 z "},"Ò":{"ha":1109,"x_min":79,"x_max":1104,"o":"m 571 -41 q 229 74 370 -41 q 79 393 79 197 q 223 814 79 624 q 631 1027 385 1027 q 986 919 868 1027 q 1104 593 1104 810 q 971 175 1104 362 q 571 -41 818 -41 m 631 844 q 372 697 480 844 q 271 393 271 560 q 359 210 271 281 q 571 142 443 142 q 820 289 720 142 q 911 593 911 422 q 848 791 911 735 q 631 844 787 844 m 803 1112 q 732 1146 760 1112 q 667 1230 699 1188 q 586 1303 630 1274 q 549 1362 549 1327 q 574 1416 549 1392 q 636 1440 600 1440 q 793 1335 692 1440 q 893 1187 893 1232 q 866 1134 893 1156 q 803 1112 838 1112 z "},"Ú":{"ha":1023,"x_min":53,"x_max":958,"o":"m 783 117 q 663 5 733 50 q 488 -49 578 -49 q 231 18 315 -49 q 53 505 53 158 q 56 604 53 538 q 60 703 60 670 q 61 782 60 730 q 62 861 62 835 q 82 964 62 916 q 156 1027 109 1027 q 222 1003 193 1027 q 253 937 253 977 q 252 820 253 898 q 251 702 251 741 q 248 604 251 669 q 244 505 244 538 q 269 310 244 400 q 352 159 297 202 q 488 136 380 137 q 729 441 667 133 q 762 888 762 600 q 784 962 762 926 q 871 1008 814 1008 q 940 975 917 1008 q 958 919 958 949 q 932 501 958 651 q 783 117 895 270 m 735 1302 q 717 1289 735 1302 q 646 1219 699 1277 q 558 1134 591 1158 q 500 1114 532 1114 q 437 1137 464 1114 q 411 1191 411 1160 q 439 1246 411 1216 q 489 1292 465 1269 q 574 1383 562 1371 q 684 1438 636 1438 q 746 1415 720 1438 q 772 1361 772 1391 q 735 1302 772 1326 z "},"Û":{"ha":1023,"x_min":53,"x_max":958,"o":"m 783 117 q 663 5 733 50 q 488 -49 578 -49 q 231 18 315 -49 q 53 505 53 158 q 56 604 53 538 q 60 703 60 670 q 61 782 60 730 q 62 861 62 835 q 82 964 62 916 q 156 1027 109 1027 q 222 1003 193 1027 q 253 937 253 977 q 252 820 253 898 q 251 702 251 741 q 248 604 251 669 q 244 505 244 538 q 269 310 244 400 q 352 159 297 202 q 488 136 380 137 q 729 441 667 133 q 762 888 762 600 q 784 962 762 926 q 871 1008 814 1008 q 940 975 917 1008 q 958 919 958 949 q 932 501 958 651 q 783 117 895 270 m 768 1114 q 706 1137 734 1114 q 558 1273 658 1183 q 334 1100 393 1100 q 272 1123 298 1100 q 245 1178 245 1147 q 275 1233 245 1208 q 479 1430 311 1263 q 541 1455 506 1455 q 642 1415 586 1455 q 724 1343 661 1400 q 833 1242 761 1310 q 857 1191 857 1219 q 830 1137 857 1160 q 768 1114 804 1114 z "},"Ù":{"ha":1023,"x_min":53,"x_max":958,"o":"m 783 117 q 663 5 733 50 q 488 -49 578 -49 q 231 18 315 -49 q 53 505 53 158 q 56 604 53 538 q 60 703 60 670 q 61 782 60 730 q 62 861 62 835 q 82 964 62 916 q 156 1027 109 1027 q 222 1003 193 1027 q 253 937 253 977 q 252 820 253 898 q 251 702 251 741 q 248 604 251 669 q 244 505 244 538 q 269 310 244 400 q 352 159 297 202 q 488 136 380 137 q 729 441 667 133 q 762 888 762 600 q 784 962 762 926 q 871 1008 814 1008 q 940 975 917 1008 q 958 919 958 949 q 932 501 958 651 q 783 117 895 270 m 617 1108 q 546 1142 574 1108 q 481 1225 513 1184 q 400 1299 444 1270 q 363 1358 363 1323 q 388 1412 363 1388 q 450 1436 414 1436 q 608 1331 506 1436 q 707 1183 707 1228 q 680 1130 707 1152 q 617 1108 652 1108 z "},"ı":{"ha":389,"x_min":94,"x_max":295,"o":"m 281 318 q 284 194 281 279 q 286 70 286 109 q 260 5 286 31 q 193 -20 233 -20 q 125 5 152 -20 q 99 70 99 31 q 97 194 99 109 q 94 318 94 279 q 101 469 94 378 q 108 621 108 560 q 134 685 108 660 q 201 711 161 711 q 269 685 242 711 q 295 621 295 660 q 288 469 295 560 q 281 318 281 378 z "},"ˆ":{"ha":772,"x_min":104,"x_max":716,"o":"m 627 804 q 565 828 593 804 q 417 964 517 874 q 193 791 252 791 q 131 814 157 791 q 104 869 104 838 q 134 924 104 899 q 338 1120 170 954 q 400 1146 365 1146 q 500 1105 445 1146 q 583 1034 520 1091 q 692 933 620 1000 q 716 882 716 909 q 689 827 716 850 q 627 804 663 804 z "},"˜":{"ha":772,"x_min":88,"x_max":770,"o":"m 686 841 q 570 802 641 802 q 443 824 491 802 q 355 897 398 844 q 308 926 330 926 q 242 877 271 926 q 168 827 214 827 q 113 844 136 827 q 88 890 88 863 q 92 909 88 899 q 169 1012 113 972 q 308 1054 229 1054 q 417 1028 376 1054 q 489 960 441 1013 q 549 930 516 930 q 592 949 577 930 q 614 988 603 969 q 627 1020 618 999 q 692 1049 644 1049 q 748 1031 726 1049 q 770 985 770 1013 q 739 908 770 960 q 686 841 709 860 z "},"ˉ":{"ha":772,"x_min":134,"x_max":713,"o":"m 623 780 q 576 777 604 777 l 433 777 q 335 779 401 777 q 237 780 270 780 q 166 801 196 780 q 134 859 134 824 q 280 939 134 939 q 360 937 307 939 q 441 935 414 935 q 523 936 468 935 q 606 937 578 937 q 677 919 646 937 q 713 858 713 897 q 623 780 713 792 z "},"˘":{"ha":772,"x_min":117,"x_max":746,"o":"m 743 983 q 607 835 733 882 q 388 800 515 800 q 201 860 281 800 q 117 1013 117 922 q 139 1059 117 1040 q 195 1078 161 1078 q 250 1059 228 1078 q 273 1013 273 1040 q 308 955 273 979 q 388 930 343 930 q 589 1004 566 930 q 665 1057 606 1057 q 724 1036 703 1057 q 743 983 746 1015 z "},"˙":{"ha":772,"x_min":187,"x_max":407,"o":"m 307 775 q 233 808 275 775 q 187 886 187 846 q 225 957 187 930 q 289 979 256 979 q 361 946 319 979 q 407 869 407 909 q 370 798 407 826 q 307 775 340 775 z "},"˚":{"ha":772,"x_min":151,"x_max":663,"o":"m 393 804 q 222 856 292 803 q 151 985 151 908 q 231 1139 151 1082 q 425 1192 307 1192 q 587 1145 519 1192 q 663 1008 663 1093 q 576 849 663 902 q 393 804 507 806 m 425 1056 q 307 985 305 1056 q 342 953 308 968 q 416 939 376 939 q 484 956 461 939 q 507 1008 507 974 q 483 1043 507 1029 q 425 1056 460 1056 z "},"¸":{"ha":772,"x_min":221,"x_max":614,"o":"m 422 -302 q 296 -275 357 -302 q 221 -191 221 -242 q 294 -135 221 -135 q 355 -150 321 -135 q 414 -164 390 -164 q 444 -156 434 -163 q 454 -134 454 -149 q 443 -102 454 -116 q 408 -80 431 -89 l 323 -52 q 277 9 277 -31 q 299 57 277 37 q 353 78 320 78 q 527 16 445 78 q 614 -130 614 -49 q 564 -256 614 -210 q 422 -302 514 -302 z "},"˝":{"ha":772,"x_min":115,"x_max":749,"o":"m 713 945 l 608 861 q 499 802 532 802 q 444 823 467 802 q 421 869 421 843 q 447 916 421 892 q 494 952 471 934 q 671 1064 627 1064 q 726 1043 704 1064 q 749 997 749 1023 q 713 945 749 968 m 425 974 q 340 901 399 946 q 254 827 279 852 q 195 802 229 802 q 139 822 163 802 q 115 868 115 841 q 196 967 115 896 q 308 1059 252 1013 q 366 1082 333 1082 q 421 1062 397 1082 q 445 1016 445 1043 q 425 974 445 994 z "},"˛":{"ha":772,"x_min":175,"x_max":584,"o":"m 363 -233 q 227 -174 283 -233 q 175 -53 175 -119 q 231 58 175 4 q 356 115 289 115 q 412 94 389 115 q 432 47 432 74 q 381 -15 432 9 q 330 -53 330 -38 q 343 -83 330 -68 q 363 -99 355 -99 q 468 -79 424 -99 q 507 -71 488 -71 q 562 -92 539 -71 q 584 -140 584 -113 q 494 -212 584 -184 q 363 -233 425 -233 z "},"ˇ":{"ha":772,"x_min":165,"x_max":674,"o":"m 648 958 q 407 798 447 798 q 349 821 376 798 q 308 863 329 842 q 222 946 265 905 q 165 1038 165 1008 q 191 1085 165 1065 q 246 1103 215 1103 q 312 1069 288 1103 q 416 958 338 1032 q 545 1057 458 992 q 595 1074 570 1074 q 651 1054 627 1074 q 674 1006 674 1034 q 648 958 674 979 z "},"Ł":{"ha":873,"x_min":3,"x_max":884,"o":"m 348 121 q 761 199 494 123 q 790 204 777 204 q 857 176 831 204 q 884 111 884 147 q 824 26 884 53 q 578 -37 745 -9 q 326 -63 425 -63 q 159 83 159 -63 q 175 353 159 126 l 162 349 q 131 332 159 347 q 97 322 112 322 q 30 351 58 322 q 3 415 3 379 q 45 488 3 459 q 185 585 92 520 q 190 953 190 746 q 217 1018 190 991 q 285 1046 244 1046 q 352 1018 326 1046 q 379 953 379 991 q 377 705 379 817 q 467 736 440 736 q 534 707 507 736 q 560 643 560 679 q 503 563 560 589 q 371 491 431 530 q 361 287 366 359 q 348 121 355 231 z "},"ł":{"ha":492,"x_min":9,"x_max":496,"o":"m 336 674 q 430 728 408 728 q 496 640 496 728 q 433 557 496 614 q 336 474 385 515 q 336 110 338 337 q 316 4 332 26 q 248 -18 300 -18 q 172 64 172 -18 q 172 374 172 374 l 145 349 q 73 310 103 307 q 9 387 9 315 q 52 461 9 425 q 172 562 94 498 l 172 943 q 196 1005 172 981 q 259 1030 220 1030 q 336 943 336 1030 l 336 674 z "},"Š":{"ha":963,"x_min":71,"x_max":972,"o":"m 425 -41 q 154 35 253 -41 q 71 182 71 99 q 96 253 71 225 q 168 281 122 281 q 257 219 229 281 q 432 136 296 136 q 658 186 549 136 q 771 301 771 239 q 701 414 771 387 q 499 437 650 433 q 289 481 382 439 q 165 642 163 537 q 307 885 168 774 q 613 995 446 995 q 777 964 680 995 q 899 877 899 926 q 874 814 899 842 q 804 784 847 784 q 709 798 772 784 q 613 811 646 811 q 447 769 526 810 q 366 677 366 727 q 390 635 366 652 q 465 612 415 618 q 637 602 551 607 q 876 517 788 591 q 972 292 972 436 q 772 27 972 117 q 425 -41 621 -41 m 870 1264 q 629 1103 669 1103 q 572 1126 599 1103 q 530 1168 551 1147 q 445 1252 488 1211 q 388 1343 388 1314 q 414 1391 388 1371 q 469 1409 437 1409 q 534 1375 510 1409 q 638 1264 561 1338 q 768 1363 681 1298 q 818 1380 792 1380 q 873 1360 850 1380 q 897 1312 897 1339 q 870 1264 897 1285 z "},"š":{"ha":705,"x_min":1,"x_max":591,"o":"m 512 496 q 431 553 445 496 q 376 557 404 557 q 212 513 212 557 q 311 441 212 486 q 492 345 445 380 q 591 184 591 274 q 482 7 591 68 q 267 -41 395 -41 q 102 -13 177 -41 q 1 99 1 25 q 81 167 1 167 q 172 147 113 167 q 262 127 231 127 q 401 183 400 127 q 305 260 401 218 q 126 349 165 321 q 31 512 31 416 q 175 696 31 648 q 433 724 260 724 q 533 706 500 724 q 578 618 578 682 q 512 496 578 496 m 547 958 q 307 798 347 798 q 249 821 276 798 q 208 863 229 842 q 122 946 165 905 q 65 1038 65 1008 q 91 1085 65 1065 q 146 1103 115 1103 q 212 1069 187 1103 q 315 958 238 1032 q 445 1057 358 992 q 495 1074 469 1074 q 550 1054 527 1074 q 574 1006 574 1034 q 547 958 574 979 z "},"Ž":{"ha":963,"x_min":8,"x_max":954,"o":"m 864 810 q 772 751 827 787 q 501 460 658 667 q 261 136 381 298 l 258 133 q 497 142 308 134 q 734 149 646 149 q 865 142 831 149 q 949 64 947 124 q 918 -7 951 19 q 850 -29 890 -29 q 791 -27 830 -29 q 732 -24 751 -24 q 422 -30 629 -24 q 113 -35 216 -35 q 40 -12 68 -35 q 8 56 8 12 q 51 172 8 105 q 127 275 64 193 q 351 571 239 423 q 600 848 484 742 q 438 840 494 840 l 164 840 q 142 839 157 840 q 121 838 128 838 q 53 861 81 838 q 22 930 22 887 q 159 1023 22 1023 q 299 1018 206 1023 q 439 1012 392 1012 q 595 1015 491 1012 q 751 1017 699 1017 q 954 929 954 1017 q 864 810 954 873 m 753 1330 q 512 1169 552 1169 q 454 1192 481 1169 q 413 1234 434 1213 q 328 1318 370 1276 q 271 1409 271 1379 q 296 1457 271 1437 q 351 1475 320 1475 q 417 1441 393 1475 q 521 1330 444 1404 q 650 1429 564 1364 q 701 1446 675 1446 q 756 1426 732 1446 q 779 1378 779 1405 q 753 1330 779 1351 z "},"ž":{"ha":747,"x_min":33,"x_max":710,"o":"m 652 518 q 624 486 652 518 q 513 342 595 453 q 372 154 400 189 q 441 155 414 155 q 520 145 468 155 q 598 136 572 136 q 666 110 639 136 q 692 46 692 85 q 666 -18 692 7 q 598 -43 640 -43 q 519 -33 571 -43 q 441 -24 467 -24 q 157 -49 289 -24 q 127 -52 139 -52 q 63 -32 90 -52 q 33 27 33 -9 q 76 106 33 71 q 429 525 245 250 q 349 523 387 523 q 138 538 245 523 q 55 626 55 549 q 81 690 55 663 q 146 716 106 716 q 247 709 180 716 q 349 702 315 702 q 487 708 395 702 q 625 713 579 713 q 710 644 710 713 q 652 518 710 583 m 631 958 q 390 798 430 798 q 332 821 359 798 q 291 863 312 842 q 205 946 248 905 q 149 1038 149 1008 q 174 1085 149 1065 q 229 1103 198 1103 q 295 1069 271 1103 q 399 958 321 1032 q 528 1057 441 992 q 578 1074 553 1074 q 634 1054 610 1074 q 657 1006 657 1034 q 631 958 657 979 z "},"¦":{"ha":585,"x_min":214,"x_max":388,"o":"m 304 1161 q 365 1137 341 1161 q 388 1077 388 1114 l 388 634 q 300 532 388 532 q 214 636 214 532 l 214 1077 q 241 1137 214 1113 q 304 1161 268 1161 m 304 385 q 365 361 341 385 q 388 300 388 337 l 388 -142 q 300 -245 388 -245 q 214 -140 214 -245 l 214 300 q 241 360 214 336 q 304 385 268 385 z "},"Ð":{"ha":1002,"x_min":-57,"x_max":960,"o":"m 191 -7 q 127 19 151 -6 q 104 85 104 45 l 104 381 q 72 380 85 380 q -57 472 -57 380 q 71 564 -57 564 q 104 563 85 564 l 104 944 q 140 1019 104 983 q 216 1055 177 1055 q 330 1013 237 1055 q 454 957 446 960 q 798 753 665 880 q 960 402 960 598 q 902 177 960 284 q 745 5 844 69 q 428 -67 631 -67 q 191 -7 286 -67 m 290 821 q 290 562 290 734 q 371 555 309 561 q 452 551 421 551 q 519 526 492 551 q 546 461 546 500 q 519 397 546 422 q 452 372 492 372 q 371 376 420 372 q 290 381 307 380 q 290 151 292 304 q 427 115 360 115 q 637 156 573 115 q 733 260 698 194 q 769 399 769 327 q 600 673 769 558 q 290 821 522 726 z "},"ð":{"ha":707,"x_min":60,"x_max":660,"o":"m 224 854 q 143 958 143 915 q 170 1017 143 991 q 232 1043 196 1043 q 380 937 279 1043 q 534 989 490 989 q 600 965 574 989 q 625 903 625 941 q 601 850 625 870 q 549 820 598 848 q 503 800 538 814 l 492 795 q 660 376 660 550 q 591 107 660 216 q 338 -28 506 -28 q 140 62 224 -28 q 60 256 60 148 q 157 502 60 395 q 389 639 248 603 q 344 718 367 682 q 191 647 223 647 q 127 674 153 647 q 101 736 101 702 q 145 809 101 777 q 224 854 155 817 m 456 486 q 377 463 430 479 q 235 256 235 410 q 267 177 235 214 q 338 139 300 139 q 485 376 485 139 q 456 486 485 409 z "},"Ý":{"ha":882,"x_min":20,"x_max":885,"o":"m 846 837 q 707 529 811 766 q 559 218 620 331 q 446 12 453 23 q 353 -47 406 -47 q 288 -23 316 -47 q 256 44 256 4 q 398 323 256 77 q 248 552 346 399 q 33 892 175 665 q 20 940 20 915 q 50 1006 20 979 q 117 1031 79 1031 q 198 986 161 1031 l 249 905 q 366 707 254 897 q 490 515 436 585 q 639 829 542 618 q 700 970 659 876 q 788 1031 726 1031 q 854 1007 825 1031 q 885 941 885 981 q 846 837 885 918 m 714 1359 q 696 1347 714 1359 q 625 1276 678 1335 q 537 1192 570 1215 q 479 1172 511 1172 q 416 1195 443 1172 q 390 1249 390 1218 q 418 1303 390 1274 q 468 1350 444 1326 q 553 1440 541 1429 q 663 1496 615 1496 q 725 1472 699 1496 q 751 1419 751 1449 q 714 1359 751 1384 z "},"Þ":{"ha":723,"x_min":41,"x_max":713,"o":"m 248 923 l 332 927 q 559 863 441 932 q 713 608 713 772 q 575 332 713 434 q 284 241 453 241 q 220 248 256 241 q 219 71 219 184 q 194 9 219 35 q 130 -16 169 -16 q 66 9 92 -16 q 41 71 41 35 l 41 260 q 54 528 41 356 q 68 795 67 715 q 68 884 68 823 q 81 993 68 958 q 170 1052 104 1053 q 248 923 250 1051 m 318 753 l 245 753 q 225 422 238 643 q 284 416 262 416 q 460 467 390 416 q 534 608 534 519 q 465 710 534 665 q 318 753 397 753 z "},"þ":{"ha":743,"x_min":49,"x_max":711,"o":"m 382 -37 q 260 -24 323 -37 l 259 -302 q 233 -368 259 -342 q 165 -394 206 -394 q 98 -368 125 -394 q 72 -302 72 -342 q 73 -47 72 -270 q 73 223 75 119 q 64 478 71 372 q 49 869 49 694 q 74 967 49 926 q 153 1013 103 1013 q 216 987 191 1013 q 241 925 241 962 l 241 657 q 429 712 336 712 q 657 578 585 712 q 711 317 711 477 q 626 68 711 168 q 382 -37 535 -37 m 429 529 q 254 448 343 529 q 262 166 262 307 q 382 146 323 146 q 490 195 452 146 q 524 317 524 241 q 515 446 524 410 q 429 529 496 529 z "},"−":{"ha":848,"x_min":70,"x_max":765,"o":"m 652 346 q 628 348 644 346 q 603 349 611 349 q 416 346 541 349 q 229 343 292 343 q 131 363 178 343 q 70 433 70 390 q 229 524 70 524 q 348 527 269 524 q 467 530 427 530 q 492 529 475 530 q 517 528 509 528 q 666 522 632 528 q 765 436 765 504 q 728 369 765 395 q 652 346 695 346 z "},"¹":{"ha":848,"x_min":216,"x_max":647,"o":"m 570 581 l 293 581 q 238 604 260 581 q 216 656 216 626 q 252 713 216 701 q 322 720 270 720 q 353 720 319 720 l 353 946 q 298 935 323 935 q 244 954 267 935 q 222 1006 222 974 q 251 1064 222 1044 q 310 1097 281 1081 q 374 1141 342 1119 q 441 1169 419 1169 q 509 1090 509 1169 q 509 1077 509 1086 q 508 1065 508 1069 l 508 720 q 595 717 574 722 q 647 659 647 705 q 625 604 647 627 q 570 581 604 581 z "},"²":{"ha":848,"x_min":202,"x_max":665,"o":"m 570 618 q 456 612 533 612 q 388 614 433 612 q 320 615 343 615 q 244 633 277 615 q 202 702 202 656 q 266 846 202 786 q 404 936 298 875 q 479 1014 479 979 q 461 1036 479 1021 q 434 1052 444 1052 q 358 1002 388 1052 q 286 953 329 953 q 230 972 254 953 q 206 1022 206 991 q 288 1144 206 1095 q 437 1185 359 1185 q 572 1133 511 1185 q 634 1014 634 1080 q 561 852 634 908 q 407 755 484 804 q 458 754 454 754 q 525 760 481 754 q 589 766 568 766 q 645 744 623 766 q 665 694 665 723 q 570 618 665 635 z "},"³":{"ha":848,"x_min":214,"x_max":630,"o":"m 380 563 q 278 582 326 563 q 214 652 214 607 q 237 706 214 682 q 292 730 259 730 q 336 721 307 730 q 380 713 365 713 q 475 738 475 713 q 434 800 475 793 q 352 808 393 804 q 309 874 309 823 q 345 936 309 916 q 413 958 355 941 q 450 988 450 968 q 373 1017 450 1017 q 345 1011 363 1017 q 315 1006 326 1006 q 266 1023 286 1006 q 245 1071 245 1041 q 293 1147 245 1120 q 373 1167 330 1167 q 528 1128 464 1167 q 606 988 606 1079 q 576 892 606 935 q 630 738 630 838 q 541 600 630 647 q 380 563 471 563 z "},"½":{"ha":848,"x_min":43,"x_max":809,"o":"m 559 581 l 283 581 q 228 603 250 581 q 207 656 207 626 q 242 713 207 700 q 312 719 260 719 q 343 720 309 719 l 343 946 q 289 935 314 935 q 235 954 257 935 q 213 1006 213 974 q 241 1064 213 1044 q 300 1097 271 1081 q 365 1141 332 1119 q 431 1169 410 1169 q 492 1133 479 1169 q 498 1061 498 1115 l 498 720 q 586 716 565 721 q 637 659 637 705 q 616 605 637 627 q 559 581 593 581 m 728 362 q 589 370 731 362 q 307 377 446 377 q 214 375 276 377 q 121 373 152 373 q 66 395 89 373 q 43 448 43 416 q 66 501 43 479 q 121 523 89 523 q 214 525 152 523 q 307 527 276 527 q 492 523 380 527 q 678 517 653 517 q 809 437 809 513 q 786 383 809 404 q 728 362 762 362 m 560 -271 q 446 -277 525 -277 q 378 -275 423 -277 q 310 -274 333 -274 q 234 -254 267 -274 q 192 -182 192 -230 q 256 -31 192 -94 q 394 64 287 -1 q 469 146 469 110 q 451 170 469 154 q 424 186 433 186 q 348 134 378 186 q 275 82 319 82 q 220 103 244 82 q 196 155 196 123 q 278 283 196 233 q 427 328 349 328 q 562 272 500 328 q 624 146 624 217 q 551 -24 624 35 q 397 -126 473 -75 q 448 -127 419 -127 q 515 -120 471 -127 q 580 -114 559 -114 q 635 -138 613 -114 q 656 -191 656 -160 q 560 -271 656 -254 z "},"¼":{"ha":848,"x_min":54,"x_max":819,"o":"m 570 581 l 293 581 q 238 604 260 581 q 216 656 216 626 q 252 713 216 701 q 322 720 270 720 q 353 720 319 720 l 353 946 q 298 935 323 935 q 244 954 267 935 q 222 1006 222 974 q 251 1064 222 1044 q 310 1097 281 1081 q 374 1141 342 1119 q 441 1169 419 1169 q 509 1090 509 1169 q 509 1077 509 1086 q 508 1065 508 1069 l 508 720 q 595 717 574 722 q 647 659 647 705 q 625 604 647 627 q 570 581 604 581 m 739 363 q 598 370 728 363 q 316 377 456 377 q 224 375 286 377 q 132 373 162 373 q 76 395 99 373 q 54 448 54 416 q 76 501 54 479 q 132 523 99 523 q 224 525 162 523 q 316 527 286 527 q 688 517 302 527 q 819 438 819 514 q 795 383 819 404 q 739 363 772 363 m 605 -111 q 553 -107 587 -111 q 554 -191 554 -168 q 542 -252 554 -239 q 482 -264 530 -264 q 430 -201 442 -264 q 425 -103 425 -174 q 208 -116 208 -116 q 150 -95 173 -116 q 126 -39 126 -73 q 165 39 126 5 q 287 168 218 87 q 401 302 345 235 q 486 338 433 338 q 542 317 517 338 q 566 264 566 296 q 558 223 566 250 q 549 183 549 197 q 551 20 549 123 q 676 -54 676 21 q 605 -111 676 -111 m 287 28 q 425 28 349 28 l 423 151 q 287 28 362 98 z "},"¾":{"ha":848,"x_min":43,"x_max":809,"o":"m 380 563 q 278 582 326 563 q 214 652 214 607 q 237 706 214 682 q 292 730 259 730 q 336 721 307 730 q 380 713 365 713 q 475 738 475 713 q 434 800 475 793 q 352 808 393 804 q 309 874 309 823 q 345 936 309 916 q 413 958 355 941 q 450 988 450 968 q 373 1017 450 1017 q 345 1011 363 1017 q 315 1006 326 1006 q 266 1023 286 1006 q 245 1071 245 1041 q 293 1147 245 1120 q 373 1167 330 1167 q 528 1128 464 1167 q 606 988 606 1079 q 576 892 606 935 q 630 738 630 838 q 541 600 630 647 q 380 563 471 563 m 728 362 q 589 370 745 362 q 307 377 432 377 q 214 375 276 377 q 121 373 152 373 q 66 394 88 373 q 43 448 43 416 q 66 501 43 479 q 121 523 88 523 q 214 525 152 523 q 307 527 276 527 q 623 518 445 527 q 739 511 733 513 q 809 437 809 496 q 786 382 809 403 q 728 362 763 362 m 595 -111 q 544 -107 577 -111 q 545 -191 545 -168 q 532 -252 545 -239 q 472 -264 520 -264 q 420 -201 432 -264 q 415 -103 415 -174 q 197 -116 198 -116 q 140 -95 163 -116 q 117 -39 117 -74 q 155 39 117 5 q 277 168 208 87 q 392 302 334 235 q 476 338 424 338 q 532 317 507 338 q 556 264 556 296 q 548 223 556 250 q 539 183 539 197 q 542 20 539 159 q 667 -54 667 21 q 595 -111 667 -111 m 277 28 q 415 28 338 28 l 413 151 q 277 28 352 98 z "},"ý":{"ha":768,"x_min":4,"x_max":755,"o":"m 743 573 q 509 90 669 419 q 377 -204 422 -87 q 332 -329 363 -246 q 245 -393 308 -393 q 178 -368 207 -393 q 149 -304 149 -342 q 292 69 149 -241 q 56 503 218 216 q 22 555 39 528 q 4 612 4 586 q 33 676 4 648 q 100 704 62 704 q 170 671 145 704 q 395 285 267 543 q 483 479 467 446 q 577 656 531 580 q 657 705 606 705 q 725 680 695 705 q 755 616 755 654 q 743 573 755 597 m 525 992 q 507 980 525 992 q 436 909 489 968 q 348 825 380 848 q 290 805 321 805 q 227 828 254 805 q 201 882 201 851 q 229 937 201 907 q 279 983 254 960 q 364 1074 351 1062 q 473 1129 426 1129 q 535 1105 509 1129 q 562 1052 562 1082 q 525 992 562 1017 z "},"×":{"ha":848,"x_min":136,"x_max":722,"o":"m 665 519 q 563 435 631 496 q 705 261 705 324 q 686 203 705 229 q 621 172 661 172 q 529 222 574 172 q 456 301 462 297 q 376 212 416 257 q 286 152 352 152 q 219 175 248 152 q 191 234 191 198 q 226 315 191 278 q 286 378 256 347 q 309 412 294 390 q 180 513 232 482 q 136 584 136 541 q 163 646 136 618 q 230 673 191 673 q 422 551 288 673 q 538 646 453 582 q 577 677 557 662 q 625 692 597 692 q 692 666 663 692 q 722 605 722 640 q 665 519 722 564 z "},"₣":{"ha":1374,"x_min":63,"x_max":1345,"o":"m 716 848 q 682 854 701 848 q 468 882 594 882 q 373 877 427 882 q 253 861 319 871 q 253 637 254 730 q 424 662 356 662 q 644 650 550 662 q 731 558 731 640 q 703 492 731 519 q 635 466 675 466 q 530 471 600 466 q 424 477 459 477 q 253 446 374 477 l 253 20 q 222 -45 253 -19 q 151 -72 191 -72 q 87 -46 112 -72 q 63 20 63 -20 l 63 798 q 64 878 63 824 q 65 958 65 931 q 92 1024 65 998 q 159 1050 119 1050 q 205 1040 185 1050 q 349 1060 283 1054 q 468 1067 415 1067 q 663 1035 545 1067 q 810 942 810 995 q 782 876 810 903 q 716 848 755 848 m 1344 489 q 1250 385 1338 385 q 1164 473 1164 385 l 1161 542 q 943 385 1008 517 l 943 44 q 917 -20 943 5 q 850 -45 890 -45 q 785 -18 808 -45 q 763 44 763 6 l 763 488 q 764 551 763 509 q 766 614 766 593 q 788 677 766 652 q 853 703 811 703 q 943 625 928 703 q 1209 715 1063 715 q 1345 534 1345 715 q 1344 489 1345 500 z "},"Ğ":{"ha":944,"x_min":26,"x_max":946,"o":"m 905 399 q 720 75 859 197 q 387 -47 578 -47 q 117 48 207 -47 q 26 334 26 144 q 112 690 26 508 q 332 986 197 873 q 534 1065 426 1065 q 713 1018 600 1065 q 847 898 847 962 q 819 832 847 861 q 751 804 791 804 q 661 842 730 804 q 534 880 591 880 q 369 749 473 880 q 218 334 218 557 q 251 180 218 221 q 387 138 286 138 q 570 197 491 138 q 693 378 653 259 q 419 314 536 366 q 377 304 398 304 q 307 336 335 304 q 282 399 282 363 q 528 544 282 503 q 850 567 666 567 q 919 541 891 567 q 946 475 946 514 q 905 399 946 426 m 871 1288 q 736 1140 862 1187 q 517 1105 644 1105 q 330 1165 410 1105 q 246 1318 246 1227 q 268 1364 246 1345 q 323 1383 290 1383 q 379 1364 357 1383 q 401 1318 401 1345 q 437 1260 401 1284 q 517 1235 472 1235 q 718 1309 694 1235 q 793 1362 735 1362 q 853 1341 831 1362 q 871 1288 875 1320 z "},"ğ":{"ha":737,"x_min":12,"x_max":746,"o":"m 698 404 q 664 68 669 245 q 591 -250 657 -151 q 276 -382 502 -382 q 12 -278 12 -382 q 36 -218 12 -241 q 98 -195 60 -195 q 186 -206 129 -195 q 287 -218 243 -218 q 436 -156 388 -218 q 490 36 482 -96 q 412 -17 456 1 q 317 -35 369 -35 q 98 53 182 -35 q 14 278 14 141 q 126 576 14 463 q 441 694 243 694 q 551 679 505 694 q 626 631 597 663 q 712 530 712 621 q 698 404 712 484 m 435 540 q 256 465 320 540 q 199 287 199 396 q 230 165 199 206 q 321 125 260 125 q 433 189 377 125 q 494 310 486 250 q 524 513 507 375 q 478 533 500 526 q 435 540 456 540 m 743 983 q 607 835 733 882 q 388 800 515 800 q 201 860 281 800 q 117 1013 117 922 q 139 1059 117 1040 q 195 1078 161 1078 q 250 1059 228 1078 q 273 1013 273 1040 q 308 955 273 979 q 388 930 343 930 q 589 1004 566 930 q 665 1057 606 1057 q 724 1036 703 1057 q 743 983 746 1015 z "},"İ":{"ha":759,"x_min":24,"x_max":746,"o":"m 649 802 q 456 821 614 802 q 446 489 446 696 l 446 184 q 629 186 536 186 q 697 159 670 186 q 724 94 724 132 q 697 30 724 56 q 629 3 670 3 q 515 1 591 3 q 401 -1 439 -1 q 267 -13 357 -1 q 133 -24 178 -24 q 65 2 92 -24 q 39 67 39 29 q 65 132 39 105 q 133 159 92 159 q 254 170 179 159 q 253 476 253 250 q 267 828 253 661 l 119 824 q 51 850 79 824 q 24 916 24 877 q 51 981 24 956 q 113 1008 76 1004 q 320 1013 172 1013 q 663 985 453 1013 q 746 891 746 973 q 712 823 746 848 q 649 802 684 802 m 388 1080 q 315 1114 357 1080 q 269 1191 269 1151 q 307 1262 269 1235 q 370 1284 338 1284 q 442 1251 400 1284 q 488 1175 488 1214 q 452 1103 488 1131 q 388 1080 421 1080 z "},"Ş":{"ha":963,"x_min":33,"x_max":934,"o":"m 387 -41 q 116 35 215 -41 q 33 182 33 99 q 58 253 33 225 q 130 281 84 281 q 219 219 191 281 q 394 136 258 136 q 620 186 511 136 q 733 301 733 239 q 663 414 733 387 q 461 437 612 433 q 251 481 344 439 q 127 642 125 537 q 269 885 130 774 q 575 995 408 995 q 739 964 642 995 q 861 877 861 926 q 836 814 861 842 q 766 784 809 784 q 671 798 734 784 q 575 811 608 811 q 409 769 488 810 q 328 677 328 727 q 352 635 328 652 q 427 612 377 618 q 600 602 513 607 q 838 517 750 591 q 934 292 934 436 q 734 27 934 117 q 387 -41 583 -41 m 450 -302 q 323 -275 385 -302 q 248 -191 248 -242 q 321 -135 248 -135 q 382 -150 348 -135 q 441 -164 417 -164 q 471 -156 461 -163 q 481 -134 481 -149 q 470 -102 481 -116 q 435 -80 458 -89 l 350 -52 q 304 9 304 -31 q 326 57 304 37 q 380 78 347 78 q 554 16 472 78 q 641 -130 641 -49 q 591 -256 641 -210 q 450 -302 541 -302 z "},"ş":{"ha":676,"x_min":35,"x_max":625,"o":"m 547 496 q 466 553 479 496 q 410 557 439 557 q 247 513 247 557 q 345 441 247 486 q 527 345 479 380 q 625 184 625 274 q 517 7 625 68 q 302 -41 429 -41 q 137 -13 212 -41 q 35 99 35 25 q 116 167 35 167 q 206 147 147 167 q 297 127 265 127 q 435 183 435 127 q 340 260 435 218 q 161 349 200 321 q 65 512 65 416 q 210 696 65 648 q 467 724 294 724 q 568 706 535 724 q 612 618 612 682 q 547 496 612 496 m 321 -302 q 194 -275 256 -302 q 119 -191 119 -242 q 193 -135 119 -135 q 254 -150 219 -135 q 313 -164 288 -164 q 342 -156 332 -163 q 352 -134 352 -149 q 341 -102 352 -116 q 307 -80 330 -89 l 221 -52 q 176 9 176 -31 q 197 57 176 37 q 252 78 218 78 q 425 16 343 78 q 512 -130 512 -49 q 462 -256 512 -210 q 321 -302 412 -302 z "},"Ć":{"ha":859,"x_min":34,"x_max":843,"o":"m 749 722 q 659 787 688 722 q 631 823 645 817 q 578 828 621 828 q 380 695 492 828 q 224 347 224 509 q 273 220 224 273 q 392 168 323 168 q 528 203 459 168 q 631 269 553 216 q 711 304 684 304 q 781 275 752 304 q 807 211 807 247 q 772 141 807 171 q 392 -16 585 -16 q 134 95 239 -16 q 34 347 34 202 q 233 811 34 574 q 578 1012 401 1012 q 632 1010 608 1012 q 674 1004 656 1008 q 746 1033 704 1033 q 831 954 815 1033 q 843 821 843 897 q 823 759 843 787 q 749 722 798 722 m 740 1298 q 722 1285 740 1298 q 651 1215 704 1273 q 563 1130 595 1154 q 505 1110 536 1110 q 442 1133 469 1110 q 416 1187 416 1156 q 444 1242 416 1212 q 494 1288 469 1265 q 579 1379 566 1367 q 688 1434 641 1434 q 750 1411 724 1434 q 777 1357 777 1387 q 740 1298 777 1322 z "},"ć":{"ha":713,"x_min":24,"x_max":665,"o":"m 381 -43 q 131 42 232 -43 q 24 278 24 132 q 120 557 24 413 q 372 721 229 721 q 537 683 443 721 q 652 575 652 636 q 629 516 652 542 q 566 488 604 488 q 495 520 536 488 q 372 551 454 551 q 259 449 320 551 q 201 278 201 350 q 252 166 201 207 q 381 127 301 127 q 492 162 427 127 q 576 197 558 197 q 638 170 612 197 q 665 110 665 144 q 549 4 665 57 q 381 -43 446 -43 m 584 992 q 566 980 584 992 q 495 909 548 968 q 407 825 439 848 q 349 805 380 805 q 286 828 313 805 q 260 882 260 851 q 288 937 260 907 q 338 983 313 960 q 423 1074 410 1062 q 532 1129 485 1129 q 594 1105 568 1129 q 621 1052 621 1082 q 584 992 621 1017 z "},"Č":{"ha":859,"x_min":34,"x_max":843,"o":"m 749 722 q 659 787 688 722 q 631 823 645 817 q 578 828 621 828 q 380 695 492 828 q 224 347 224 509 q 273 220 224 273 q 392 168 323 168 q 528 203 459 168 q 631 269 553 216 q 711 304 684 304 q 781 275 752 304 q 807 211 807 247 q 772 141 807 171 q 392 -16 585 -16 q 134 95 239 -16 q 34 347 34 202 q 233 811 34 574 q 578 1012 401 1012 q 632 1010 608 1012 q 674 1004 656 1008 q 746 1033 704 1033 q 831 954 815 1033 q 843 821 843 897 q 823 759 843 787 q 749 722 798 722 m 756 1263 q 515 1103 555 1103 q 458 1126 485 1103 q 416 1168 437 1147 q 331 1251 374 1210 q 274 1343 274 1313 q 300 1390 274 1371 q 355 1409 323 1409 q 420 1375 396 1409 q 524 1263 447 1337 q 654 1362 567 1297 q 704 1379 678 1379 q 759 1359 736 1379 q 783 1312 783 1339 q 756 1263 783 1284 z "},"č":{"ha":713,"x_min":24,"x_max":674,"o":"m 381 -43 q 131 42 232 -43 q 24 278 24 132 q 120 557 24 413 q 372 721 229 721 q 537 683 443 721 q 652 575 652 636 q 629 516 652 542 q 566 488 604 488 q 495 520 536 488 q 372 551 454 551 q 259 449 320 551 q 201 278 201 350 q 252 166 201 207 q 381 127 301 127 q 492 162 427 127 q 576 197 558 197 q 638 170 612 197 q 665 110 665 144 q 549 4 665 57 q 381 -43 446 -43 m 648 958 q 407 798 447 798 q 349 821 376 798 q 308 863 329 842 q 222 946 265 905 q 165 1038 165 1008 q 191 1085 165 1065 q 246 1103 215 1103 q 312 1069 288 1103 q 416 958 338 1032 q 545 1057 458 992 q 595 1074 570 1074 q 651 1054 627 1074 q 674 1006 674 1034 q 648 958 674 979 z "},"đ":{"ha":816,"x_min":33,"x_max":879,"o":"m 879 875 q 852 826 879 845 q 785 806 825 806 q 756 806 771 806 q 733 406 733 463 q 749 85 733 166 q 751 65 751 74 q 724 4 751 28 q 661 -20 696 -20 q 586 24 610 -20 q 388 -31 494 -31 q 136 66 236 -31 q 33 318 33 165 q 136 613 33 500 q 406 725 239 725 q 566 682 507 725 q 572 814 568 754 l 559 814 q 473 810 530 814 q 387 806 415 806 q 320 826 347 806 q 293 876 293 846 q 397 947 293 932 q 559 952 433 952 q 581 952 570 952 q 587 1001 584 981 q 675 1081 598 1081 q 739 1055 715 1081 q 764 992 764 1029 q 763 944 764 969 q 785 944 774 944 q 852 924 825 944 q 879 875 879 904 m 552 220 q 552 468 551 252 q 408 553 507 553 q 208 321 208 553 q 262 195 208 248 q 388 143 316 143 q 467 155 440 143 q 530 199 486 163 q 552 220 541 208 z "},"μ":{"ha":722,"x_min":47,"x_max":687,"o":"m 267 -42 q 258 -117 267 -71 q 249 -194 249 -163 q 222 -258 249 -233 q 154 -283 195 -283 q 86 -258 113 -283 q 60 -194 60 -233 q 66 -127 60 -163 q 77 -60 75 -79 q 87 85 83 6 q 56 264 68 134 q 47 441 47 368 q 68 646 47 547 q 159 723 83 723 q 226 698 198 723 q 254 634 254 673 q 244 537 254 602 q 235 441 235 473 q 260 151 235 243 q 324 135 294 135 q 489 157 401 135 q 488 275 489 205 q 487 393 487 355 q 500 637 487 553 q 593 719 513 719 q 660 694 633 719 q 687 631 687 669 q 681 509 687 590 q 675 387 675 428 q 675 248 675 340 q 676 109 676 155 q 679 66 676 95 q 681 22 681 37 q 653 -41 681 -16 q 586 -66 625 -66 q 504 -14 530 -66 q 324 -46 418 -46 q 267 -42 294 -46 z "},"Ω":{"ha":1333,"x_min":17,"x_max":1316,"o":"m 1223 -83 q 1107 -77 1185 -83 q 989 -72 1029 -72 q 927 -73 968 -72 q 865 -75 886 -75 q 784 -30 818 -75 q 753 50 753 9 q 820 171 753 92 q 920 286 870 228 q 1037 734 1037 445 q 994 881 1037 836 q 845 925 950 925 q 530 822 680 925 q 368 566 368 711 q 405 356 368 458 l 488 159 q 517 109 491 151 q 536 56 536 79 q 453 -52 536 -38 q 109 -95 199 -95 q 43 -67 68 -95 q 17 -3 17 -39 q 92 84 17 66 q 304 114 155 100 q 214 332 228 288 q 178 566 178 440 q 401 956 178 793 q 845 1105 606 1105 q 1152 980 1061 1105 q 1225 677 1225 879 q 1011 109 1225 369 q 1236 97 1163 111 q 1316 9 1316 82 q 1290 -56 1316 -28 q 1223 -83 1264 -83 z "},"∆":{"ha":1103,"x_min":10,"x_max":1084,"o":"m 951 -49 q 812 -39 900 -49 q 671 -27 710 -29 q 564 -25 624 -25 q 414 -26 513 -25 q 264 -28 315 -28 q 178 -32 235 -28 q 92 -37 121 -37 q 10 36 10 -37 q 95 242 10 71 q 205 465 151 354 q 364 845 297 681 q 441 1036 387 910 q 555 1128 487 1128 q 650 1058 610 1128 q 701 945 676 1001 q 874 581 788 762 q 1036 212 975 368 q 1084 54 1084 92 q 951 -49 1084 -49 m 559 818 q 405 446 476 608 q 268 153 361 345 q 565 155 418 155 q 768 147 688 155 q 879 134 805 142 q 726 479 821 281 q 559 818 642 648 z "},"­":{"ha":848,"x_min":149,"x_max":696,"o":"m 593 292 q 260 286 499 286 q 186 304 218 286 q 149 367 149 328 q 186 429 149 406 q 260 449 218 449 q 420 452 313 449 q 581 455 528 455 q 655 438 623 455 q 696 374 696 416 q 593 292 696 300 z "},"¯":{"ha":871,"x_min":-51,"x_max":924,"o":"m -51 1155 l -51 1281 l 924 1281 l 924 1155 l -51 1155 z "},"Ă":{"ha":1016,"x_min":62,"x_max":949,"o":"m 848 -20 q 740 106 794 -18 q 678 290 704 186 q 514 275 628 283 q 350 258 407 268 q 241 33 319 183 q 159 -16 212 -16 q 92 10 121 -16 q 62 75 62 35 q 161 309 62 109 q 153 349 151 330 q 218 399 155 381 q 433 745 315 566 q 642 1002 602 1002 q 741 912 716 1002 q 784 694 755 840 q 885 248 825 499 q 920 158 890 229 q 944 71 944 100 q 915 5 944 31 q 848 -20 885 -22 m 595 675 q 449 428 542 585 q 544 439 479 435 q 640 446 620 444 q 595 675 623 534 m 946 1288 q 810 1140 937 1187 q 591 1105 718 1105 q 405 1165 485 1105 q 321 1318 321 1227 q 343 1364 321 1345 q 398 1383 365 1383 q 454 1364 431 1383 q 476 1318 476 1345 q 511 1260 476 1284 q 591 1235 547 1235 q 793 1309 769 1235 q 868 1362 810 1362 q 928 1341 906 1362 q 946 1288 949 1320 z "},"ă":{"ha":772,"x_min":38,"x_max":746,"o":"m 654 -45 q 555 23 623 -45 q 446 -22 493 -7 q 365 -37 398 -37 q 120 50 201 -37 q 38 312 38 138 q 159 592 38 475 q 448 708 279 708 q 597 671 512 708 q 699 569 699 627 q 684 526 699 545 q 673 458 677 499 q 669 362 669 417 q 688 176 669 233 q 719 105 690 170 q 745 39 745 47 q 718 -21 745 3 q 654 -45 690 -45 m 486 420 q 489 470 486 442 q 498 533 492 498 q 474 543 485 540 q 456 546 464 546 q 295 474 364 546 q 226 307 226 401 q 258 170 226 216 q 356 124 291 124 q 436 138 398 124 q 507 179 473 152 q 486 420 486 340 m 743 983 q 607 835 733 882 q 388 800 515 800 q 201 860 281 800 q 117 1013 117 922 q 139 1059 117 1040 q 195 1078 161 1078 q 250 1059 228 1078 q 273 1013 273 1040 q 308 955 273 979 q 388 930 343 930 q 589 1004 566 930 q 665 1057 606 1057 q 724 1036 703 1057 q 743 983 746 1015 z "},"Ą":{"ha":1016,"x_min":62,"x_max":1045,"o":"m 848 -20 q 740 106 794 -18 q 678 290 704 186 q 514 275 628 283 q 350 258 407 268 q 241 33 319 183 q 159 -16 212 -16 q 92 10 121 -16 q 62 75 62 35 q 161 309 62 109 q 153 349 151 330 q 218 399 155 381 q 433 745 315 566 q 642 1002 602 1002 q 741 912 716 1002 q 784 694 755 840 q 885 248 825 499 q 920 158 890 229 q 944 71 944 100 q 915 5 944 31 q 848 -20 885 -22 m 595 675 q 449 428 542 585 q 544 439 479 435 q 640 446 620 444 q 595 675 623 534 m 824 -233 q 688 -174 745 -233 q 636 -53 636 -119 q 692 58 636 4 q 817 115 750 115 q 873 94 850 115 q 893 47 893 74 q 842 -15 893 9 q 791 -53 791 -38 q 804 -83 791 -68 q 824 -99 817 -99 q 929 -79 885 -99 q 968 -71 949 -71 q 1023 -92 1000 -71 q 1045 -140 1045 -113 q 956 -212 1045 -184 q 824 -233 886 -233 z "},"ą":{"ha":772,"x_min":38,"x_max":896,"o":"m 654 -45 q 555 23 623 -45 q 446 -22 493 -7 q 365 -37 398 -37 q 120 50 201 -37 q 38 312 38 138 q 159 592 38 475 q 448 708 279 708 q 597 671 512 708 q 699 569 699 627 q 684 526 699 545 q 673 458 677 499 q 669 362 669 417 q 688 176 669 233 q 719 105 690 170 q 745 39 745 47 q 718 -21 745 3 q 654 -45 690 -45 m 486 420 q 489 470 486 442 q 498 533 492 498 q 474 543 485 540 q 456 546 464 546 q 295 474 364 546 q 226 307 226 401 q 258 170 226 216 q 356 124 291 124 q 436 138 398 124 q 507 179 473 152 q 486 420 486 340 m 675 -233 q 539 -174 595 -233 q 487 -53 487 -119 q 543 58 487 4 q 668 115 601 115 q 724 94 701 115 q 744 47 744 74 q 693 -15 744 9 q 642 -53 642 -38 q 655 -83 642 -68 q 675 -99 667 -99 q 780 -79 736 -99 q 819 -71 800 -71 q 873 -92 851 -71 q 896 -140 896 -113 q 806 -212 896 -184 q 675 -233 737 -233 z "},"Ď":{"ha":1002,"x_min":97,"x_max":960,"o":"m 191 -7 q 124 21 151 -6 q 97 85 97 47 q 103 289 97 153 q 110 492 110 425 q 107 718 110 568 q 104 944 104 869 q 140 1018 104 981 q 216 1055 176 1055 q 329 1013 239 1055 q 454 957 434 963 q 793 758 652 892 q 960 402 960 597 q 903 179 960 285 q 745 6 845 71 q 428 -67 632 -67 q 314 -53 378 -67 q 191 -7 236 -35 m 572 690 q 290 821 507 732 l 290 149 q 351 124 317 132 q 427 115 385 115 q 637 156 574 115 q 733 261 698 195 q 769 399 769 328 q 572 690 769 568 m 688 1263 q 448 1103 488 1103 q 390 1126 417 1103 q 349 1168 370 1147 q 263 1251 306 1210 q 206 1343 206 1313 q 232 1390 206 1371 q 287 1409 256 1409 q 353 1375 328 1409 q 456 1263 379 1337 q 586 1362 499 1297 q 636 1379 610 1379 q 691 1359 668 1379 q 715 1312 715 1339 q 688 1263 715 1284 z "},"ď":{"ha":1061,"x_min":33,"x_max":1029,"o":"m 566 682 q 587 1001 574 913 q 675 1081 598 1081 q 739 1055 715 1081 q 764 992 764 1029 q 748 699 764 894 q 733 406 733 505 q 749 85 733 166 q 751 65 751 74 q 724 4 751 28 q 661 -20 696 -20 q 586 24 610 -20 q 490 -17 540 -3 q 388 -31 441 -31 q 136 66 236 -31 q 33 318 33 165 q 136 613 33 500 q 406 725 239 725 q 496 714 456 725 q 566 682 536 703 m 552 468 q 494 532 530 511 q 408 553 458 553 q 258 495 308 553 q 208 321 208 437 q 262 195 208 248 q 388 143 316 143 q 467 155 440 143 q 530 199 486 163 q 552 220 541 208 q 552 468 551 252 m 894 748 q 854 764 870 748 q 839 802 839 779 q 854 846 839 822 q 882 884 868 865 q 897 911 892 897 q 839 1000 839 947 q 866 1063 839 1038 q 932 1087 892 1087 q 1029 975 1029 1087 q 994 836 1029 909 q 894 748 952 748 z "},"Đ":{"ha":1002,"x_min":-57,"x_max":960,"o":"m 191 -7 q 127 19 151 -6 q 104 85 104 45 l 104 381 q 72 380 85 380 q -57 472 -57 380 q 71 564 -57 564 q 104 563 85 564 l 104 944 q 140 1019 104 983 q 216 1055 177 1055 q 330 1013 237 1055 q 454 957 446 960 q 798 753 665 880 q 960 402 960 598 q 902 177 960 284 q 745 5 844 69 q 428 -67 631 -67 q 191 -7 286 -67 m 290 821 q 290 562 290 734 q 371 555 309 561 q 452 551 421 551 q 519 526 492 551 q 546 461 546 500 q 519 397 546 422 q 452 372 492 372 q 371 376 420 372 q 290 381 307 380 q 290 151 292 304 q 427 115 360 115 q 637 156 573 115 q 733 260 698 194 q 769 399 769 327 q 600 673 769 558 q 290 821 522 726 z "},"Ę":{"ha":867,"x_min":64,"x_max":846,"o":"m 752 869 q 724 873 739 869 q 510 903 614 903 q 401 895 459 903 q 277 871 342 887 q 271 603 277 781 q 536 628 309 606 q 700 641 665 641 q 768 615 740 641 q 797 548 797 590 q 711 456 797 467 q 549 443 656 452 q 258 416 452 432 q 254 277 254 330 q 269 126 254 144 q 355 117 277 117 q 481 119 397 117 q 608 121 566 121 q 648 125 622 121 q 688 130 675 130 q 755 107 727 130 q 787 37 787 82 q 707 -54 787 -39 q 426 -67 640 -67 q 138 -7 205 -67 q 64 277 64 58 q 77 550 64 368 q 90 823 90 732 q 83 893 90 846 q 77 963 77 939 q 172 1066 77 1066 q 227 1049 201 1066 q 376 1079 305 1069 q 510 1088 447 1088 q 783 1049 681 1088 q 846 963 846 1025 q 821 901 846 928 q 752 869 794 869 m 593 -274 q 458 -215 514 -274 q 406 -94 406 -160 q 461 18 406 -37 q 587 75 519 75 q 642 53 620 75 q 663 6 663 33 q 612 -55 663 -32 q 561 -94 561 -79 q 573 -124 561 -109 q 593 -140 586 -140 q 699 -120 654 -140 q 737 -111 718 -111 q 792 -132 770 -111 q 814 -180 814 -153 q 725 -252 814 -224 q 593 -274 656 -274 z "},"ę":{"ha":777,"x_min":32,"x_max":726,"o":"m 411 -31 q 146 46 249 -31 q 32 287 32 132 q 122 577 32 458 q 393 709 222 709 q 589 671 511 709 q 691 515 691 621 q 608 382 691 440 q 455 305 570 356 l 227 204 q 305 151 259 169 q 411 134 351 134 q 565 171 502 134 q 655 204 621 204 q 726 136 726 204 q 612 9 726 58 q 411 -31 517 -31 m 393 545 q 285 503 330 545 q 213 376 240 460 q 366 442 290 410 q 511 519 457 484 q 393 545 466 545 m 458 -260 q 322 -201 378 -260 q 270 -80 270 -146 q 326 31 270 -23 q 451 88 384 88 q 507 66 484 88 q 527 20 527 47 q 476 -42 527 -18 q 425 -80 425 -65 q 438 -111 425 -95 q 458 -126 450 -126 q 563 -106 519 -126 q 602 -98 583 -98 q 656 -119 634 -98 q 679 -167 679 -140 q 589 -239 679 -211 q 458 -260 520 -260 z "},"Ě":{"ha":867,"x_min":64,"x_max":846,"o":"m 752 869 q 724 873 739 869 q 510 903 614 903 q 401 895 459 903 q 277 871 342 887 q 271 603 277 781 q 536 628 309 606 q 700 641 665 641 q 768 615 740 641 q 797 548 797 590 q 711 456 797 467 q 549 443 656 452 q 258 416 452 432 q 254 277 254 330 q 269 126 254 144 q 355 117 277 117 q 481 119 397 117 q 608 121 566 121 q 648 125 622 121 q 688 130 675 130 q 755 107 727 130 q 787 37 787 82 q 707 -54 787 -39 q 426 -67 640 -67 q 138 -7 205 -67 q 64 277 64 58 q 77 550 64 368 q 90 823 90 732 q 83 893 90 846 q 77 963 77 939 q 172 1066 77 1066 q 227 1049 201 1066 q 376 1079 305 1069 q 510 1088 447 1088 q 783 1049 681 1088 q 846 963 846 1025 q 821 901 846 928 q 752 869 794 869 m 743 1284 q 502 1123 542 1123 q 444 1146 471 1123 q 403 1188 424 1167 q 317 1272 360 1230 q 260 1363 260 1333 q 286 1411 260 1391 q 341 1429 310 1429 q 407 1395 382 1429 q 511 1284 433 1358 q 640 1383 553 1318 q 690 1400 665 1400 q 746 1379 722 1400 q 769 1332 769 1359 q 743 1284 769 1305 z "},"ě":{"ha":777,"x_min":32,"x_max":726,"o":"m 411 -31 q 146 46 249 -31 q 32 287 32 132 q 122 577 32 458 q 393 709 222 709 q 589 671 511 709 q 691 515 691 621 q 608 382 691 440 q 455 305 570 356 l 227 204 q 305 151 259 169 q 411 134 351 134 q 565 171 502 134 q 655 204 621 204 q 726 136 726 204 q 612 9 726 58 q 411 -31 517 -31 m 393 545 q 285 503 330 545 q 213 376 240 460 q 366 442 290 410 q 511 519 457 484 q 393 545 466 545 m 648 958 q 407 798 447 798 q 349 821 376 798 q 308 863 329 842 q 222 946 265 905 q 165 1038 165 1008 q 191 1085 165 1065 q 246 1103 215 1103 q 312 1069 288 1103 q 416 958 338 1032 q 545 1057 458 992 q 595 1074 570 1074 q 651 1054 627 1074 q 674 1006 674 1034 q 648 958 674 979 z "},"Ĺ":{"ha":765,"x_min":41,"x_max":766,"o":"m 707 26 q 459 -37 627 -9 q 208 -63 306 -63 q 41 83 41 -63 q 55 298 41 71 q 73 953 73 592 q 99 1019 73 991 q 167 1046 126 1046 q 235 1019 208 1046 q 262 953 262 991 q 243 287 262 591 q 231 121 237 233 q 643 199 391 123 q 673 204 659 204 q 742 173 715 204 q 766 111 766 145 q 707 26 766 52 m 503 1298 q 485 1285 503 1298 q 414 1215 467 1273 q 326 1130 358 1154 q 267 1110 299 1110 q 205 1133 231 1110 q 178 1187 178 1156 q 207 1242 178 1212 q 256 1288 232 1265 q 342 1379 329 1367 q 451 1434 404 1434 q 513 1411 487 1434 q 539 1357 539 1387 q 503 1298 539 1322 z "},"ĺ":{"ha":380,"x_min":91,"x_max":478,"o":"m 278 100 q 184 -29 278 -29 q 117 -3 144 -29 q 91 63 91 22 l 91 1001 q 119 1065 91 1040 q 186 1088 146 1088 q 252 1064 227 1088 q 278 1001 278 1040 l 278 100 m 442 1332 q 424 1319 442 1332 q 353 1249 406 1307 q 264 1164 297 1187 q 206 1144 238 1144 q 144 1167 170 1144 q 117 1221 117 1190 q 146 1276 117 1246 q 195 1322 171 1299 q 281 1413 268 1401 q 390 1468 342 1468 q 452 1444 426 1468 q 478 1391 478 1421 q 442 1332 478 1356 z "},"Ľ":{"ha":765,"x_min":41,"x_max":766,"o":"m 707 26 q 459 -37 627 -9 q 208 -63 306 -63 q 41 83 41 -63 q 55 298 41 71 q 73 953 73 592 q 99 1019 73 991 q 167 1046 126 1046 q 235 1019 208 1046 q 262 953 262 991 q 243 287 262 591 q 231 121 237 233 q 643 199 391 123 q 673 204 659 204 q 742 173 715 204 q 766 111 766 145 q 707 26 766 52 m 491 701 q 452 716 467 701 q 436 755 436 732 q 452 798 436 774 q 479 836 465 817 q 494 864 489 850 q 436 953 436 899 q 463 1015 436 991 q 530 1040 490 1040 q 626 927 626 1040 q 591 789 626 862 q 491 701 549 701 z "},"ľ":{"ha":640,"x_min":91,"x_max":572,"o":"m 278 100 q 184 -29 278 -29 q 117 -3 144 -29 q 91 63 91 22 l 91 1001 q 119 1065 91 1040 q 186 1088 146 1088 q 252 1064 227 1088 q 278 1001 278 1040 l 278 100 m 437 748 q 397 764 413 748 q 382 802 382 779 q 397 846 382 822 q 425 884 411 865 q 439 911 435 897 q 382 1000 382 947 q 409 1063 382 1038 q 475 1087 435 1087 q 572 975 572 1087 q 537 836 572 909 q 437 748 495 748 z "},"Ŀ":{"ha":765,"x_min":41,"x_max":766,"o":"m 707 26 q 459 -37 627 -9 q 208 -63 306 -63 q 41 83 41 -63 q 55 298 41 71 q 73 953 73 592 q 99 1019 73 991 q 167 1046 126 1046 q 235 1019 208 1046 q 262 953 262 991 q 243 287 262 591 q 231 121 237 233 q 643 199 391 123 q 673 204 659 204 q 742 173 715 204 q 766 111 766 145 q 707 26 766 52 m 638 486 q 613 426 638 451 q 554 401 589 401 q 494 426 519 401 q 470 486 470 451 q 494 545 470 520 q 554 570 519 570 q 613 545 589 570 q 638 486 638 520 z "},"ŀ":{"ha":575,"x_min":91,"x_max":550,"o":"m 278 100 q 184 -29 278 -29 q 117 -3 144 -29 q 91 63 91 22 l 91 1001 q 119 1065 91 1040 q 186 1088 146 1088 q 252 1064 227 1088 q 278 1001 278 1040 l 278 100 m 550 486 q 525 426 550 451 q 466 401 500 401 q 406 426 431 401 q 382 486 382 451 q 406 545 382 520 q 466 570 431 570 q 525 545 500 570 q 550 486 550 520 z "},"Ń":{"ha":1129,"x_min":56,"x_max":1078,"o":"m 1072 167 q 1061 60 1072 133 q 962 -28 1047 -28 q 854 26 914 -28 q 265 686 593 261 q 261 469 261 509 q 263 308 261 416 q 266 146 266 200 q 168 -54 266 -54 q 89 -23 119 -54 q 62 43 62 4 q 67 125 62 70 q 71 207 71 180 q 74 327 71 247 q 77 447 77 407 q 75 576 77 490 q 73 705 73 662 q 64 826 73 745 q 56 947 56 907 q 91 1020 56 988 q 171 1052 126 1052 q 282 965 221 1052 q 890 248 590 526 q 890 351 890 270 q 884 802 890 686 q 875 876 882 822 q 868 950 868 923 q 967 1044 868 1044 q 1078 703 1078 1044 q 1076 595 1078 695 q 1072 167 1072 251 m 774 1298 q 756 1285 774 1298 q 685 1215 738 1273 q 597 1130 629 1154 q 538 1110 570 1110 q 476 1133 503 1110 q 450 1187 450 1156 q 478 1242 450 1212 q 528 1288 503 1265 q 613 1379 600 1367 q 722 1434 675 1434 q 784 1411 758 1434 q 810 1357 810 1387 q 774 1298 810 1322 z "},"ń":{"ha":727,"x_min":46,"x_max":698,"o":"m 604 -48 q 511 34 520 -48 q 492 174 501 104 q 481 315 481 249 q 484 375 481 332 q 486 435 486 418 q 488 459 486 440 q 489 491 489 479 q 460 547 489 547 q 337 474 397 547 q 243 290 277 401 q 237 230 242 267 q 233 170 233 199 q 238 113 233 151 q 242 56 242 75 q 215 -8 242 17 q 148 -34 189 -34 q 81 -8 107 -34 q 54 56 54 17 q 50 113 54 75 q 46 170 46 151 q 56 351 46 235 q 65 532 65 467 q 63 593 65 553 q 60 653 60 633 q 88 716 60 691 q 155 741 115 741 q 250 634 244 741 l 251 627 q 460 726 350 726 q 637 619 588 726 q 669 404 669 547 l 669 356 q 669 312 669 325 q 683 176 669 259 q 698 40 698 92 q 671 -23 698 2 q 604 -48 644 -48 m 564 992 q 546 980 564 992 q 475 909 528 968 q 387 825 419 848 q 328 805 360 805 q 266 828 292 805 q 239 882 239 851 q 268 937 239 907 q 317 983 293 960 q 403 1074 390 1062 q 512 1129 465 1129 q 574 1105 548 1129 q 600 1052 600 1082 q 564 992 600 1017 z "},"Ň":{"ha":1129,"x_min":56,"x_max":1078,"o":"m 1072 167 q 1061 60 1072 133 q 962 -28 1047 -28 q 854 26 914 -28 q 265 686 593 261 q 261 469 261 509 q 263 308 261 416 q 266 146 266 200 q 168 -54 266 -54 q 89 -23 119 -54 q 62 43 62 4 q 67 125 62 70 q 71 207 71 180 q 74 327 71 247 q 77 447 77 407 q 75 576 77 490 q 73 705 73 662 q 64 826 73 745 q 56 947 56 907 q 91 1020 56 988 q 171 1052 126 1052 q 282 965 221 1052 q 890 248 590 526 q 890 351 890 270 q 884 802 890 686 q 875 876 882 822 q 868 950 868 923 q 967 1044 868 1044 q 1078 703 1078 1044 q 1076 595 1078 695 q 1072 167 1072 251 m 810 1263 q 570 1103 610 1103 q 512 1126 539 1103 q 471 1168 492 1147 q 385 1251 428 1210 q 328 1343 328 1313 q 354 1390 328 1371 q 409 1409 378 1409 q 475 1375 450 1409 q 578 1263 501 1337 q 708 1362 621 1297 q 758 1379 732 1379 q 813 1359 790 1379 q 837 1312 837 1339 q 810 1263 837 1284 z "},"ň":{"ha":727,"x_min":46,"x_max":698,"o":"m 604 -48 q 511 34 520 -48 q 492 174 501 104 q 481 315 481 249 q 484 375 481 332 q 486 435 486 418 q 488 459 486 440 q 489 491 489 479 q 460 547 489 547 q 337 474 397 547 q 243 290 277 401 q 237 230 242 267 q 233 170 233 199 q 238 113 233 151 q 242 56 242 75 q 215 -8 242 17 q 148 -34 189 -34 q 81 -8 107 -34 q 54 56 54 17 q 50 113 54 75 q 46 170 46 151 q 56 351 46 235 q 65 532 65 467 q 63 593 65 553 q 60 653 60 633 q 88 716 60 691 q 155 741 115 741 q 250 634 244 741 l 251 627 q 460 726 350 726 q 637 619 588 726 q 669 404 669 547 l 669 356 q 669 312 669 325 q 683 176 669 259 q 698 40 698 92 q 671 -23 698 2 q 604 -48 644 -48 m 648 958 q 407 798 447 798 q 349 821 376 798 q 308 863 329 842 q 222 946 265 905 q 165 1038 165 1008 q 191 1085 165 1065 q 246 1103 215 1103 q 312 1069 288 1103 q 416 958 338 1032 q 545 1057 458 992 q 595 1074 570 1074 q 651 1054 627 1074 q 674 1006 674 1034 q 648 958 674 979 z "},"Ő":{"ha":1109,"x_min":41,"x_max":1066,"o":"m 533 -41 q 191 74 332 -41 q 41 393 41 197 q 185 814 41 624 q 593 1027 347 1027 q 948 919 830 1027 q 1066 593 1066 810 q 933 175 1066 362 q 533 -41 780 -41 m 593 844 q 334 697 442 844 q 233 393 233 560 q 321 210 233 281 q 533 142 405 142 q 782 289 682 142 q 873 593 873 422 q 810 791 873 735 q 593 844 749 844 m 985 1250 l 879 1166 q 770 1107 804 1107 q 715 1128 738 1107 q 692 1175 692 1148 q 718 1221 692 1198 q 765 1257 742 1239 q 943 1369 899 1369 q 998 1349 975 1369 q 1020 1302 1020 1328 q 985 1250 1020 1274 m 696 1279 q 612 1206 670 1251 q 526 1133 551 1158 q 466 1107 500 1107 q 411 1127 435 1107 q 387 1173 387 1146 q 467 1272 387 1201 q 579 1364 524 1318 q 637 1387 604 1387 q 692 1368 668 1387 q 716 1321 716 1348 q 696 1279 716 1299 z "},"ő":{"ha":730,"x_min":24,"x_max":783,"o":"m 349 -40 q 133 46 223 -40 q 29 298 34 140 q 111 565 24 448 q 398 703 214 703 q 614 595 534 703 q 686 353 686 497 q 602 84 686 195 q 349 -40 507 -40 m 389 524 q 258 448 306 525 q 217 298 217 384 q 263 173 217 216 q 349 138 300 138 q 451 178 408 138 q 504 305 500 225 q 389 524 513 524 m 747 945 l 642 861 q 533 802 566 802 q 478 823 500 802 q 455 869 455 843 q 481 916 455 892 q 528 952 505 934 q 705 1064 661 1064 q 760 1043 738 1064 q 783 997 783 1023 q 747 945 783 968 m 459 974 q 374 901 433 946 q 288 827 313 852 q 229 802 263 802 q 173 822 197 802 q 149 868 149 841 q 230 967 149 896 q 342 1059 286 1013 q 399 1082 367 1082 q 455 1062 431 1082 q 479 1016 479 1043 q 459 974 479 994 z "},"Ŕ":{"ha":889,"x_min":62,"x_max":860,"o":"m 764 -8 q 696 20 727 -8 q 245 288 491 213 q 252 68 252 90 q 225 3 252 30 q 157 -24 198 -24 q 90 3 117 -24 q 62 68 62 30 q 64 221 62 119 q 65 373 65 322 l 66 920 q 93 1000 66 964 q 189 1042 127 1046 q 357 1029 353 1029 q 519 983 452 1017 q 808 622 808 838 q 748 465 808 533 q 566 350 687 397 q 836 145 745 250 q 860 85 860 118 q 831 19 860 47 q 764 -8 803 -8 m 329 845 q 250 850 323 846 l 250 490 q 279 490 267 490 q 526 531 446 490 q 589 578 560 549 q 618 622 618 607 q 522 768 618 698 q 329 845 430 835 m 537 1298 q 519 1285 537 1298 q 448 1215 500 1273 q 359 1130 392 1154 q 301 1110 333 1110 q 239 1133 265 1110 q 212 1187 212 1156 q 241 1242 212 1212 q 290 1288 266 1265 q 376 1379 363 1367 q 485 1434 437 1434 q 547 1411 521 1434 q 573 1357 573 1387 q 537 1298 573 1322 z "},"ŕ":{"ha":667,"x_min":56,"x_max":638,"o":"m 637 489 q 543 385 631 385 q 458 473 458 385 l 454 542 q 236 385 302 517 l 237 44 q 210 -20 237 5 q 143 -45 184 -45 q 78 -18 101 -45 q 56 44 56 6 l 56 488 q 58 551 56 509 q 59 614 59 593 q 82 677 59 652 q 146 703 104 703 q 236 625 222 703 q 503 715 356 715 q 638 534 638 715 q 637 489 638 500 m 544 992 q 525 980 544 992 q 454 909 507 968 q 366 825 399 848 q 308 805 340 805 q 245 828 272 805 q 219 882 219 851 q 248 937 219 907 q 297 983 273 960 q 382 1074 370 1062 q 492 1129 444 1129 q 554 1105 528 1129 q 580 1052 580 1082 q 544 992 580 1017 z "},"Ř":{"ha":889,"x_min":62,"x_max":860,"o":"m 764 -8 q 696 20 727 -8 q 245 288 491 213 q 252 68 252 90 q 225 3 252 30 q 157 -24 198 -24 q 90 3 117 -24 q 62 68 62 30 q 64 221 62 119 q 65 373 65 322 l 66 920 q 93 1000 66 964 q 189 1042 127 1046 q 357 1029 353 1029 q 519 983 452 1017 q 808 622 808 838 q 748 465 808 533 q 566 350 687 397 q 836 145 745 250 q 860 85 860 118 q 831 19 860 47 q 764 -8 803 -8 m 329 845 q 250 850 323 846 l 250 490 q 279 490 267 490 q 526 531 446 490 q 589 578 560 549 q 618 622 618 607 q 522 768 618 698 q 329 845 430 835 m 648 1263 q 407 1103 447 1103 q 349 1126 376 1103 q 308 1168 329 1147 q 222 1251 265 1210 q 165 1343 165 1313 q 191 1390 165 1371 q 246 1409 215 1409 q 312 1375 288 1409 q 416 1263 338 1337 q 545 1362 458 1297 q 595 1379 570 1379 q 651 1359 627 1379 q 674 1312 674 1339 q 648 1263 674 1284 z "},"ř":{"ha":667,"x_min":56,"x_max":638,"o":"m 637 489 q 543 385 631 385 q 458 473 458 385 l 454 542 q 236 385 302 517 l 237 44 q 210 -20 237 5 q 143 -45 184 -45 q 78 -18 101 -45 q 56 44 56 6 l 56 488 q 58 551 56 509 q 59 614 59 593 q 82 677 59 652 q 146 703 104 703 q 236 625 222 703 q 503 715 356 715 q 638 534 638 715 q 637 489 638 500 m 580 958 q 339 798 379 798 q 281 821 309 798 q 240 863 261 842 q 155 946 197 905 q 98 1038 98 1008 q 123 1085 98 1065 q 178 1103 147 1103 q 244 1069 220 1103 q 348 958 271 1032 q 477 1057 391 992 q 528 1074 502 1074 q 583 1054 559 1074 q 606 1006 606 1034 q 580 958 606 979 z "},"Ś":{"ha":963,"x_min":33,"x_max":934,"o":"m 387 -41 q 116 35 215 -41 q 33 182 33 99 q 58 253 33 225 q 130 281 84 281 q 219 219 191 281 q 394 136 258 136 q 620 186 511 136 q 733 301 733 239 q 663 414 733 387 q 461 437 612 433 q 251 481 344 439 q 127 642 125 537 q 269 885 130 774 q 575 995 408 995 q 739 964 642 995 q 861 877 861 926 q 836 814 861 842 q 766 784 809 784 q 671 798 734 784 q 575 811 608 811 q 409 769 488 810 q 328 677 328 727 q 352 635 328 652 q 427 612 377 618 q 600 602 513 607 q 838 517 750 591 q 934 292 934 436 q 734 27 934 117 q 387 -41 583 -41 m 713 1298 q 695 1285 713 1298 q 624 1215 677 1273 q 536 1130 568 1154 q 477 1110 509 1110 q 415 1133 441 1110 q 389 1187 389 1156 q 417 1242 389 1212 q 467 1288 442 1265 q 552 1379 539 1367 q 661 1434 614 1434 q 723 1411 697 1434 q 749 1357 749 1387 q 713 1298 749 1322 z "},"ś":{"ha":676,"x_min":35,"x_max":625,"o":"m 547 496 q 466 553 479 496 q 410 557 439 557 q 247 513 247 557 q 345 441 247 486 q 527 345 479 380 q 625 184 625 274 q 517 7 625 68 q 302 -41 429 -41 q 137 -13 212 -41 q 35 99 35 25 q 116 167 35 167 q 206 147 147 167 q 297 127 265 127 q 435 183 435 127 q 340 260 435 218 q 161 349 200 321 q 65 512 65 416 q 210 696 65 648 q 467 724 294 724 q 568 706 535 724 q 612 618 612 682 q 547 496 612 496 m 510 992 q 492 980 510 992 q 420 909 473 968 q 332 825 365 848 q 274 805 306 805 q 212 828 238 805 q 185 882 185 851 q 214 937 185 907 q 263 983 239 960 q 349 1074 336 1062 q 458 1129 410 1129 q 520 1105 494 1129 q 546 1052 546 1082 q 510 992 546 1017 z "},"Ț":{"ha":966,"x_min":7,"x_max":975,"o":"m 879 813 q 714 821 826 813 q 549 827 606 828 q 568 552 552 750 q 582 275 582 377 q 587 207 582 252 q 591 138 591 161 q 570 47 591 87 q 490 -5 542 -5 q 425 18 453 -5 q 393 85 393 45 q 396 114 393 94 q 399 143 399 133 q 395 237 399 174 q 391 332 391 300 q 376 578 391 423 q 357 825 360 757 l 322 825 q 82 846 171 825 q 7 935 7 865 q 31 998 7 970 q 106 1027 60 1031 q 214 1016 130 1026 q 322 1008 281 1008 q 446 1010 363 1008 q 570 1011 528 1011 q 724 1004 621 1011 q 879 997 827 997 q 947 970 920 997 q 975 905 975 944 q 947 840 975 867 q 879 813 920 813 m 457 -405 q 418 -389 433 -405 q 402 -351 402 -374 q 418 -307 402 -331 q 446 -269 431 -288 q 460 -241 455 -256 q 402 -153 402 -206 q 429 -90 402 -115 q 496 -66 456 -66 q 592 -178 592 -66 q 557 -317 592 -243 q 457 -405 515 -405 z "},"ț":{"ha":654,"x_min":17,"x_max":642,"o":"m 548 546 q 514 547 534 546 q 481 548 495 548 q 416 543 453 548 q 429 184 429 269 q 429 152 429 176 q 430 113 430 127 q 332 -43 430 -43 q 267 -20 294 -43 q 237 41 237 4 q 239 114 237 65 q 241 187 241 163 q 229 538 241 269 q 102 550 187 541 q 17 637 17 559 q 43 702 17 675 q 109 728 68 728 q 224 720 134 728 q 221 792 224 742 q 218 859 218 836 q 246 922 218 897 q 313 947 274 947 q 414 779 414 947 l 412 723 q 481 729 454 729 q 587 719 559 729 q 642 636 642 700 q 615 572 642 597 q 548 546 589 546 m 292 -405 q 252 -389 268 -405 q 237 -351 237 -374 q 252 -307 237 -331 q 280 -269 266 -288 q 294 -241 290 -256 q 237 -153 237 -206 q 263 -90 237 -115 q 330 -66 290 -66 q 427 -178 427 -66 q 392 -317 427 -243 q 292 -405 350 -405 z "},"Ť":{"ha":966,"x_min":7,"x_max":975,"o":"m 879 813 q 714 821 826 813 q 549 827 606 828 q 568 552 552 750 q 582 275 582 377 q 587 207 582 252 q 591 138 591 161 q 570 47 591 87 q 490 -5 542 -5 q 425 18 453 -5 q 393 85 393 45 q 396 114 393 94 q 399 143 399 133 q 395 237 399 174 q 391 332 391 300 q 376 578 391 423 q 357 825 360 757 l 322 825 q 82 846 171 825 q 7 935 7 865 q 31 998 7 970 q 106 1027 60 1031 q 214 1016 130 1026 q 322 1008 281 1008 q 446 1010 363 1008 q 570 1011 528 1011 q 724 1004 621 1011 q 879 997 827 997 q 947 970 920 997 q 975 905 975 944 q 947 840 975 867 q 879 813 920 813 m 695 1263 q 454 1103 494 1103 q 397 1126 424 1103 q 355 1168 376 1147 q 270 1251 313 1210 q 213 1343 213 1313 q 239 1390 213 1371 q 294 1409 262 1409 q 359 1375 335 1409 q 463 1263 386 1337 q 593 1362 506 1297 q 643 1379 617 1379 q 698 1359 675 1379 q 722 1312 722 1339 q 695 1263 722 1284 z "},"ť":{"ha":888,"x_min":17,"x_max":863,"o":"m 548 546 q 514 547 534 546 q 481 548 495 548 q 416 543 453 548 q 429 184 429 269 q 429 152 429 176 q 430 113 430 127 q 332 -43 430 -43 q 267 -20 294 -43 q 237 41 237 4 q 239 114 237 65 q 241 187 241 163 q 229 538 241 269 q 102 550 187 541 q 17 637 17 559 q 43 702 17 675 q 109 728 68 728 q 224 720 134 728 q 221 792 224 742 q 218 859 218 836 q 246 922 218 897 q 313 947 274 947 q 414 779 414 947 l 412 723 q 481 729 454 729 q 587 719 559 729 q 642 636 642 700 q 615 572 642 597 q 548 546 589 546 m 728 606 q 689 621 705 606 q 673 660 673 637 q 689 703 673 680 q 717 741 703 722 q 731 769 726 755 q 673 858 673 804 q 700 920 673 896 q 767 945 727 945 q 863 832 863 945 q 829 694 863 767 q 728 606 787 606 z "},"Ů":{"ha":1023,"x_min":53,"x_max":958,"o":"m 783 117 q 663 5 733 50 q 488 -49 578 -49 q 231 18 315 -49 q 53 505 53 158 q 56 604 53 538 q 60 703 60 670 q 61 782 60 730 q 62 861 62 835 q 82 964 62 916 q 156 1027 109 1027 q 222 1003 193 1027 q 253 937 253 977 q 252 820 253 898 q 251 702 251 741 q 248 604 251 669 q 244 505 244 538 q 269 310 244 400 q 352 159 297 202 q 488 136 380 137 q 729 441 667 133 q 762 888 762 600 q 784 962 762 926 q 871 1008 814 1008 q 940 975 917 1008 q 958 919 958 949 q 932 501 958 651 q 783 117 895 270 m 502 1109 q 330 1161 400 1108 q 260 1290 260 1213 q 340 1444 260 1388 q 533 1497 415 1497 q 695 1450 627 1497 q 771 1314 771 1398 q 685 1154 771 1207 q 502 1109 615 1111 m 533 1361 q 416 1291 414 1361 q 451 1258 416 1273 q 524 1244 485 1244 q 592 1261 570 1244 q 615 1314 615 1279 q 592 1348 615 1335 q 533 1361 568 1361 z "},"ů":{"ha":722,"x_min":36,"x_max":678,"o":"m 663 392 q 664 255 663 347 q 665 118 665 163 q 667 76 665 104 q 669 33 669 47 q 642 -30 669 -5 q 574 -54 614 -54 q 492 -3 518 -54 q 313 -35 406 -35 q 151 5 216 -35 q 62 142 77 52 q 36 445 36 311 q 56 646 36 533 q 148 723 70 723 q 215 698 187 723 q 243 635 243 673 q 233 542 243 606 q 223 445 223 478 q 230 278 223 349 q 249 159 236 206 q 282 148 266 152 q 313 144 298 144 q 478 165 388 144 q 477 284 478 218 q 476 398 476 363 q 489 638 476 537 q 581 719 499 719 q 650 694 621 719 q 676 631 678 669 q 663 392 663 372 m 353 804 q 181 856 251 803 q 111 985 111 908 q 191 1139 111 1082 q 384 1192 266 1192 q 546 1145 478 1192 q 622 1008 622 1093 q 536 849 622 902 q 353 804 466 806 m 384 1056 q 267 985 264 1056 q 301 953 267 968 q 375 939 336 939 q 443 956 420 939 q 466 1008 466 974 q 443 1043 466 1029 q 384 1056 419 1056 z "},"Ű":{"ha":1023,"x_min":53,"x_max":958,"o":"m 783 117 q 663 5 733 50 q 488 -49 578 -49 q 231 18 315 -49 q 53 505 53 158 q 56 604 53 538 q 60 703 60 670 q 61 782 60 730 q 62 861 62 835 q 82 964 62 916 q 156 1027 109 1027 q 222 1003 193 1027 q 253 937 253 977 q 252 820 253 898 q 251 702 251 741 q 248 604 251 669 q 244 505 244 538 q 269 310 244 400 q 352 159 297 202 q 488 136 380 137 q 729 441 667 133 q 762 888 762 600 q 784 962 762 926 q 871 1008 814 1008 q 940 975 917 1008 q 958 919 958 949 q 932 501 958 651 q 783 117 895 270 m 863 1250 l 757 1166 q 648 1107 682 1107 q 593 1128 616 1107 q 570 1175 570 1148 q 596 1221 570 1198 q 643 1257 620 1239 q 821 1369 777 1369 q 876 1349 853 1369 q 898 1302 898 1328 q 863 1250 898 1274 m 574 1279 q 490 1206 548 1251 q 404 1133 429 1158 q 344 1107 378 1107 q 289 1127 313 1107 q 264 1173 264 1146 q 345 1272 264 1201 q 457 1364 401 1318 q 515 1387 482 1387 q 570 1368 546 1387 q 594 1321 594 1348 q 574 1279 594 1299 z "},"ű":{"ha":722,"x_min":36,"x_max":755,"o":"m 663 392 q 664 255 663 347 q 665 118 665 163 q 667 76 665 104 q 669 33 669 47 q 642 -30 669 -5 q 574 -54 614 -54 q 492 -3 518 -54 q 313 -35 406 -35 q 151 5 216 -35 q 62 142 77 52 q 36 445 36 311 q 56 646 36 533 q 148 723 70 723 q 215 698 187 723 q 243 635 243 673 q 233 542 243 606 q 223 445 223 478 q 230 278 223 349 q 249 159 236 206 q 282 148 266 152 q 313 144 298 144 q 478 165 388 144 q 477 284 478 218 q 476 398 476 363 q 489 638 476 537 q 581 719 499 719 q 650 694 621 719 q 676 631 678 669 q 663 392 663 372 m 720 945 l 614 861 q 506 802 539 802 q 451 823 473 802 q 428 869 428 843 q 454 916 428 892 q 500 952 477 934 q 678 1064 634 1064 q 733 1043 711 1064 q 755 997 755 1023 q 720 945 755 968 m 432 974 q 347 901 406 946 q 261 827 286 852 q 201 802 236 802 q 146 822 170 802 q 122 868 122 841 q 203 967 122 896 q 315 1059 259 1013 q 372 1082 340 1082 q 428 1062 404 1082 q 452 1016 452 1043 q 432 974 452 994 z "},"Ź":{"ha":963,"x_min":8,"x_max":954,"o":"m 864 810 q 772 751 827 787 q 501 460 658 667 q 261 136 381 298 l 258 133 q 497 142 308 134 q 734 149 646 149 q 865 142 831 149 q 949 64 947 124 q 918 -7 951 19 q 850 -29 890 -29 q 791 -27 830 -29 q 732 -24 751 -24 q 422 -30 629 -24 q 113 -35 216 -35 q 40 -12 68 -35 q 8 56 8 12 q 51 172 8 105 q 127 275 64 193 q 351 571 239 423 q 600 848 484 742 q 438 840 494 840 l 164 840 q 142 839 157 840 q 121 838 128 838 q 53 861 81 838 q 22 930 22 887 q 159 1023 22 1023 q 299 1018 206 1023 q 439 1012 392 1012 q 595 1015 491 1012 q 751 1017 699 1017 q 954 929 954 1017 q 864 810 954 873 m 686 1298 q 668 1285 686 1298 q 597 1215 650 1273 q 509 1130 541 1154 q 450 1110 482 1110 q 388 1133 414 1110 q 361 1187 361 1156 q 390 1242 361 1212 q 439 1288 415 1265 q 525 1379 512 1367 q 634 1434 587 1434 q 696 1411 670 1434 q 722 1357 722 1387 q 686 1298 722 1322 z "},"ź":{"ha":747,"x_min":33,"x_max":710,"o":"m 652 518 q 624 486 652 518 q 513 342 595 453 q 372 154 400 189 q 441 155 414 155 q 520 145 468 155 q 598 136 572 136 q 666 110 639 136 q 692 46 692 85 q 666 -18 692 7 q 598 -43 640 -43 q 519 -33 571 -43 q 441 -24 467 -24 q 157 -49 289 -24 q 127 -52 139 -52 q 63 -32 90 -52 q 33 27 33 -9 q 76 106 33 71 q 429 525 245 250 q 349 523 387 523 q 138 538 245 523 q 55 626 55 549 q 81 690 55 663 q 146 716 106 716 q 247 709 180 716 q 349 702 315 702 q 487 708 395 702 q 625 713 579 713 q 710 644 710 713 q 652 518 710 583 m 591 992 q 573 980 591 992 q 502 909 555 968 q 414 825 446 848 q 355 805 387 805 q 293 828 319 805 q 267 882 267 851 q 295 937 267 907 q 345 983 320 960 q 430 1074 417 1062 q 539 1129 492 1129 q 601 1105 575 1129 q 627 1052 627 1082 q 591 992 627 1017 z "},"Ż":{"ha":963,"x_min":8,"x_max":954,"o":"m 864 810 q 772 751 827 787 q 501 460 658 667 q 261 136 381 298 l 258 133 q 497 142 308 134 q 734 149 646 149 q 865 142 831 149 q 949 64 947 124 q 918 -7 951 19 q 850 -29 890 -29 q 791 -27 830 -29 q 732 -24 751 -24 q 422 -30 629 -24 q 113 -35 216 -35 q 40 -12 68 -35 q 8 56 8 12 q 51 172 8 105 q 127 275 64 193 q 351 571 239 423 q 600 848 484 742 q 438 840 494 840 l 164 840 q 142 839 157 840 q 121 838 128 838 q 53 861 81 838 q 22 930 22 887 q 159 1023 22 1023 q 299 1018 206 1023 q 439 1012 392 1012 q 595 1015 491 1012 q 751 1017 699 1017 q 954 929 954 1017 q 864 810 954 873 m 517 1080 q 444 1114 486 1080 q 397 1191 397 1151 q 435 1262 397 1235 q 499 1284 467 1284 q 571 1251 529 1284 q 617 1175 617 1214 q 581 1103 617 1131 q 517 1080 550 1080 z "},"ż":{"ha":747,"x_min":33,"x_max":710,"o":"m 652 518 q 624 486 652 518 q 513 342 595 453 q 372 154 400 189 q 441 155 414 155 q 520 145 468 155 q 598 136 572 136 q 666 110 639 136 q 692 46 692 85 q 666 -18 692 7 q 598 -43 640 -43 q 519 -33 571 -43 q 441 -24 467 -24 q 157 -49 289 -24 q 127 -52 139 -52 q 63 -32 90 -52 q 33 27 33 -9 q 76 106 33 71 q 429 525 245 250 q 349 523 387 523 q 138 538 245 523 q 55 626 55 549 q 81 690 55 663 q 146 716 106 716 q 247 709 180 716 q 349 702 315 702 q 487 708 395 702 q 625 713 579 713 q 710 644 710 713 q 652 518 710 583 m 435 775 q 362 808 404 775 q 316 886 316 846 q 354 957 316 930 q 418 979 385 979 q 490 946 448 979 q 536 869 536 909 q 499 798 536 826 q 435 775 469 775 z "},"Γ":{"ha":765,"x_min":41,"x_max":766,"o":"m 766 926 q 612 1037 766 1011 q 393 1048 547 1048 q 301 1047 363 1048 q 208 1046 239 1046 q 41 900 41 1046 q 55 685 41 907 q 73 30 73 397 q 100 -36 73 -9 q 167 -63 127 -63 q 234 -36 206 -63 q 262 30 262 -9 q 243 696 262 404 q 231 862 237 751 l 254 862 q 340 863 284 861 q 427 865 400 865 q 643 838 545 865 q 673 833 660 833 q 739 860 711 833 q 766 926 766 888 z "},"Θ":{"ha":1109,"x_min":41,"x_max":1066,"o":"m 1066 593 q 933 175 1066 362 q 533 -41 780 -41 q 191 74 332 -41 q 41 393 41 197 q 185 814 41 624 q 593 1027 347 1027 q 1066 593 1066 1027 m 873 593 q 810 791 873 735 q 593 844 749 844 q 334 697 442 844 q 233 393 233 560 q 321 210 233 281 q 533 142 405 142 q 782 289 682 142 q 873 593 873 422 m 792 492 q 760 439 792 458 q 698 423 733 423 q 610 426 669 423 q 523 429 552 429 q 471 426 506 429 q 419 423 436 423 q 356 440 383 423 q 325 493 325 460 q 473 570 325 570 q 586 565 511 570 q 698 561 661 561 q 760 545 733 561 q 792 492 792 525 z "},"Φ":{"ha":854,"x_min":34,"x_max":806,"o":"m 340 651 q 169 495 169 651 q 216 424 169 454 q 320 395 262 395 l 336 395 l 336 475 q 340 651 336 564 m 517 673 q 505 671 511 671 q 503 489 503 600 l 503 397 q 671 536 671 411 q 517 673 671 673 m 511 808 q 720 739 640 808 q 806 536 806 665 q 503 264 806 286 l 502 162 q 699 164 606 164 q 757 141 734 164 q 780 83 780 117 q 757 27 780 50 q 699 3 734 3 q 585 2 661 3 q 471 0 509 0 q 337 -12 427 0 q 203 -24 248 -24 q 145 -1 168 -24 q 122 56 122 22 q 145 113 122 90 q 203 136 168 136 q 338 149 250 136 q 337 260 338 195 l 320 260 q 127 314 206 260 q 34 495 34 377 q 126 710 34 641 q 347 787 193 760 q 351 851 349 819 q 189 846 188 846 q 131 870 155 846 q 107 928 107 893 q 184 1008 107 1000 q 390 1013 243 1013 q 731 984 522 1013 q 802 902 802 974 q 774 842 802 864 q 719 823 750 823 q 513 845 685 823 q 511 808 512 826 z "},"α":{"ha":772,"x_min":38,"x_max":745,"o":"m 507 179 q 486 420 486 340 q 498 533 486 464 q 456 546 475 546 q 295 473 363 546 q 226 307 226 400 q 356 124 226 124 q 507 179 440 124 m 570 668 q 662 711 609 711 q 740 657 740 711 q 716 594 740 644 q 684 526 685 531 q 669 422 669 488 q 688 176 669 234 q 720 104 691 165 q 745 39 745 49 q 718 -21 745 3 q 654 -45 690 -45 q 555 23 624 -45 q 365 -37 431 -37 q 38 312 38 -37 q 161 593 38 477 q 448 708 282 708 q 510 695 468 708 q 570 668 552 682 z "},"δ":{"ha":730,"x_min":29,"x_max":692,"o":"m 504 305 q 389 524 513 524 q 258 448 306 525 q 217 298 217 384 q 263 173 217 216 q 349 138 300 138 q 451 178 408 138 q 504 305 500 224 m 340 867 q 486 751 482 755 q 624 589 576 672 q 686 353 686 481 q 599 81 686 193 q 349 -40 505 -40 q 115 65 206 -40 q 29 311 29 165 q 100 549 29 444 q 301 692 176 661 q 109 867 221 815 q 41 951 41 898 q 73 1011 41 989 q 139 1031 100 1031 q 235 1028 171 1031 q 331 1025 299 1025 q 466 1031 382 1025 q 601 1039 573 1038 l 609 1040 q 668 1016 645 1041 q 692 954 692 991 q 591 881 692 895 q 340 867 503 869 z "},"ε":{"ha":683,"x_min":79,"x_max":644,"o":"m 373 -35 q 172 9 248 -35 q 79 182 79 65 q 167 376 79 304 q 102 505 102 440 q 186 659 102 599 q 359 713 261 713 q 522 682 447 713 q 618 566 618 641 q 592 512 618 532 q 532 492 566 492 q 456 521 507 492 q 359 550 405 550 q 277 505 277 550 q 361 423 277 466 q 445 347 445 380 q 397 295 445 295 q 256 210 256 295 q 373 128 256 128 q 471 163 410 128 q 557 198 531 198 q 618 173 591 198 q 644 113 644 147 q 538 3 644 49 q 373 -35 450 -35 z "},"σ":{"ha":777,"x_min":24,"x_max":812,"o":"m 504 305 q 389 524 513 524 q 258 448 306 525 q 217 298 217 384 q 263 173 217 216 q 349 138 300 138 q 451 178 408 138 q 504 305 500 224 m 460 696 q 654 679 629 679 q 684 684 665 679 q 714 692 708 692 q 739 694 727 694 q 812 627 812 694 q 774 549 812 583 q 659 509 730 511 q 686 353 686 437 q 602 84 686 195 q 349 -40 507 -40 q 133 46 223 -40 q 29 298 34 140 q 111 565 24 448 q 398 703 214 703 q 460 696 430 703 z "},"τ":{"ha":654,"x_min":17,"x_max":642,"o":"m 574 555 q 481 553 564 553 q 416 547 458 553 q 431 109 431 242 q 332 -43 431 -43 q 267 -21 295 -43 q 237 39 237 3 q 239 112 237 63 q 241 184 241 160 q 229 543 241 285 q 95 547 162 545 q 17 627 17 561 q 42 690 17 663 q 109 717 68 717 q 180 711 133 717 q 252 706 228 706 q 384 707 372 706 q 446 713 395 708 q 509 717 484 717 q 642 626 642 717 q 574 555 642 569 z "},"φ":{"ha":888,"x_min":35,"x_max":856,"o":"m 541 -39 q 528 -208 539 -153 q 443 -278 514 -278 q 380 -256 406 -278 q 353 -198 353 -233 q 354 -183 353 -191 q 366 -35 364 -112 q 132 68 219 -12 q 35 297 35 156 q 54 445 35 361 q 106 585 75 536 q 208 647 143 647 q 278 573 278 647 q 255 482 278 538 q 216 254 216 391 q 267 159 216 206 q 361 102 311 116 q 354 408 354 263 q 562 699 354 699 q 795 549 717 699 q 856 260 856 430 q 758 52 856 135 q 541 -39 671 -22 m 562 548 q 527 410 527 548 q 529 352 527 391 q 532 294 532 313 q 536 94 532 210 q 636 155 591 105 q 681 260 681 205 q 562 548 681 548 z "},"‗":{"ha":871,"x_min":-24,"x_max":897,"o":"m 897 -214 l 660 -214 q 515 -210 612 -214 q 371 -207 419 -207 l 69 -207 q 22 -210 54 -207 q -24 -214 -9 -214 l -24 -88 q 180 -87 44 -88 q 383 -86 315 -86 q 527 -90 431 -86 q 670 -94 622 -94 q 897 -88 751 -94 l 897 -214 m 897 -404 l 660 -404 q 515 -400 612 -404 q 371 -397 419 -397 l 69 -397 q 22 -400 54 -397 q -24 -404 -9 -404 l -24 -278 q 180 -277 44 -278 q 383 -276 315 -276 q 527 -280 431 -276 q 670 -283 622 -283 q 897 -278 751 -283 l 897 -404 z "},"‼":{"ha":625,"x_min":54,"x_max":551,"o":"m 164 201 q 101 225 126 201 q 77 285 77 249 q 75 364 77 311 q 73 443 73 416 q 75 724 73 536 q 77 1004 77 911 q 102 1064 77 1040 q 164 1088 127 1088 q 227 1064 201 1088 q 252 1004 252 1040 l 252 285 q 227 225 252 249 q 164 201 202 201 m 162 -45 q 86 -1 121 -45 q 54 73 54 39 q 82 132 54 109 q 145 156 110 156 q 220 113 186 156 q 252 39 252 73 q 225 -20 252 4 q 162 -45 197 -45 m 463 201 q 400 225 425 201 q 375 285 375 249 q 373 364 375 311 q 372 443 372 416 q 373 724 372 536 q 375 1004 375 911 q 400 1064 375 1040 q 463 1088 425 1088 q 525 1064 500 1088 q 550 1004 550 1040 l 550 285 q 525 225 550 249 q 463 201 500 201 m 460 -45 q 385 -1 420 -45 q 353 73 353 39 q 380 132 353 109 q 444 156 408 156 q 519 113 484 156 q 551 39 551 73 q 523 -20 551 4 q 460 -45 496 -45 z "},"ⁿ":{"ha":732,"x_min":105,"x_max":617,"o":"m 532 543 q 451 612 460 543 q 435 848 435 745 q 436 881 435 858 q 437 913 437 903 q 420 930 437 919 q 384 944 400 944 q 323 921 345 944 q 279 830 300 897 q 273 688 273 736 q 276 658 273 678 q 278 628 278 638 q 254 573 278 595 q 194 551 230 551 q 134 573 158 551 q 110 628 110 595 q 107 658 110 638 q 105 688 105 678 q 111 817 105 724 q 116 945 116 909 q 115 977 116 956 q 113 1009 113 998 q 138 1063 113 1042 q 198 1084 163 1084 q 270 1020 237 1084 q 322 1060 288 1043 q 384 1077 355 1077 q 560 1009 511 1077 q 601 826 601 953 q 609 722 601 798 q 617 619 617 647 q 592 565 617 586 q 532 543 567 543 z "},"₧":{"ha":1762,"x_min":41,"x_max":1708,"o":"m 530 745 q 460 847 530 802 q 314 890 393 890 q 248 888 271 890 q 247 793 248 857 q 234 558 245 718 q 280 553 269 553 q 456 603 386 553 q 530 745 530 656 m 1708 184 q 1599 7 1708 68 q 1384 -41 1512 -41 q 1219 -13 1294 -41 q 1118 99 1118 25 q 1198 167 1118 167 q 1289 147 1230 167 q 1379 127 1348 127 q 1518 183 1517 127 q 1422 260 1518 218 q 1244 349 1283 321 q 1147 512 1147 416 q 1150 548 1147 531 q 1128 546 1139 546 q 1095 547 1114 546 q 1061 548 1075 548 q 997 543 1034 548 q 1009 184 1009 269 q 1010 152 1009 176 q 1010 113 1010 127 q 912 -43 1010 -43 q 846 -20 875 -43 q 818 41 818 4 q 820 114 818 65 q 822 187 822 163 q 810 538 822 269 q 682 549 768 541 q 654 555 667 551 q 491 422 597 470 q 280 378 393 378 q 223 383 269 378 q 219 71 219 288 q 194 9 219 35 q 130 -16 169 -16 q 66 9 92 -16 q 41 71 41 35 l 41 260 q 54 572 41 366 q 68 884 67 781 q 167 1053 68 1061 q 330 1065 213 1065 q 579 979 463 1065 q 709 745 709 883 q 708 728 709 736 q 805 720 724 728 q 801 792 804 742 q 799 859 799 836 q 826 922 799 897 q 894 947 854 947 q 994 779 994 947 q 993 723 994 776 q 1061 729 1034 729 q 1159 722 1132 729 q 1219 661 1211 707 q 1550 724 1308 724 q 1650 706 1617 724 q 1695 618 1695 682 q 1629 496 1695 496 q 1548 553 1563 496 q 1493 557 1521 557 q 1329 513 1329 557 q 1428 441 1329 486 q 1610 345 1563 380 q 1708 184 1708 274 z "},"Ĳ":{"ha":1632,"x_min":24,"x_max":1594,"o":"m 649 802 q 456 821 614 802 q 446 489 446 696 l 446 184 q 629 186 536 186 q 697 159 670 186 q 724 94 724 132 q 697 30 724 56 q 629 3 670 3 q 515 1 591 3 q 401 -1 439 -1 q 267 -13 357 -1 q 133 -24 178 -24 q 65 2 92 -24 q 39 67 39 29 q 65 132 39 105 q 133 159 92 159 q 254 170 179 159 q 253 476 253 250 q 267 828 253 661 l 119 824 q 51 850 79 824 q 24 916 24 877 q 51 981 24 956 q 113 1008 76 1004 q 320 1013 172 1013 q 663 985 453 1013 q 746 891 746 973 q 712 823 746 848 q 649 802 684 802 m 1499 833 q 1461 835 1487 833 q 1418 838 1434 838 l 1365 838 q 1364 789 1364 849 q 1296 82 1364 304 q 1114 -81 1246 -81 q 864 5 987 -81 q 724 233 724 102 q 820 339 724 339 q 916 235 916 339 q 984 149 916 195 q 1114 103 1053 103 q 1149 193 1138 103 q 1164 404 1152 215 q 1174 789 1174 559 q 1172 833 1174 799 l 1156 833 q 1076 833 1126 831 q 996 836 1016 836 q 928 861 956 836 q 899 929 899 887 q 1020 1021 899 1021 q 1088 1020 1043 1021 q 1156 1018 1134 1018 q 1284 1023 1199 1018 q 1412 1027 1369 1027 q 1594 926 1594 1027 q 1569 863 1594 891 q 1499 833 1541 833 z "},"ĳ":{"ha":777,"x_min":94,"x_max":682,"o":"m 224 815 q 149 844 180 815 q 117 916 117 873 q 149 987 117 958 q 224 1016 180 1016 q 299 987 267 1016 q 330 916 330 958 q 299 844 330 873 q 224 815 267 815 m 281 318 q 284 194 281 279 q 286 70 286 109 q 260 5 286 31 q 193 -20 233 -20 q 125 5 152 -20 q 99 70 99 31 q 97 194 99 109 q 94 318 94 279 q 101 469 94 378 q 108 621 108 560 q 134 685 108 660 q 201 711 161 711 q 269 685 242 711 q 295 621 295 660 q 288 469 295 560 q 281 318 281 378 m 527 812 q 452 841 484 812 q 420 913 420 870 q 452 985 420 956 q 527 1015 484 1015 q 602 985 570 1015 q 634 913 634 956 q 602 841 634 870 q 527 812 570 812 m 494 -127 q 471 249 494 -56 q 448 610 448 553 q 472 684 448 651 q 544 720 500 720 q 606 699 575 720 q 642 646 640 676 q 664 270 650 517 q 682 -134 682 -59 q 621 -314 682 -232 q 450 -405 552 -405 q 181 -173 286 -405 q 171 -131 171 -151 q 201 -66 171 -94 q 268 -41 230 -41 q 345 -88 311 -41 q 394 -176 369 -132 q 450 -222 421 -222 q 494 -127 486 -222 z "},"ŉ":{"ha":890,"x_min":52,"x_max":861,"o":"m 766 -48 q 673 34 683 -48 q 654 174 664 104 q 644 315 644 249 q 647 375 644 332 q 649 435 649 418 q 650 459 649 440 q 652 491 652 479 q 623 547 652 547 q 500 474 560 547 q 406 290 440 401 q 400 230 405 267 q 396 170 396 199 q 400 113 396 151 q 405 56 405 75 q 378 -8 405 17 q 311 -34 351 -34 q 243 -8 270 -34 q 217 56 217 17 q 213 113 217 75 q 209 170 209 151 q 218 351 209 235 q 228 532 228 467 q 225 593 228 553 q 223 653 223 633 q 251 716 223 691 q 318 741 278 741 q 413 634 407 741 l 414 627 q 623 726 513 726 q 800 619 751 726 q 832 404 832 547 l 832 356 q 831 312 831 325 q 846 176 831 259 q 861 40 861 92 q 833 -23 861 2 q 766 -48 806 -48 m 163 810 q 98 840 123 810 q 76 889 80 862 q 52 1061 52 1037 q 75 1121 52 1097 q 135 1144 98 1144 q 222 1069 210 1144 q 246 893 246 924 q 223 833 246 857 q 163 810 200 810 z "},"′":{"ha":314,"x_min":52,"x_max":246,"o":"m 136 742 q 200 772 175 742 q 222 821 218 794 q 246 993 246 969 q 223 1053 246 1029 q 163 1076 201 1076 q 76 1001 88 1076 q 52 825 52 857 q 75 765 52 789 q 136 742 98 742 z "},"″":{"ha":589,"x_min":52,"x_max":511,"o":"m 136 742 q 200 772 175 742 q 222 821 218 794 q 246 993 246 969 q 223 1053 246 1029 q 163 1076 201 1076 q 76 1001 88 1076 q 52 825 52 857 q 75 765 52 789 q 136 742 98 742 m 400 742 q 465 772 439 742 q 487 821 483 794 q 511 993 511 969 q 488 1053 511 1029 q 428 1076 465 1076 q 340 1001 353 1076 q 317 825 317 857 q 340 765 317 789 q 400 742 363 742 z "},"℅":{"ha":1185,"x_min":55,"x_max":1147,"o":"m 889 960 q 836 859 865 922 q 789 755 796 769 q 655 481 743 665 q 503 176 604 380 q 434 28 481 125 q 359 -20 408 -20 q 300 2 326 -20 q 273 58 273 24 q 376 298 273 94 q 501 544 439 421 q 684 931 565 672 q 819 1087 749 1087 q 879 1063 853 1087 q 905 1006 905 1040 q 889 960 905 985 m 884 -14 q 712 46 781 -14 q 640 208 640 108 q 703 383 640 313 q 883 459 770 459 q 1060 405 983 459 q 1147 243 1147 343 q 1074 61 1147 134 q 884 -14 999 -14 m 319 542 q 130 613 205 542 q 55 795 55 685 q 390 1059 55 1059 q 452 1035 427 1059 q 477 975 477 1011 q 452 916 477 939 q 390 892 427 892 q 282 881 311 892 q 230 795 230 861 q 254 734 230 759 q 319 709 278 709 q 367 717 336 709 q 416 725 399 725 q 475 696 452 725 q 494 641 494 672 q 432 562 494 587 q 319 542 385 542 m 883 299 q 808 208 808 299 q 899 146 808 146 q 963 168 945 146 q 980 243 980 189 q 951 282 980 265 q 883 299 922 299 z "},"ℓ":{"ha":749,"x_min":74,"x_max":699,"o":"m 391 564 q 492 697 454 616 q 530 863 530 778 q 507 937 530 909 q 469 960 489 960 q 391 564 404 896 m 142 468 q 218 488 180 475 q 469 1129 218 1129 q 644 1038 578 1129 q 699 863 699 960 q 608 572 699 703 q 388 379 526 455 l 388 363 q 395 210 388 251 q 474 104 412 104 q 562 132 507 104 q 609 144 587 144 q 659 122 640 144 q 678 68 678 100 q 631 -21 678 16 q 474 -65 576 -65 q 266 60 328 -65 q 219 312 223 149 q 156 300 174 300 q 96 327 119 300 q 74 387 74 352 q 142 468 74 454 z "},"΄":{"ha":772,"x_min":288,"x_max":538,"o":"m 432 813 q 365 779 405 779 q 309 802 331 779 q 288 848 288 821 q 326 932 288 857 q 373 1021 361 1004 q 448 1059 399 1059 q 510 1038 482 1059 q 538 987 538 1017 q 432 813 538 947 z "},"Ā":{"ha":1016,"x_min":62,"x_max":944,"o":"m 848 -20 q 740 106 794 -18 q 678 290 704 186 q 514 275 628 283 q 350 258 407 268 q 241 33 319 183 q 159 -16 212 -16 q 92 10 121 -16 q 62 75 62 35 q 161 309 62 109 q 153 349 151 330 q 218 399 155 381 q 433 745 315 566 q 642 1002 602 1002 q 741 912 716 1002 q 784 694 755 840 q 885 248 825 499 q 920 158 890 229 q 944 71 944 100 q 915 5 944 31 q 848 -20 885 -22 m 595 675 q 449 428 542 585 q 544 439 479 435 q 640 446 620 444 q 595 675 623 534 m 854 1085 q 806 1082 834 1082 l 664 1082 q 566 1084 631 1082 q 468 1085 500 1085 q 397 1106 427 1085 q 365 1164 365 1129 q 511 1244 365 1244 q 591 1242 538 1244 q 671 1240 644 1240 q 754 1241 699 1240 q 836 1242 809 1242 q 907 1224 877 1242 q 943 1163 943 1202 q 854 1085 943 1097 z "},"ā":{"ha":772,"x_min":38,"x_max":745,"o":"m 654 -45 q 555 23 623 -45 q 446 -22 493 -7 q 365 -37 398 -37 q 120 50 201 -37 q 38 312 38 138 q 159 592 38 475 q 448 708 279 708 q 597 671 512 708 q 699 569 699 627 q 684 526 699 545 q 673 458 677 499 q 669 362 669 417 q 688 176 669 233 q 719 105 690 170 q 745 39 745 47 q 718 -21 745 3 q 654 -45 690 -45 m 486 420 q 489 470 486 442 q 498 533 492 498 q 474 543 485 540 q 456 546 464 546 q 295 474 364 546 q 226 307 226 401 q 258 170 226 216 q 356 124 291 124 q 436 138 398 124 q 507 179 473 152 q 486 420 486 340 m 644 780 q 596 777 624 777 l 454 777 q 356 779 421 777 q 258 780 290 780 q 186 801 216 780 q 155 859 155 824 q 300 939 155 939 q 381 937 328 939 q 461 935 434 935 q 544 936 488 935 q 626 937 599 937 q 697 919 667 937 q 733 858 733 897 q 644 780 733 792 z "}}}
